<?xml version="1.0" standalone="no"?>
<!DOCTYPE svg PUBLIC "-//W3C//DTD SVG 1.1//EN" "http://www.w3.org/Graphics/SVG/1.1/DTD/svg11.dtd" >
<svg xmlns="http://www.w3.org/2000/svg" xmlns:xlink="http://www.w3.org/1999/xlink" version="1.1">
<metadata>
Created by FontForge 20170731 at Mon Feb  1 18:30:00 2016
 By Aleksey,,,
Copyright (c) Mark Simonson, 2005. All rights reserved.
</metadata>
<defs>
<font id="ProximaNovaT-Thin" horiz-adv-x="528" >
  <font-face 
    font-family="Proxima Nova Thin"
    font-weight="250"
    font-stretch="normal"
    units-per-em="1000"
    panose-1="2 0 5 6 3 0 0 2 0 4"
    ascent="790"
    descent="-210"
    x-height="483"
    cap-height="667"
    bbox="-172 -287 1085 930"
    underline-thickness="20"
    underline-position="-173"
    unicode-range="U+000D-FB04"
  />
<missing-glyph horiz-adv-x="527" 
d="M88 -90v842h351v-842h-351zM407 722h-288v-782h288v782z" />
    <glyph glyph-name="f_f_j" unicode="ffj" horiz-adv-x="694" 
d="M100 0v456h-80v27h80v51q0 67 32 105t89 38q35 0 57 -13l-13 -26q-21 12 -44 12q-91 0 -91 -116v-51h98v-27h-98v-456h-30zM346 0v456h-80v27h80v51q0 67 32 105t89 38q35 0 57 -13l-13 -26q-21 12 -44 12q-91 0 -91 -116v-51h98v-27h-98v-456h-30zM593 566
q-11 0 -20 8.5t-9 20.5t9 20.5t20 8.5q12 0 20.5 -8.5t8.5 -20.5t-8.5 -20.5t-20.5 -8.5zM608 483v-559q0 -60 -30.5 -90t-84.5 -30q-31 0 -55 10l10 27q20 -9 45 -9q85 0 85 92v559h30z" />
    <glyph glyph-name="f_j" unicode="fj" horiz-adv-x="448" 
d="M100 0v456h-80v27h80v51q0 67 32 105t89 38q35 0 57 -13l-13 -26q-21 12 -44 12q-91 0 -91 -116v-51h98v-27h-98v-456h-30zM347 566q-11 0 -20 8.5t-9 20.5t9 20.5t20 8.5q12 0 20.5 -8.5t8.5 -20.5t-8.5 -20.5t-20.5 -8.5zM362 483v-559q0 -60 -30.5 -90t-84.5 -30
q-31 0 -55 10l10 27q20 -9 45 -9q85 0 85 92v559h30z" />
    <glyph glyph-name="f_f" unicode="ff" horiz-adv-x="492" 
d="M100 0v456h-80v27h80v51q0 67 32 105t89 38q35 0 57 -13l-13 -26q-21 12 -44 12q-91 0 -91 -116v-51h98v-27h-98v-456h-30zM346 0v456h-80v27h80v51q0 67 32 105t89 38q35 0 57 -13l-13 -26q-21 12 -44 12q-91 0 -91 -116v-51h98v-27h-98v-456h-30z" />
    <glyph glyph-name="fi" unicode="fi" horiz-adv-x="448" 
d="M100 0v456h-80v27h80v51q0 67 32 105t89 38q35 0 57 -13l-13 -26q-21 12 -44 12q-91 0 -91 -116v-51h98v-27h-98v-456h-30zM347 566q-11 0 -20 8.5t-9 20.5t9 20.5t20 8.5q12 0 20.5 -8.5t8.5 -20.5t-8.5 -20.5t-20.5 -8.5zM332 0v483h30v-483h-30z" />
    <glyph glyph-name="fl" unicode="fl" horiz-adv-x="448" 
d="M100 0v456h-80v27h80v51q0 67 32 105t89 38q35 0 57 -13l-13 -26q-21 12 -44 12q-91 0 -91 -116v-51h98v-27h-98v-456h-30zM332 0v667h30v-667h-30z" />
    <glyph glyph-name="f_f_i" unicode="ffi" horiz-adv-x="694" 
d="M100 0v456h-80v27h80v51q0 67 32 105t89 38q35 0 57 -13l-13 -26q-21 12 -44 12q-91 0 -91 -116v-51h98v-27h-98v-456h-30zM346 0v456h-80v27h80v51q0 67 32 105t89 38q35 0 57 -13l-13 -26q-21 12 -44 12q-91 0 -91 -116v-51h98v-27h-98v-456h-30zM593 566
q-11 0 -20 8.5t-9 20.5t9 20.5t20 8.5q12 0 20.5 -8.5t8.5 -20.5t-8.5 -20.5t-20.5 -8.5zM578 0v483h30v-483h-30z" />
    <glyph glyph-name="f_f_l" unicode="ffl" horiz-adv-x="694" 
d="M100 0v456h-80v27h80v51q0 67 32 105t89 38q35 0 57 -13l-13 -26q-21 12 -44 12q-91 0 -91 -116v-51h98v-27h-98v-456h-30zM346 0v456h-80v27h80v51q0 67 32 105t89 38q35 0 57 -13l-13 -26q-21 12 -44 12q-91 0 -91 -116v-51h98v-27h-98v-456h-30zM578 0v667h30v-667
h-30z" />
    <glyph glyph-name="f_b" unicode="fb" horiz-adv-x="812" 
d="M100 0v456h-80v27h80v51q0 67 32 105t89 38q35 0 57 -13l-13 -26q-21 12 -44 12q-91 0 -91 -116v-51h98v-27h-98v-456h-30zM332 0v667h30v-267q30 44 75.5 69.5t98.5 25.5q97 0 156.5 -70t59.5 -184q0 -115 -59 -184t-157 -69q-54 0 -101 26.5t-73 66.5v-81h-30zM362 111
q24 -40 72 -68t102 -28q86 0 134.5 63.5t48.5 162.5t-48.5 163t-134.5 64q-54 0 -102 -29t-72 -69v-259z" />
    <glyph glyph-name="f_h" unicode="fh" horiz-adv-x="774" 
d="M100 0v456h-80v27h80v51q0 67 32 105t89 38q35 0 57 -13l-13 -26q-21 12 -44 12q-91 0 -91 -116v-51h98v-27h-98v-456h-30zM658 0v339q0 72 -32 100.5t-93 28.5q-48 0 -96 -26.5t-75 -64.5v-377h-30v667h30v-260q29 35 78 61.5t97 26.5q75 0 113 -36.5t38 -119.5v-339
h-30z" />
    <glyph glyph-name="f_k" unicode="fk" horiz-adv-x="742" 
d="M100 0v456h-80v27h80v51q0 67 32 105t89 38q35 0 57 -13l-13 -26q-21 12 -44 12q-91 0 -91 -116v-51h98v-27h-98v-456h-30zM674 0l-212 243l-100 -92v-151h-30v667h30v-478l315 294h43l-235 -218l232 -265h-43z" />
    <glyph glyph-name=".notdef" horiz-adv-x="527" 
d="M88 -90v842h351v-842h-351zM407 722h-288v-782h288v782z" />
    <glyph glyph-name=".null" horiz-adv-x="0" 
 />
    <glyph glyph-name="nonmarkingreturn" horiz-adv-x="333" 
 />
    <glyph glyph-name="NULL" horiz-adv-x="0" 
 />
    <glyph glyph-name="NULL" horiz-adv-x="0" 
 />
    <glyph glyph-name="CR" unicode="&#xd;" horiz-adv-x="0" 
 />
    <glyph glyph-name="space" unicode=" " horiz-adv-x="260" 
 />
    <glyph glyph-name="exclam" unicode="!" horiz-adv-x="208" 
d="M94 161l-11 506h42l-11 -506h-20zM71 24q0 13 10 22.5t23 9.5t23 -9.5t10 -22.5q0 -14 -9.5 -23.5t-23.5 -9.5t-23.5 9.5t-9.5 23.5z" />
    <glyph glyph-name="quotedbl" unicode="&#x22;" horiz-adv-x="290" 
d="M77 443q-15 197 -15 208t7.5 18.5t18.5 7.5t18.5 -7.5t7.5 -18.5l-15 -208h-22zM191 443q-15 197 -15 208t7.5 18.5t18.5 7.5t18.5 -7.5t7.5 -18.5l-15 -208h-22z" />
    <glyph glyph-name="numbersign" unicode="#" horiz-adv-x="567" 
d="M234 0l65 191h-125l-64 -191h-33l64 191h-115l9 29h116l76 227h-117l8 29h119l63 191h33l-63 -191h124l63 191h33l-64 -191h115l-7 -29h-117l-77 -227h120l-9 -29h-120l-64 -191h-33zM384 447h-124l-76 -227h123z" />
    <glyph glyph-name="dollar" unicode="$" horiz-adv-x="575" 
d="M514 169q0 -67 -48.5 -121t-158.5 -59v-89h-32v88q-71 2 -128.5 31t-93.5 75l26 23q76 -94 196 -99v318q-39 11 -60 18t-52.5 22t-47.5 31t-28.5 42t-12.5 59q0 76 58.5 122t142.5 48v90h32v-91q122 -7 192 -93l-25 -23q-60 78 -167 86v-285q48 -14 77.5 -26t63 -33.5
t50 -55t16.5 -78.5zM109 508q0 -30 12.5 -52.5t39 -38.5t50.5 -25t64 -21v277q-71 -2 -118.5 -41.5t-47.5 -98.5zM307 19q93 5 132.5 49.5t39.5 100.5q0 67 -44.5 100.5t-127.5 57.5v-308z" />
    <glyph glyph-name="percent" unicode="%" horiz-adv-x="709" 
d="M36 513q0 71 43 117.5t110 46.5t110 -46.5t43 -117.5q0 -70 -43 -116t-110 -46t-110 46t-43 116zM127 0l426 667h37l-427 -667h-36zM309 513q0 57 -33.5 97t-86.5 40q-52 0 -86 -40t-34 -97q0 -55 34 -95t86 -40q53 0 86.5 39.5t33.5 95.5zM367 150q0 71 43 117.5
t110 46.5t110 -46.5t43 -117.5q0 -70 -43 -116t-110 -46t-110 46t-43 116zM640 150q0 57 -33.5 97t-86.5 40t-86.5 -40t-33.5 -97q0 -56 33.5 -95.5t86.5 -39.5t86.5 39.5t33.5 95.5z" />
    <glyph glyph-name="ampersand" unicode="&#x26;" horiz-adv-x="637" 
d="M591 0h-53q-39 33 -96 90q-81 -102 -199 -102q-84 0 -140 47t-56 132q0 73 39.5 119t111.5 87q-58 89 -58 154t43.5 107.5t105.5 42.5q60 0 95 -32t35 -90q0 -34 -12.5 -61.5t-40 -50.5t-49.5 -37.5t-62 -36.5q-7 -4 -11 -6q35 -49 94 -115q52 -58 100 -106q50 76 79 171
l32 -12q-44 -121 -86 -183q46 -46 128 -118zM175 527q0 -58 52 -138q33 18 48 26.5t40.5 26t37 32t21.5 36t10 45.5q0 44 -26.5 68t-68.5 24q-47 0 -80.5 -34t-33.5 -86zM243 18q97 0 175 96q-76 78 -106 112q-65 75 -97 121q-63 -38 -98 -78.5t-35 -101.5q0 -71 47 -110
t114 -39z" />
    <glyph glyph-name="quotesingle" unicode="'" horiz-adv-x="176" 
d="M77 443q-15 197 -15 208t7.5 18.5t18.5 7.5t18.5 -7.5t7.5 -18.5l-15 -208h-22z" />
    <glyph glyph-name="parenleft" unicode="(" horiz-adv-x="206" 
d="M173 -199q-126 206 -126 442t126 442l16 -11q-54 -114 -80.5 -210t-26.5 -221q0 -124 26.5 -221t80.5 -209z" />
    <glyph glyph-name="parenright" unicode=")" horiz-adv-x="206" 
d="M124 243q0 125 -26.5 221t-80.5 210l16 11q126 -206 126 -442t-126 -442l-16 12q54 112 80.5 209t26.5 221z" />
    <glyph glyph-name="asterisk" unicode="*" horiz-adv-x="330" 
d="M150 409l6 119l-100 -65l-15 26l106 54l-106 54l15 26l100 -65l-6 119h30l-6 -119l100 65l15 -26l-106 -54l106 -54l-15 -26l-100 65l6 -119h-30z" />
    <glyph glyph-name="plus" unicode="+" horiz-adv-x="494" 
d="M263 322v-222h-32v222h-202v30h202v216h32v-216h202v-30h-202z" />
    <glyph glyph-name="comma" unicode="," horiz-adv-x="208" 
d="M80 -118l-22 18q24 18 38.5 43.5t14.5 48.5l-8 -1q-14 0 -23 9.5t-9 23.5q0 13 9 22.5t23 9.5q16 0 27.5 -14t11.5 -39q0 -36 -18 -69.5t-44 -51.5z" />
    <glyph glyph-name="hyphen" unicode="-" horiz-adv-x="300" 
d="M30 227v30h240v-30h-240z" />
    <glyph glyph-name="period" unicode="." horiz-adv-x="208" 
d="M71 24q0 13 10 22.5t23 9.5t23 -9.5t10 -22.5q0 -14 -9.5 -23.5t-23.5 -9.5t-23.5 9.5t-9.5 23.5z" />
    <glyph glyph-name="slash" unicode="/" horiz-adv-x="268" 
d="M0 -20l237 707h31l-237 -707h-31z" />
    <glyph glyph-name="zero" unicode="0" horiz-adv-x="605" 
d="M65 333q0 62 13 120t39.5 109.5t74.5 83t111 31.5t110.5 -31.5t74 -83t39.5 -109.5t13 -120q0 -61 -13 -119.5t-39.5 -110.5t-74 -83.5t-110.5 -31.5t-111 31.5t-74.5 83.5t-39.5 110.5t-13 119.5zM505 333q0 57 -10.5 109.5t-32.5 100t-63 76t-96 28.5t-96 -28.5
t-63.5 -76t-33 -100t-10.5 -109.5t10.5 -109.5t33 -100.5t63.5 -76.5t96 -28.5t96 29t63 76.5t32.5 100t10.5 109.5z" />
    <glyph glyph-name="one" unicode="1" horiz-adv-x="277" 
d="M157 0v621l-105 -115l-22 23l129 138h30v-667h-32z" />
    <glyph glyph-name="two" unicode="2" horiz-adv-x="577" 
d="M59 0v28q80 66 124 104.5t102.5 94.5t88 95t51 85.5t21.5 88.5q0 75 -49.5 113t-116.5 38q-62 0 -110 -24.5t-74 -65.5l-26 19q31 47 86.5 74t124.5 27q75 0 136 -45.5t61 -135.5q0 -33 -11.5 -67.5t-26.5 -63.5t-47 -67t-56.5 -63.5t-71.5 -68t-75 -66l-84 -70.5h374
v-30h-421z" />
    <glyph glyph-name="three" unicode="3" horiz-adv-x="531" 
d="M36 100l28 16q61 -98 188 -98q83 0 132 42.5t49 116.5q0 77 -55 115t-138 38q-46 0 -56 -1v32q10 -1 56 -1q77 0 130 36t53 107q0 66 -49.5 105t-121.5 39q-58 0 -100.5 -22t-81.5 -68l-25 20q79 100 207 100q83 0 143 -46.5t60 -127.5q0 -72 -45 -110.5t-97 -47.5
q31 -3 64 -19.5t60.5 -56t27.5 -92.5q0 -83 -56.5 -136t-156.5 -53q-75 0 -131.5 32t-84.5 80z" />
    <glyph glyph-name="four" unicode="4" horiz-adv-x="524" 
d="M353 0v195h-315v33l305 439h42v-442h101v-30h-101v-195h-32zM353 631l-280 -406h280v406z" />
    <glyph glyph-name="five" unicode="5" horiz-adv-x="574" 
d="M81 100l26 19q67 -101 190 -101q77 0 128.5 51.5t51.5 128.5q0 83 -51 132.5t-129 49.5q-95 0 -168 -69l-27 16v340h364v-30h-332v-291q66 64 163 64q89 0 150.5 -56t61.5 -156q0 -94 -62.5 -152t-149.5 -58q-145 0 -216 112z" />
    <glyph glyph-name="six" unicode="6" horiz-adv-x="577" 
d="M65 333q0 65 12.5 123t39 109t74.5 81.5t112 30.5q112 0 175 -90l-24 -21q-56 81 -151 81q-56 0 -98 -28.5t-64.5 -77t-33 -103t-10.5 -115.5q0 -24 1 -36q25 42 81.5 80.5t121.5 38.5q94 0 152.5 -53.5t58.5 -156.5q0 -83 -58 -145.5t-157 -62.5q-62 0 -108.5 28.5
t-72.5 78.5t-38.5 109.5t-12.5 128.5zM480 196q0 88 -49 134t-131 46q-59 0 -113 -36.5t-85 -93.5q4 -40 16 -78t34 -73t59.5 -56t85.5 -21q87 0 135 55.5t48 122.5z" />
    <glyph glyph-name="seven" unicode="7" horiz-adv-x="489" 
d="M122 0l293 637h-379v30h417v-22l-295 -645h-36z" />
    <glyph glyph-name="eight" unicode="8" horiz-adv-x="561" 
d="M66 165q0 68 50.5 114.5t122.5 64.5q-68 16 -115 57.5t-47 104.5q0 82 61 126.5t143 44.5q81 0 142.5 -45t61.5 -126q0 -63 -47 -104.5t-115 -57.5q72 -18 122 -64.5t50 -114.5q0 -77 -60.5 -127t-153.5 -50q-95 0 -155 49.5t-60 127.5zM453 506q0 65 -49.5 103
t-122.5 38t-122.5 -38t-49.5 -103q0 -37 20 -66t52.5 -45.5t54.5 -23.5t45 -12q23 4 45.5 12t54.5 24t52 45t20 66zM463 165q0 40 -22 73t-54.5 51.5t-59.5 28.5t-46 12q-19 -2 -46.5 -12t-60 -28.5t-54.5 -51.5t-22 -73q0 -66 54 -106.5t129 -40.5q74 0 128 40.5t54 106.5z
" />
    <glyph glyph-name="nine" unicode="9" horiz-adv-x="577" 
d="M99 79l24 21q56 -81 151 -81q56 0 98 28.5t64.5 77t33 103t10.5 115.5q0 24 -1 36q-25 -42 -81.5 -80.5t-121.5 -38.5q-94 0 -152.5 53.5t-58.5 156.5q0 83 58 145.5t157 62.5q62 0 108.5 -28.5t72.5 -78.5t38.5 -109.5t12.5 -128.5q0 -65 -12.5 -123t-39 -109
t-74.5 -81.5t-112 -30.5q-112 0 -175 90zM475 420q-4 40 -16 78t-34 73t-59.5 56t-85.5 21q-87 0 -135 -55.5t-48 -122.5q0 -88 49 -134t131 -46q59 0 113 36.5t85 93.5z" />
    <glyph glyph-name="colon" unicode=":" horiz-adv-x="208" 
d="M71 457q0 13 9.5 23t23.5 10t23.5 -10t9.5 -23t-10 -22.5t-23 -9.5t-23 9.5t-10 22.5zM71 24q0 13 10 22.5t23 9.5t23 -9.5t10 -22.5q0 -14 -9.5 -23.5t-23.5 -9.5t-23.5 9.5t-9.5 23.5z" />
    <glyph glyph-name="semicolon" unicode=";" horiz-adv-x="208" 
d="M104 425q-13 0 -23 9.5t-10 22.5t9.5 23t23.5 10t23.5 -10t9.5 -23t-10 -22.5t-23 -9.5zM80 -118l-22 18q24 18 38.5 43.5t14.5 48.5l-8 -1q-14 0 -23 9.5t-9 23.5q0 13 9 22.5t23 9.5q16 0 27.5 -14t11.5 -39q0 -36 -18 -69.5t-44 -51.5z" />
    <glyph glyph-name="less" unicode="&#x3c;" horiz-adv-x="494" 
d="M29 324v21l436 235v-36l-395 -210l395 -208v-36z" />
    <glyph glyph-name="equal" unicode="=" horiz-adv-x="494" 
d="M29 418v30h436v-30h-436zM29 220v30h436v-30h-436z" />
    <glyph glyph-name="greater" unicode="&#x3e;" horiz-adv-x="494" 
d="M29 90v36l395 208l-395 210v36l436 -235v-21z" />
    <glyph glyph-name="question" unicode="?" horiz-adv-x="467" 
d="M181 244q0 24 7.5 44t26 38t31 27.5t39.5 28.5q35 24 53 38.5t35.5 42.5t17.5 61q0 52 -40 87.5t-111 35.5q-68 0 -112.5 -25t-78.5 -73l-23 21q75 107 214 107q85 0 135.5 -44.5t50.5 -108.5q0 -30 -9.5 -55t-30.5 -46t-36.5 -33.5t-44.5 -31.5q-32 -22 -47.5 -34
t-31 -34t-15.5 -46q0 -30 33 -53l-19 -23q-44 33 -44 76zM189 24q0 13 10 22.5t23 9.5t23 -9.5t10 -22.5q0 -14 -9.5 -23.5t-23.5 -9.5t-23.5 9.5t-9.5 23.5z" />
    <glyph glyph-name="at" unicode="@" horiz-adv-x="783" 
d="M35 244q0 106 55.5 197.5t147 144t194.5 52.5q138 0 226.5 -94t88.5 -233q0 -105 -43.5 -165.5t-107.5 -60.5q-38 0 -62 26t-24 62v6q-28 -40 -74 -67t-97 -27q-68 0 -110 43t-42 115q0 106 75 181.5t168 75.5q49 0 82.5 -24.5t48.5 -62.5l14 69h30l-62 -294
q-1 -6 -1 -18q0 -26 15.5 -42t38.5 -16q17 0 36 9.5t39.5 30.5t33.5 62.5t13 97.5q0 127 -81 211.5t-208 84.5q-146 0 -255 -110.5t-109 -252.5q0 -122 82.5 -204t208.5 -82q97 0 188 57l16 -23q-98 -63 -208 -63q-136 0 -226.5 90.5t-90.5 223.5zM519 223l34 157
q-11 36 -42.5 64.5t-80.5 28.5q-85 0 -147.5 -70.5t-62.5 -159.5q0 -58 31.5 -94.5t87.5 -36.5t102.5 32.5t77.5 78.5z" />
    <glyph glyph-name="A" unicode="A" horiz-adv-x="636" 
d="M578 0l-74 179h-372l-74 -179h-37l278 667h38l278 -667h-37zM318 630l-174 -421h348z" />
    <glyph glyph-name="B" unicode="B" horiz-adv-x="600" 
d="M88 0v667h251q82 0 132 -44.5t50 -125.5q0 -60 -35 -101.5t-83 -51.5q53 -8 92 -57t39 -107q0 -85 -51.5 -132.5t-139.5 -47.5h-255zM120 358h219q71 0 109 39t38 100q0 60 -38.5 100t-108.5 40h-219v-279zM120 30h223q73 0 114.5 40t41.5 109q0 61 -41 105t-115 44h-223
v-298z" />
    <glyph glyph-name="C" unicode="C" horiz-adv-x="667" 
d="M398 -12q-141 0 -237 97t-96 248t96 248t237 97t232 -105l-25 -22q-36 45 -90.5 71t-116.5 26q-127 0 -212.5 -88t-85.5 -227q0 -138 85.5 -226.5t212.5 -88.5q62 0 116.5 26t90.5 71l26 -21q-94 -106 -233 -106z" />
    <glyph glyph-name="D" unicode="D" horiz-adv-x="684" 
d="M88 0v667h198q150 0 241 -97.5t91 -236.5q0 -140 -90.5 -236.5t-241.5 -96.5h-198zM120 30h166q138 0 217.5 86t79.5 217q0 130 -80 217t-217 87h-166v-607z" />
    <glyph glyph-name="E" unicode="E" horiz-adv-x="558" 
d="M88 0v667h408v-30h-376v-279h369v-30h-369v-298h376v-30h-408z" />
    <glyph glyph-name="F" unicode="F" horiz-adv-x="533" 
d="M88 0v667h408v-30h-376v-279h369v-30h-369v-328h-32z" />
    <glyph glyph-name="G" unicode="G" horiz-adv-x="708" 
d="M65 333q0 151 96 248t237 97q144 0 244 -103l-21 -22q-39 45 -98 70t-125 25q-127 0 -212.5 -88t-85.5 -227q0 -138 85.5 -227t212.5 -89q67 0 122 26.5t90 63.5v183h-275v30h307v-226q-44 -49 -107.5 -78t-136.5 -29q-141 0 -237 97t-96 249z" />
    <glyph glyph-name="H" unicode="H" horiz-adv-x="695" 
d="M575 0v328h-455v-328h-32v667h32v-309h455v309h32v-667h-32z" />
    <glyph glyph-name="I" unicode="I" horiz-adv-x="208" 
d="M88 0v667h32v-667h-32z" />
    <glyph glyph-name="J" unicode="J" horiz-adv-x="465" 
d="M16 75l27 24q57 -81 142 -81q73 0 116.5 46.5t43.5 120.5v482h32v-482q0 -95 -55 -146t-137 -51q-107 0 -169 87z" />
    <glyph glyph-name="K" unicode="K" horiz-adv-x="571" 
d="M497 0l-297 328l-80 -87v-241h-32v667h32v-385l347 385h43l-290 -319l320 -348h-43z" />
    <glyph glyph-name="L" unicode="L" horiz-adv-x="499" 
d="M88 0v667h32v-637h335v-30h-367z" />
    <glyph glyph-name="M" unicode="M" horiz-adv-x="770" 
d="M650 0v629l-260 -629h-10l-260 629v-629h-32v667h51l246 -597l246 597h51v-667h-32z" />
    <glyph glyph-name="N" unicode="N" horiz-adv-x="690" 
d="M570 0l-450 615v-615h-32v667h32l450 -609v609h32v-667h-32z" />
    <glyph glyph-name="O" unicode="O" horiz-adv-x="764" 
d="M65 333q0 148 87 246.5t230 98.5q142 0 229.5 -98.5t87.5 -246.5t-87.5 -246.5t-229.5 -98.5q-143 0 -230 98.5t-87 246.5zM664 333q0 139 -77.5 227t-204.5 88q-128 0 -205 -88t-77 -227q0 -138 77 -226.5t205 -88.5q127 0 204.5 88.5t77.5 226.5z" />
    <glyph glyph-name="P" unicode="P" horiz-adv-x="555" 
d="M88 0v667h231q90 0 142.5 -54.5t52.5 -134.5q0 -79 -53 -134t-142 -55h-199v-289h-32zM479 478q0 70 -44 114.5t-117 44.5h-198v-318h198q73 0 117 44.5t44 114.5z" />
    <glyph glyph-name="Q" unicode="Q" horiz-adv-x="764" 
d="M699 333q0 -158 -97 -257l76 -76l-22 -23l-78 78q-83 -67 -196 -67q-143 0 -230 98.5t-87 246.5t87 246.5t230 98.5q142 0 229.5 -98.5t87.5 -246.5zM382 18q101 0 174 59l-111 111l23 23l111 -112q85 90 85 234q0 139 -77.5 227t-204.5 88q-128 0 -205 -88t-77 -227
q0 -138 77 -226.5t205 -88.5z" />
    <glyph glyph-name="R" unicode="R" horiz-adv-x="579" 
d="M483 0l-203 288h-160v-288h-32v667h230q85 0 141 -50.5t56 -138.5t-56.5 -139t-140.5 -51l206 -288h-41zM480 478q0 70 -44.5 114.5t-117.5 44.5h-198v-319h198q73 0 117.5 45t44.5 115z" />
    <glyph glyph-name="S" unicode="S" horiz-adv-x="575" 
d="M53 94l26 23q81 -99 207 -99q55 0 95 14.5t60 38t29 48t9 50.5q0 31 -12 56t-27.5 40.5t-45.5 29.5t-51.5 21t-59.5 18q-42 12 -62.5 18.5t-54 21.5t-50 31t-29.5 43t-13 60q0 78 61 124t148 46q140 0 216 -94l-25 -23q-67 87 -191 87q-74 0 -124 -39.5t-50 -100.5
q0 -26 11.5 -47t25 -34t43.5 -25.5t48.5 -18.5t56.5 -17q42 -12 65 -20t57.5 -24.5t52 -35t31.5 -49t14 -68.5q0 -31 -11 -60.5t-35 -58t-71 -45.5t-111 -17q-75 0 -135 29t-98 77z" />
    <glyph glyph-name="T" unicode="T" horiz-adv-x="559" 
d="M263 0v637h-225v30h483v-30h-226v-637h-32z" />
    <glyph glyph-name="U" unicode="U" horiz-adv-x="672" 
d="M88 253v414h32v-414q0 -112 56 -173.5t160 -61.5t160 61.5t56 173.5v414h32v-414q0 -125 -64 -195t-184 -70t-184 70t-64 195z" />
    <glyph glyph-name="V" unicode="V" horiz-adv-x="636" 
d="M299 0l-278 667h37l260 -630l260 630h37l-278 -667h-38z" />
    <glyph glyph-name="W" unicode="W" horiz-adv-x="852" 
d="M599 0l-173 607l-173 -607h-38l-190 667h35l174 -619l175 619h34l175 -619l174 619h35l-190 -667h-38z" />
    <glyph glyph-name="X" unicode="X" horiz-adv-x="638" 
d="M571 0l-252 318l-252 -318h-42l276 342l-261 325h43l236 -299l236 299h43l-261 -324l276 -343h-42z" />
    <glyph glyph-name="Y" unicode="Y" horiz-adv-x="610" 
d="M289 0v289l-268 378h41l243 -346l243 346h41l-268 -378v-289h-32z" />
    <glyph glyph-name="Z" unicode="Z" horiz-adv-x="578" 
d="M53 0v30l427 607h-427v30h465v-30l-428 -607h435v-30h-472z" />
    <glyph glyph-name="bracketleft" unicode="[" horiz-adv-x="212" 
d="M34 -190v868h161v-30h-131v-808h131v-30h-161z" />
    <glyph glyph-name="backslash" unicode="\" horiz-adv-x="268" 
d="M0 687h31l237 -707h-31z" />
    <glyph glyph-name="bracketright" unicode="]" horiz-adv-x="212" 
d="M17 -190v30h131v808h-131v30h161v-868h-161z" />
    <glyph glyph-name="asciicircum" unicode="^" horiz-adv-x="424" 
d="M371 333l-159 307l-159 -307h-34l180 334h26l180 -334h-34z" />
    <glyph glyph-name="underscore" unicode="_" horiz-adv-x="564" 
d="M-3 -70v30h570v-30h-570z" />
    <glyph glyph-name="grave" unicode="`" horiz-adv-x="205" 
d="M175 556l-175 144h45l160 -144h-30z" />
    <glyph glyph-name="a" unicode="a" horiz-adv-x="514" 
d="M398 0v59q-65 -71 -167 -71q-68 0 -118.5 43.5t-50.5 117.5t50 117.5t119 43.5q102 0 167 -71v109q0 56 -39 88t-97 32q-92 0 -155 -76l-23 20q37 43 78 63t100 20q74 0 120 -37.5t46 -108.5v-349h-30zM398 89v120q-56 74 -159 74q-65 0 -104.5 -38.5t-39.5 -95.5
t39.5 -95.5t104.5 -38.5q103 0 159 74z" />
    <glyph glyph-name="b" unicode="b" horiz-adv-x="566" 
d="M86 0v667h30v-267q30 44 75.5 69.5t98.5 25.5q97 0 156.5 -70t59.5 -184q0 -115 -59 -184t-157 -69q-54 0 -101 26.5t-73 66.5v-81h-30zM116 111q24 -40 72 -68t102 -28q86 0 134.5 63.5t48.5 162.5t-48.5 163t-134.5 64q-54 0 -102 -29t-72 -69v-259z" />
    <glyph glyph-name="c" unicode="c" horiz-adv-x="493" 
d="M60 242q0 107 63 180t165 73q56 0 94 -20t71 -61l-22 -18q-53 72 -141 72q-91 0 -144 -64.5t-53 -161.5q0 -98 53.5 -162.5t143.5 -64.5q87 0 141 73l22 -19q-33 -41 -71 -61t-94 -20q-102 0 -165 73.5t-63 180.5z" />
    <glyph glyph-name="d" unicode="d" horiz-adv-x="566" 
d="M450 0v81q-26 -40 -73 -66.5t-101 -26.5q-98 0 -157 69t-59 184q0 114 59.5 184t156.5 70q53 0 98.5 -25.5t75.5 -69.5v267h30v-667h-30zM450 111v259q-24 40 -72 69t-102 29q-86 0 -134.5 -64t-48.5 -163t48.5 -162.5t134.5 -63.5q54 0 102 28t72 68z" />
    <glyph glyph-name="e" unicode="e" horiz-adv-x="571" 
d="M60 242q0 106 65 179.5t162 73.5q106 0 165 -73t59 -180v-10h-417q2 -92 57.5 -154.5t145.5 -62.5q100 0 168 73l18 -19q-78 -81 -186 -81q-105 0 -171 71.5t-66 182.5zM286 468q-87 0 -138 -64.5t-54 -144.5h385q0 49 -20 95.5t-65.5 80t-107.5 33.5z" />
    <glyph glyph-name="f" unicode="f" horiz-adv-x="246" 
d="M100 0v456h-80v27h80v51q0 67 32 105t89 38q35 0 57 -13l-13 -26q-21 12 -44 12q-91 0 -91 -116v-51h98v-27h-98v-456h-30z" />
    <glyph glyph-name="g" unicode="g" horiz-adv-x="566" 
d="M91 -123l22 25q31 -39 68.5 -55t94.5 -16q77 0 125.5 41.5t48.5 124.5v84q-27 -40 -73.5 -67.5t-100.5 -27.5q-98 0 -157 69.5t-59 184.5q0 114 59.5 184.5t156.5 70.5q53 0 98.5 -25.5t75.5 -69.5v83h30v-486q0 -99 -55.5 -146t-148.5 -47q-63 0 -103.5 15t-81.5 58z
M450 111v259q-24 40 -72 69t-102 29q-86 0 -134.5 -64.5t-48.5 -163.5t48.5 -163t134.5 -64q54 0 102 29t72 69z" />
    <glyph glyph-name="h" unicode="h" 
d="M412 0v339q0 72 -32 100.5t-93 28.5q-48 0 -96 -26.5t-75 -64.5v-377h-30v667h30v-260q29 35 78 61.5t97 26.5q75 0 113 -36.5t38 -119.5v-339h-30z" />
    <glyph glyph-name="i" unicode="i" horiz-adv-x="202" 
d="M101 566q-11 0 -20 8.5t-9 20.5t9 20.5t20 8.5q12 0 20.5 -8.5t8.5 -20.5t-8.5 -20.5t-20.5 -8.5zM86 0v483h30v-483h-30z" />
    <glyph glyph-name="j" unicode="j" horiz-adv-x="202" 
d="M101 566q-11 0 -20 8.5t-9 20.5t9 20.5t20 8.5q12 0 20.5 -8.5t8.5 -20.5t-8.5 -20.5t-20.5 -8.5zM116 483v-559q0 -60 -30.5 -90t-84.5 -30q-31 0 -55 10l10 27q19 -9 45 -9q85 0 85 92v559h30z" />
    <glyph glyph-name="k" unicode="k" horiz-adv-x="496" 
d="M428 0l-212 243l-100 -92v-151h-30v667h30v-478l315 294h43l-235 -218l232 -265h-43z" />
    <glyph glyph-name="l" unicode="l" horiz-adv-x="202" 
d="M86 0v667h30v-667h-30z" />
    <glyph glyph-name="m" unicode="m" horiz-adv-x="770" 
d="M654 0v348q0 120 -104 120q-40 0 -83.5 -26.5t-66.5 -63.5v-378h-30v348q0 120 -104 120q-40 0 -82.5 -26.5t-67.5 -64.5v-377h-30v483h30v-76q18 29 63 58.5t92 29.5q53 0 85 -27t40 -65q22 36 66.5 64t92.5 28q129 0 129 -147v-348h-30z" />
    <glyph glyph-name="n" unicode="n" 
d="M412 0v337q0 72 -32 101.5t-93 29.5q-48 0 -96 -26.5t-75 -64.5v-377h-30v483h30v-76q29 35 78 61.5t97 26.5q75 0 113 -37.5t38 -120.5v-337h-30z" />
    <glyph glyph-name="o" unicode="o" horiz-adv-x="570" 
d="M285 -12q-100 0 -162.5 72.5t-62.5 181.5q0 108 62.5 180.5t162.5 72.5q101 0 163 -72t62 -181t-62 -181.5t-163 -72.5zM285 15q89 0 140.5 66.5t51.5 160.5q0 93 -51.5 159.5t-140.5 66.5q-88 0 -140 -66.5t-52 -159.5q0 -94 52 -160.5t140 -66.5z" />
    <glyph glyph-name="p" unicode="p" horiz-adv-x="566" 
d="M116 -184h-30v667h30v-81q26 40 73 66.5t101 26.5q98 0 157 -69t59 -184q0 -114 -59.5 -184t-156.5 -70q-53 0 -98.5 25.5t-75.5 69.5v-267zM473 242q0 99 -48.5 162.5t-134.5 63.5q-54 0 -102 -28t-72 -68v-259q24 -40 72 -69t102 -29q86 0 134.5 64t48.5 163z" />
    <glyph glyph-name="q" unicode="q" horiz-adv-x="566" 
d="M480 -184h-30v267q-30 -44 -75.5 -69.5t-98.5 -25.5q-97 0 -156.5 70t-59.5 184q0 115 59 184t157 69q54 0 101 -26.5t73 -66.5v81h30v-667zM450 113v259q-24 40 -72 68t-102 28q-86 0 -134.5 -63.5t-48.5 -162.5t48.5 -163t134.5 -64q54 0 102 29t72 69z" />
    <glyph glyph-name="r" unicode="r" horiz-adv-x="304" 
d="M86 0v483h30v-88q73 97 166 97v-36q-9 1 -24 1q-37 0 -81 -30t-61 -65v-362h-30z" />
    <glyph glyph-name="s" unicode="s" horiz-adv-x="454" 
d="M44 65l24 22q54 -72 153 -72q65 0 104 31.5t39 80.5q0 25 -11 43.5t-36 31.5t-43.5 19t-55.5 16q-33 9 -49 13.5t-42.5 16t-39 23t-23 32t-10.5 45.5q0 55 44 91.5t120 36.5q109 0 166 -73l-22 -20q-46 66 -144 66q-62 0 -98 -28.5t-36 -72.5q0 -18 8.5 -32.5t18 -23.5
t33 -18t35.5 -12.5t43 -11.5q33 -8 50.5 -13.5t44.5 -17.5t41 -25t25 -35.5t11 -50.5q0 -60 -44.5 -99.5t-128.5 -39.5q-110 0 -177 77z" />
    <glyph glyph-name="t" unicode="t" horiz-adv-x="256" 
d="M174 -12q-82 0 -82 97v371h-80v27h80v132h30v-132h98v-27h-98v-371q0 -70 52 -70q35 0 57 26l18 -23q-32 -30 -75 -30z" />
    <glyph glyph-name="u" unicode="u" 
d="M412 0v74q-33 -37 -80 -61.5t-95 -24.5q-75 0 -113 36.5t-38 119.5v339h30v-339q0 -72 32 -100.5t93 -28.5q48 0 96.5 25.5t74.5 62.5v380h30v-483h-30z" />
    <glyph glyph-name="v" unicode="v" horiz-adv-x="471" 
d="M218 0l-207 483h35l190 -448l189 448h35l-207 -483h-35z" />
    <glyph glyph-name="w" unicode="w" horiz-adv-x="704" 
d="M498 0l-146 438l-146 -438h-24l-160 483h33l140 -436l145 436h24l145 -436l140 436h33l-160 -483h-24z" />
    <glyph glyph-name="x" unicode="x" horiz-adv-x="472" 
d="M411 0l-175 228l-175 -228h-39l197 248l-186 235h39l164 -214l164 214h39l-186 -235l197 -248h-39z" />
    <glyph glyph-name="y" unicode="y" horiz-adv-x="471" 
d="M56 -161q18 -8 42 -8q25 0 42.5 14.5t33.5 51.5l44 100l-207 486h35l190 -448l189 448h35l-256 -597q-36 -82 -106 -82q-27 0 -48 7z" />
    <glyph glyph-name="z" unicode="z" horiz-adv-x="466" 
d="M60 0v27l307 429h-307v27h342v-27l-309 -429h313v-27h-346z" />
    <glyph glyph-name="braceleft" unicode="{" horiz-adv-x="237" 
d="M158 -190q-39 0 -69 32t-30 81v234q0 30 -13.5 51t-38.5 21v30q25 0 38.5 21t13.5 51v234q0 49 30 81t69 32h62v-30h-62q-28 0 -48.5 -24t-20.5 -59v-234q0 -68 -45 -87q45 -19 45 -87v-234q0 -35 20.5 -59t48.5 -24h62v-30h-62z" />
    <glyph glyph-name="bar" unicode="|" horiz-adv-x="206" 
d="M88 -20v707h30v-707h-30z" />
    <glyph glyph-name="braceright" unicode="}" horiz-adv-x="237" 
d="M17 -160h62q28 0 48.5 24t20.5 59v234q0 68 45 87q-45 19 -45 87v234q0 35 -20.5 59t-48.5 24h-62v30h62q39 0 69 -32t30 -81v-234q0 -30 13.5 -51t38.5 -21v-30q-25 0 -38.5 -21t-13.5 -51v-234q0 -49 -30 -81t-69 -32h-62v30z" />
    <glyph glyph-name="asciitilde" unicode="~" horiz-adv-x="496" 
d="M468 664q-7 -68 -19 -115.5t-40 -81.5t-70 -34q-23 0 -40.5 8.5t-30 28.5t-19 33.5t-16.5 41.5q-11 30 -18 45.5t-22.5 30t-35.5 14.5q-79 0 -99 -204l-30 5q10 105 39.5 167t89.5 62q23 0 40.5 -8.5t30 -28.5t19 -34t16.5 -42l13.5 -34.5t14 -27t21.5 -22t27 -6.5
q42 0 65.5 50.5t33.5 154.5z" />
    <glyph glyph-name="uni00A0" unicode="&#xa0;" horiz-adv-x="260" 
 />
    <glyph glyph-name="exclamdown" unicode="&#xa1;" horiz-adv-x="208" 
d="M104 492q14 0 23.5 -10t9.5 -23t-10 -22.5t-23 -9.5t-23 9.5t-10 22.5t9.5 23t23.5 10zM94 322h20l11 -506h-42z" />
    <glyph glyph-name="cent" unicode="&#xa2;" horiz-adv-x="493" 
d="M292 15q84 0 139 73l22 -19q-32 -40 -69 -60t-92 -21v-88h-30v89q-92 10 -147 81.5t-55 171.5t55 171t147 81v71h30v-70q55 -1 92 -21t69 -60l-22 -18q-54 72 -139 72v-453zM93 242q0 -89 45.5 -152t123.5 -73v449q-79 -10 -124 -72.5t-45 -151.5z" />
    <glyph glyph-name="sterling" unicode="&#xa3;" horiz-adv-x="491" 
d="M464 59l18 -27q-48 -46 -124 -46q-47 0 -91 24t-87 24q-39 0 -119 -41l-14 33q76 32 114 78t38 99q0 33 -17 64h-165v30h143q-18 20 -28 30q-26 27 -39.5 43.5t-27.5 49t-14 69.5q0 75 58.5 131.5t149.5 56.5q55 0 103.5 -28.5t71.5 -75.5l-26 -18q-15 36 -56 64t-93 28
q-73 0 -124 -42.5t-51 -115.5q0 -34 13 -64.5t25.5 -45.5t37.5 -43q27 -29 34 -39h152v-30h-132q15 -32 15 -64q0 -50 -22.5 -84t-63.5 -65q28 10 55 10q34 0 86 -25q44 -23 76 -23t62 14t42 29z" />
    <glyph glyph-name="currency" unicode="&#xa4;" horiz-adv-x="577" 
d="M513 333q0 -89 -50 -153l81 -81l-21 -21l-80 80q-62 -59 -155 -59t-155 59l-80 -80l-21 21l81 81q-50 64 -50 153q0 91 51 154l-83 83l21 21l82 -82q64 57 154 57q92 0 154 -57l81 81l21 -21l-82 -82q51 -63 51 -154zM288 129q89 0 140.5 60t51.5 144t-51.5 143.5
t-140.5 59.5q-88 0 -140 -60t-52 -143q0 -84 52 -144t140 -60z" />
    <glyph glyph-name="yen" unicode="&#xa5;" horiz-adv-x="610" 
d="M589 667l-247 -348h247v-30h-268v-130h268v-30h-268v-129h-32v129h-268v30h268v130h-268v30h247l-247 348h41l243 -346l243 346h41z" />
    <glyph glyph-name="brokenbar" unicode="&#xa6;" horiz-adv-x="206" 
d="M88 371v316h30v-316h-30zM88 -20v316h30v-316h-30z" />
    <glyph glyph-name="section" unicode="&#xa7;" horiz-adv-x="454" 
d="M294 179q50 -18 75 -46.5t25 -74.5q0 -65 -47.5 -102t-125.5 -37q-65 0 -104.5 20t-72.5 57l24 22q54 -72 153 -72q63 0 103 30.5t40 81.5q0 25 -11 43.5t-35.5 31t-44 19t-55.5 15.5q-34 9 -49 13.5t-42 16.5t-39.5 23.5t-23 32t-10.5 45.5q0 52 35.5 84.5t94.5 45.5
q-64 18 -97 45t-33 76q0 54 43 91t121 37q108 0 166 -73l-22 -20q-48 66 -144 66q-58 0 -96 -28.5t-38 -74.5q0 -18 8.5 -32.5t18.5 -23.5t32 -17.5t35.5 -12.5t42.5 -11q33 -8 51 -13t45 -17t41 -25.5t25 -36.5t11 -52q0 -88 -100 -127zM226 417q-79 -21 -110.5 -50
t-31.5 -71q0 -23 12.5 -40t34 -27.5t49 -18.5t58.5 -16q15 -3 22 -5q104 45 104 120q0 25 -11.5 43.5t-35 31t-41.5 19t-50 14.5z" />
    <glyph glyph-name="dieresis" unicode="&#xa8;" horiz-adv-x="404" 
d="M101 570q-11 0 -19.5 8.5t-8.5 19.5t8.5 19.5t19.5 8.5t19.5 -8.5t8.5 -19.5t-8.5 -19.5t-19.5 -8.5zM303 570q-11 0 -19.5 8.5t-8.5 19.5t8.5 19.5t19.5 8.5t19.5 -8.5t8.5 -19.5t-8.5 -19.5t-19.5 -8.5z" />
    <glyph glyph-name="copyright" unicode="&#xa9;" horiz-adv-x="778" 
d="M389 -12q-143 0 -244 101t-101 244t101 244t244 101t244 -101t101 -244t-101 -244t-244 -101zM389 652q-131 0 -225 -93.5t-94 -225.5q0 -131 94 -225t225 -94q132 0 225.5 94t93.5 225q0 132 -93.5 225.5t-225.5 93.5zM533 183q-56 -65 -144 -65q-87 0 -147.5 63
t-60.5 154t60.5 152.5t147.5 61.5q89 0 144 -64l-20 -20q-19 26 -53.5 41.5t-70.5 15.5q-73 0 -126 -52.5t-53 -135.5q0 -81 53.5 -135t125.5 -54q36 0 70.5 16t53.5 42z" />
    <glyph glyph-name="ordfeminine" unicode="&#xaa;" horiz-adv-x="372" 
d="M276 326v38q-45 -46 -113 -46q-45 0 -79 29t-34 76q0 48 33.5 76t79.5 28q68 0 113 -46v68q0 35 -27 54.5t-63 19.5q-64 0 -103 -50l-18 19q48 56 122 56q52 0 84 -25t32 -74v-223h-27zM276 386v73q-37 46 -104 46q-41 0 -67 -23.5t-26 -58.5q0 -36 25.5 -59.5
t67.5 -23.5q67 0 104 46z" />
    <glyph glyph-name="guillemotleft" unicode="&#xab;" horiz-adv-x="364" 
d="M190 63l-160 180l160 177h39l-160 -177l160 -180h-39zM295 63l-160 180l160 177h39l-160 -177l160 -180h-39z" />
    <glyph glyph-name="logicalnot" unicode="&#xac;" horiz-adv-x="494" 
d="M465 220h-32v198h-404v30h436v-228z" />
    <glyph glyph-name="uni00AD" unicode="&#xad;" horiz-adv-x="300" 
d="M30 227v30h240v-30h-240z" />
    <glyph glyph-name="registered" unicode="&#xae;" horiz-adv-x="494" 
d="M247 253q-88 0 -150 62t-62 150t62 150t150 62q89 0 150.5 -61.5t61.5 -150.5q0 -88 -62 -150t-150 -62zM247 651q-77 0 -131.5 -54t-54.5 -132q0 -77 54.5 -131.5t131.5 -54.5t131.5 54.5t54.5 131.5q0 78 -54.5 132t-131.5 54zM306 343l-63 96h-47v-96h-29v243h99
q33 0 53.5 -20.5t20.5 -53.5q0 -35 -22.5 -53.5t-39.5 -18.5l65 -97h-37zM266 559h-70v-92h70q21 0 32.5 12.5t11.5 32.5q0 21 -11.5 34t-32.5 13z" />
    <glyph glyph-name="macron" unicode="&#xaf;" horiz-adv-x="363" 
d="M40 581v27h283v-27h-283z" />
    <glyph glyph-name="degree" unicode="&#xb0;" horiz-adv-x="273" 
d="M136 456q-46 0 -78 32t-32 78t32 78.5t78 32.5t78.5 -32.5t32.5 -78.5t-32.5 -78t-78.5 -32zM136 647q-33 0 -56.5 -24t-23.5 -57t23.5 -56.5t56.5 -23.5t57 23.5t24 56.5t-24 57t-57 24z" />
    <glyph glyph-name="plusminus" unicode="&#xb1;" horiz-adv-x="494" 
d="M263 322v-222h-32v222h-202v30h202v216h32v-216h202v-30h-202zM29 0v30h436v-30h-436z" />
    <glyph glyph-name="uni00B2" unicode="&#xb2;" horiz-adv-x="380" 
d="M54 421v24q119 86 179.5 149t60.5 120q0 44 -29.5 65.5t-70.5 21.5q-78 0 -114 -53l-20 18q43 61 135 61q50 0 89 -28t39 -84q0 -64 -57.5 -126t-167.5 -142h227v-26h-271z" />
    <glyph glyph-name="uni00B3" unicode="&#xb3;" horiz-adv-x="380" 
d="M188 414q-48 0 -84 18.5t-54 47.5l20 17q40 -57 118 -57q50 0 79 23.5t29 64.5q0 44 -33 65.5t-84 21.5q-30 0 -36 -1v27q6 -1 36 -1q48 0 79.5 20t31.5 61q0 37 -30 58.5t-73 21.5q-67 0 -113 -52l-19 18q51 60 133 60q55 0 93 -28.5t38 -76.5q0 -43 -28 -66t-61 -28
q33 -3 64.5 -28.5t31.5 -71.5q0 -51 -37 -82.5t-101 -31.5z" />
    <glyph glyph-name="acute" unicode="&#xb4;" horiz-adv-x="205" 
d="M30 556h-30l160 144h45z" />
    <glyph glyph-name="uni00B5" unicode="&#xb5;" horiz-adv-x="542" 
d="M116 -184h-30v667h30v-339q0 -131 127 -131q47 0 95 26.5t74 63.5v380h30v-398q0 -70 52 -70q12 0 20 2l3 -27q-12 -2 -23 -2q-75 0 -82 86q-32 -37 -77.5 -61.5t-91.5 -24.5q-95 0 -127 65v-237z" />
    <glyph glyph-name="paragraph" unicode="&#xb6;" horiz-adv-x="449" 
d="M327 -100v737h-98v-737h-30v423q-71 0 -121.5 50.5t-50.5 121.5t50.5 121.5t121.5 50.5h158v-767h-30z" />
    <glyph glyph-name="periodcentered" unicode="&#xb7;" horiz-adv-x="208" 
d="M104 212q-14 0 -23.5 10t-9.5 23t10 22.5t23 9.5t23 -9.5t10 -22.5t-9.5 -23t-23.5 -10z" />
    <glyph glyph-name="cedilla" unicode="&#xb8;" horiz-adv-x="191" 
d="M0 -159l14 27q32 -28 79 -28q29 0 49 14t20 38q0 40 -44 40q-27 0 -43 -19l-22 13l31 85h30l-26 -69q15 12 38 12q29 0 47 -17t18 -45q0 -35 -28 -57t-70 -22q-58 0 -93 28z" />
    <glyph glyph-name="uni00B9" unicode="&#xb9;" horiz-adv-x="192" 
d="M102 421v360l-63 -69l-19 20l85 89h27v-400h-30z" />
    <glyph glyph-name="ordmasculine" unicode="&#xba;" horiz-adv-x="405" 
d="M48 483q0 71 43 118t111 47q69 0 112 -47t43 -118q0 -70 -43 -117.5t-112 -47.5q-68 0 -111 47.5t-43 117.5zM328 483q0 58 -34 98t-92 40q-57 0 -90.5 -40t-33.5 -98t33.5 -98.5t90.5 -40.5q58 0 92 40.5t34 98.5z" />
    <glyph glyph-name="guillemotright" unicode="&#xbb;" horiz-adv-x="364" 
d="M69 63h-39l160 180l-160 177h39l160 -177zM174 63h-39l160 180l-160 177h39l160 -177z" />
    <glyph glyph-name="onequarter" unicode="&#xbc;" horiz-adv-x="693" 
d="M102 267v360l-63 -69l-19 20l85 89h27v-400h-30zM107 0h-36l426 667h37zM585 113v-113h-29v113h-196v26l186 261h39v-261h62v-26h-62zM556 371l-165 -232h165v232z" />
    <glyph glyph-name="onehalf" unicode="&#xbd;" horiz-adv-x="743" 
d="M102 267v360l-63 -69l-19 20l85 89h27v-400h-30zM107 0h-36l426 667h37zM417 0v24q119 86 179.5 149t60.5 120q0 44 -29.5 65.5t-70.5 21.5q-78 0 -114 -53l-20 18q43 61 135 61q50 0 89 -28t39 -84q0 -64 -57.5 -126t-167.5 -142h227v-26h-271z" />
    <glyph glyph-name="threequarters" unicode="&#xbe;" horiz-adv-x="831" 
d="M188 260q-48 0 -84 18.5t-54 47.5l20 17q40 -57 118 -57q50 0 79 23.5t29 64.5q0 44 -33 65.5t-84 21.5q-30 0 -36 -1v27q6 -1 36 -1q48 0 79.5 20t31.5 61q0 37 -30 58.5t-73 21.5q-67 0 -113 -52l-19 18q51 60 133 60q55 0 93 -28.5t38 -76.5q0 -43 -28 -66t-61 -28
q33 -3 64.5 -28.5t31.5 -71.5q0 -51 -37 -82.5t-101 -31.5zM245 0h-36l426 667h37zM723 113v-113h-29v113h-196v26l186 261h39v-261h62v-26h-62zM694 371l-165 -232h165v232z" />
    <glyph glyph-name="questiondown" unicode="&#xbf;" horiz-adv-x="391" 
d="M278 459q0 -13 -10 -22.5t-23 -9.5t-23 9.5t-10 22.5t10 23t23 10t23 -10t10 -23zM286 236q0 -24 -7.5 -44t-26 -38t-31 -27.5t-39.5 -28.5q-35 -24 -53 -38.5t-35.5 -42.5t-17.5 -61q0 -52 40 -87.5t111 -35.5q68 0 112.5 25t78.5 73l23 -21q-75 -107 -214 -107
q-85 0 -135.5 44.5t-50.5 108.5q0 30 9.5 55t30.5 46t36.5 33.5t44.5 31.5q32 22 47.5 34t31 34t15.5 46q0 30 -33 53l19 23q44 -33 44 -76z" />
    <glyph glyph-name="Agrave" unicode="&#xc0;" horiz-adv-x="636" 
d="M303 723l-175 144h45l160 -144h-30zM578 0l-74 179h-372l-74 -179h-37l278 667h38l278 -667h-37zM318 630l-174 -421h348z" />
    <glyph glyph-name="Aacute" unicode="&#xc1;" horiz-adv-x="636" 
d="M332 723h-30l160 144h45zM578 0l-74 179h-372l-74 -179h-37l278 667h38l278 -667h-37zM318 630l-174 -421h348z" />
    <glyph glyph-name="Acircumflex" unicode="&#xc2;" horiz-adv-x="636" 
d="M409 723l-91 120l-88 -120h-28l98 144h36l101 -144h-28zM578 0l-74 179h-372l-74 -179h-37l278 667h38l278 -667h-37zM318 630l-174 -421h348z" />
    <glyph glyph-name="Atilde" unicode="&#xc3;" horiz-adv-x="636" 
d="M306 784q-9 17 -14.5 25.5t-16 16.5t-22.5 8q-26 0 -42.5 -26.5t-16.5 -80.5h-26q0 57 23.5 95.5t64.5 38.5q15 0 26.5 -5t21 -16t14.5 -19t13 -23q9 -17 14.5 -25.5t16 -16.5t22.5 -8q26 0 42.5 26.5t16.5 80.5h26q0 -57 -23.5 -95.5t-64.5 -38.5q-20 0 -35.5 11t-22 21
t-17.5 31zM578 0l-74 179h-372l-74 -179h-37l278 667h38l278 -667h-37zM318 630l-174 -421h348z" />
    <glyph glyph-name="Adieresis" unicode="&#xc4;" horiz-adv-x="636" 
d="M217 737q-11 0 -19.5 8.5t-8.5 19.5t8.5 19.5t19.5 8.5t19.5 -8.5t8.5 -19.5t-8.5 -19.5t-19.5 -8.5zM419 737q-11 0 -19.5 8.5t-8.5 19.5t8.5 19.5t19.5 8.5t19.5 -8.5t8.5 -19.5t-8.5 -19.5t-19.5 -8.5zM578 0l-74 179h-372l-74 -179h-37l278 667h38l278 -667h-37z
M318 630l-174 -421h348z" />
    <glyph glyph-name="Aring" unicode="&#xc5;" horiz-adv-x="636" 
d="M225 813q0 38 27.5 65.5t65.5 27.5t65 -27.5t27 -65.5t-27 -65.5t-65 -27.5t-65.5 27.5t-27.5 65.5zM386 813q0 29 -20 49t-48 20t-48.5 -20t-20.5 -49t20.5 -49t48.5 -20t48 20t20 49zM578 0l-74 179h-372l-74 -179h-37l278 667h38l278 -667h-37zM318 630l-174 -421h348
z" />
    <glyph glyph-name="AE" unicode="&#xc6;" horiz-adv-x="930" 
d="M457 0v179h-286l-113 -179h-37l425 667h419v-30h-376v-279h369v-30h-369v-298h376v-30h-408zM457 630l-269 -421h269v421z" />
    <glyph glyph-name="Ccedilla" unicode="&#xc7;" horiz-adv-x="667" 
d="M631 94q-93 -103 -227 -106l-17 -46q15 12 38 12q29 0 47 -17t18 -45q0 -35 -28 -57t-70 -22q-58 0 -93 28l14 27q32 -28 79 -28q29 0 49 14t20 38q0 40 -44 40q-27 0 -43 -19l-22 13l23 63q-133 8 -221.5 103.5t-88.5 240.5q0 151 96 248t237 97t232 -105l-25 -22
q-36 45 -90.5 71t-116.5 26q-127 0 -212.5 -88t-85.5 -227q0 -138 85.5 -226.5t212.5 -88.5q62 0 116.5 26t90.5 71z" />
    <glyph glyph-name="Egrave" unicode="&#xc8;" horiz-adv-x="558" 
d="M281 723l-175 144h45l160 -144h-30zM88 0v667h408v-30h-376v-279h369v-30h-369v-298h376v-30h-408z" />
    <glyph glyph-name="Eacute" unicode="&#xc9;" horiz-adv-x="558" 
d="M310 723h-30l160 144h45zM88 0v667h408v-30h-376v-279h369v-30h-369v-298h376v-30h-408z" />
    <glyph glyph-name="Ecircumflex" unicode="&#xca;" horiz-adv-x="558" 
d="M387 723l-91 120l-88 -120h-28l98 144h36l101 -144h-28zM88 0v667h408v-30h-376v-279h369v-30h-369v-298h376v-30h-408z" />
    <glyph glyph-name="Edieresis" unicode="&#xcb;" horiz-adv-x="558" 
d="M195 737q-11 0 -19.5 8.5t-8.5 19.5t8.5 19.5t19.5 8.5t19.5 -8.5t8.5 -19.5t-8.5 -19.5t-19.5 -8.5zM397 737q-11 0 -19.5 8.5t-8.5 19.5t8.5 19.5t19.5 8.5t19.5 -8.5t8.5 -19.5t-8.5 -19.5t-19.5 -8.5zM88 0v667h408v-30h-376v-279h369v-30h-369v-298h376v-30h-408z
" />
    <glyph glyph-name="Igrave" unicode="&#xcc;" horiz-adv-x="208" 
d="M89 723l-175 144h45l160 -144h-30zM88 0v667h32v-667h-32z" />
    <glyph glyph-name="Iacute" unicode="&#xcd;" horiz-adv-x="208" 
d="M118 723h-30l160 144h45zM88 0v667h32v-667h-32z" />
    <glyph glyph-name="Icircumflex" unicode="&#xce;" horiz-adv-x="208" 
d="M195 723l-91 120l-88 -120h-28l98 144h36l101 -144h-28zM88 0v667h32v-667h-32z" />
    <glyph glyph-name="Idieresis" unicode="&#xcf;" horiz-adv-x="208" 
d="M3 737q-11 0 -19.5 8.5t-8.5 19.5t8.5 19.5t19.5 8.5t19.5 -8.5t8.5 -19.5t-8.5 -19.5t-19.5 -8.5zM205 737q-11 0 -19.5 8.5t-8.5 19.5t8.5 19.5t19.5 8.5t19.5 -8.5t8.5 -19.5t-8.5 -19.5t-19.5 -8.5zM88 0v667h32v-667h-32z" />
    <glyph glyph-name="Eth" unicode="&#xd0;" horiz-adv-x="715" 
d="M317 667q150 0 241 -97.5t91 -236.5q0 -140 -90.5 -236.5t-241.5 -96.5h-198v317h-107v30h107v320h198zM317 30q138 0 217.5 86t79.5 217q0 130 -80 217t-217 87h-166v-290h188v-30h-188v-287h166z" />
    <glyph glyph-name="Ntilde" unicode="&#xd1;" horiz-adv-x="690" 
d="M333 784q-9 17 -14.5 25.5t-16 16.5t-22.5 8q-26 0 -42.5 -26.5t-16.5 -80.5h-26q0 57 23.5 95.5t64.5 38.5q15 0 26.5 -5t21 -16t14.5 -19t13 -23q9 -17 14.5 -25.5t16 -16.5t22.5 -8q26 0 42.5 26.5t16.5 80.5h26q0 -57 -23.5 -95.5t-64.5 -38.5q-20 0 -35.5 11t-22 21
t-17.5 31zM570 0l-450 615v-615h-32v667h32l450 -609v609h32v-667h-32z" />
    <glyph glyph-name="Ograve" unicode="&#xd2;" horiz-adv-x="764" 
d="M367 723l-175 144h45l160 -144h-30zM65 333q0 148 87 246.5t230 98.5q142 0 229.5 -98.5t87.5 -246.5t-87.5 -246.5t-229.5 -98.5q-143 0 -230 98.5t-87 246.5zM664 333q0 139 -77.5 227t-204.5 88q-128 0 -205 -88t-77 -227q0 -138 77 -226.5t205 -88.5
q127 0 204.5 88.5t77.5 226.5z" />
    <glyph glyph-name="Oacute" unicode="&#xd3;" horiz-adv-x="764" 
d="M396 723h-30l160 144h45zM65 333q0 148 87 246.5t230 98.5q142 0 229.5 -98.5t87.5 -246.5t-87.5 -246.5t-229.5 -98.5q-143 0 -230 98.5t-87 246.5zM664 333q0 139 -77.5 227t-204.5 88q-128 0 -205 -88t-77 -227q0 -138 77 -226.5t205 -88.5q127 0 204.5 88.5
t77.5 226.5z" />
    <glyph glyph-name="Ocircumflex" unicode="&#xd4;" horiz-adv-x="764" 
d="M473 723l-91 120l-88 -120h-28l98 144h36l101 -144h-28zM65 333q0 148 87 246.5t230 98.5q142 0 229.5 -98.5t87.5 -246.5t-87.5 -246.5t-229.5 -98.5q-143 0 -230 98.5t-87 246.5zM664 333q0 139 -77.5 227t-204.5 88q-128 0 -205 -88t-77 -227q0 -138 77 -226.5
t205 -88.5q127 0 204.5 88.5t77.5 226.5z" />
    <glyph glyph-name="Otilde" unicode="&#xd5;" horiz-adv-x="764" 
d="M370 784q-9 17 -14.5 25.5t-16 16.5t-22.5 8q-26 0 -42.5 -26.5t-16.5 -80.5h-26q0 57 23.5 95.5t64.5 38.5q15 0 26.5 -5t21 -16t14.5 -19t13 -23q9 -17 14.5 -25.5t16 -16.5t22.5 -8q26 0 42.5 26.5t16.5 80.5h26q0 -57 -23.5 -95.5t-64.5 -38.5q-20 0 -35.5 11t-22 21
t-17.5 31zM65 333q0 148 87 246.5t230 98.5q142 0 229.5 -98.5t87.5 -246.5t-87.5 -246.5t-229.5 -98.5q-143 0 -230 98.5t-87 246.5zM664 333q0 139 -77.5 227t-204.5 88q-128 0 -205 -88t-77 -227q0 -138 77 -226.5t205 -88.5q127 0 204.5 88.5t77.5 226.5z" />
    <glyph glyph-name="Odieresis" unicode="&#xd6;" horiz-adv-x="764" 
d="M281 737q-11 0 -19.5 8.5t-8.5 19.5t8.5 19.5t19.5 8.5t19.5 -8.5t8.5 -19.5t-8.5 -19.5t-19.5 -8.5zM483 737q-11 0 -19.5 8.5t-8.5 19.5t8.5 19.5t19.5 8.5t19.5 -8.5t8.5 -19.5t-8.5 -19.5t-19.5 -8.5zM65 333q0 148 87 246.5t230 98.5q142 0 229.5 -98.5t87.5 -246.5
t-87.5 -246.5t-229.5 -98.5q-143 0 -230 98.5t-87 246.5zM664 333q0 139 -77.5 227t-204.5 88q-128 0 -205 -88t-77 -227q0 -138 77 -226.5t205 -88.5q127 0 204.5 88.5t77.5 226.5z" />
    <glyph glyph-name="multiply" unicode="&#xd7;" horiz-adv-x="494" 
d="M247 313l-155 -155l-21 21l155 155l-155 155l21 21l155 -155l155 155l21 -21l-155 -155l155 -155l-21 -21z" />
    <glyph glyph-name="Oslash" unicode="&#xd8;" horiz-adv-x="764" 
d="M570 618q61 -46 95 -121t34 -164q0 -148 -87.5 -246.5t-229.5 -98.5q-90 0 -163 43l-18 -31h-36l29 48q-61 46 -95 121t-34 164q0 148 87 246.5t230 98.5q91 0 162 -43l19 32h36zM100 333q0 -170 110 -258l318 534q-64 39 -146 39q-128 0 -205 -88t-77 -227zM382 18
q127 0 204.5 88.5t77.5 226.5q0 170 -110 258l-319 -534q64 -39 147 -39z" />
    <glyph glyph-name="Ugrave" unicode="&#xd9;" horiz-adv-x="672" 
d="M321 723l-175 144h45l160 -144h-30zM88 253v414h32v-414q0 -112 56 -173.5t160 -61.5t160 61.5t56 173.5v414h32v-414q0 -125 -64 -195t-184 -70t-184 70t-64 195z" />
    <glyph glyph-name="Uacute" unicode="&#xda;" horiz-adv-x="672" 
d="M350 723h-30l160 144h45zM88 253v414h32v-414q0 -112 56 -173.5t160 -61.5t160 61.5t56 173.5v414h32v-414q0 -125 -64 -195t-184 -70t-184 70t-64 195z" />
    <glyph glyph-name="Ucircumflex" unicode="&#xdb;" horiz-adv-x="672" 
d="M427 723l-91 120l-88 -120h-28l98 144h36l101 -144h-28zM88 253v414h32v-414q0 -112 56 -173.5t160 -61.5t160 61.5t56 173.5v414h32v-414q0 -125 -64 -195t-184 -70t-184 70t-64 195z" />
    <glyph glyph-name="Udieresis" unicode="&#xdc;" horiz-adv-x="672" 
d="M235 737q-11 0 -19.5 8.5t-8.5 19.5t8.5 19.5t19.5 8.5t19.5 -8.5t8.5 -19.5t-8.5 -19.5t-19.5 -8.5zM437 737q-11 0 -19.5 8.5t-8.5 19.5t8.5 19.5t19.5 8.5t19.5 -8.5t8.5 -19.5t-8.5 -19.5t-19.5 -8.5zM88 253v414h32v-414q0 -112 56 -173.5t160 -61.5t160 61.5
t56 173.5v414h32v-414q0 -125 -64 -195t-184 -70t-184 70t-64 195z" />
    <glyph glyph-name="Yacute" unicode="&#xdd;" horiz-adv-x="610" 
d="M319 723h-30l160 144h45zM289 0v289l-268 378h41l243 -346l243 346h41l-268 -378v-289h-32z" />
    <glyph glyph-name="Thorn" unicode="&#xde;" horiz-adv-x="555" 
d="M88 0v667h32v-129h199q90 0 142.5 -55t52.5 -135q0 -79 -53 -133.5t-142 -54.5h-199v-160h-32zM479 348q0 70 -44 115t-117 45h-198v-318h198q73 0 117 44t44 114z" />
    <glyph glyph-name="germandbls" unicode="&#xdf;" horiz-adv-x="558" 
d="M363 -12q-65 0 -104.5 20t-72.5 57l24 22q55 -72 153 -72q69 0 106 33t37 79q0 25 -11 43.5t-36 31t-43.5 19t-56.5 16.5q-32 8 -48.5 13t-42.5 16.5t-39 23.5t-23 32t-10 45q0 28 15.5 52t31.5 35.5t45 29.5q25 15 37.5 24t24.5 25t12 34q0 38 -36.5 60.5t-81.5 22.5
q-54 0 -91 -36t-37 -95v-519h-30v519q0 68 44 113t114 45q62 0 105 -30.5t43 -79.5q0 -26 -14.5 -47t-28.5 -31t-43 -27q-27 -16 -40 -25.5t-26.5 -29t-13.5 -42.5q0 -18 8.5 -32.5t18.5 -23.5t32 -17.5t36 -12.5t43 -11q32 -8 50.5 -13t45 -17t40.5 -25t25 -35.5t11 -50.5
q0 -57 -43 -98t-130 -41z" />
    <glyph glyph-name="agrave" unicode="&#xe0;" horiz-adv-x="514" 
d="M248 556l-175 144h45l160 -144h-30zM398 0v59q-65 -71 -167 -71q-68 0 -118.5 43.5t-50.5 117.5t50 117.5t119 43.5q102 0 167 -71v109q0 56 -39 88t-97 32q-92 0 -155 -76l-23 20q37 43 78 63t100 20q74 0 120 -37.5t46 -108.5v-349h-30zM398 89v120q-56 74 -159 74
q-65 0 -104.5 -38.5t-39.5 -95.5t39.5 -95.5t104.5 -38.5q103 0 159 74z" />
    <glyph glyph-name="aacute" unicode="&#xe1;" horiz-adv-x="514" 
d="M277 556h-30l160 144h45zM398 0v59q-65 -71 -167 -71q-68 0 -118.5 43.5t-50.5 117.5t50 117.5t119 43.5q102 0 167 -71v109q0 56 -39 88t-97 32q-92 0 -155 -76l-23 20q37 43 78 63t100 20q74 0 120 -37.5t46 -108.5v-349h-30zM398 89v120q-56 74 -159 74
q-65 0 -104.5 -38.5t-39.5 -95.5t39.5 -95.5t104.5 -38.5q103 0 159 74z" />
    <glyph glyph-name="acircumflex" unicode="&#xe2;" horiz-adv-x="514" 
d="M354 556l-91 120l-88 -120h-28l98 144h36l101 -144h-28zM398 0v59q-65 -71 -167 -71q-68 0 -118.5 43.5t-50.5 117.5t50 117.5t119 43.5q102 0 167 -71v109q0 56 -39 88t-97 32q-92 0 -155 -76l-23 20q37 43 78 63t100 20q74 0 120 -37.5t46 -108.5v-349h-30zM398 89v120
q-56 74 -159 74q-65 0 -104.5 -38.5t-39.5 -95.5t39.5 -95.5t104.5 -38.5q103 0 159 74z" />
    <glyph glyph-name="atilde" unicode="&#xe3;" horiz-adv-x="514" 
d="M251 617q-9 17 -14.5 25.5t-16 16.5t-22.5 8q-26 0 -42.5 -26.5t-16.5 -80.5h-26q0 57 23.5 95.5t64.5 38.5q15 0 26.5 -5t21 -16t14.5 -19t13 -23q9 -17 14.5 -25.5t16 -16.5t22.5 -8q26 0 42.5 26.5t16.5 80.5h26q0 -57 -23.5 -95.5t-64.5 -38.5q-20 0 -35.5 11t-22 21
t-17.5 31zM398 0v59q-65 -71 -167 -71q-68 0 -118.5 43.5t-50.5 117.5t50 117.5t119 43.5q102 0 167 -71v109q0 56 -39 88t-97 32q-92 0 -155 -76l-23 20q37 43 78 63t100 20q74 0 120 -37.5t46 -108.5v-349h-30zM398 89v120q-56 74 -159 74q-65 0 -104.5 -38.5t-39.5 -95.5
t39.5 -95.5t104.5 -38.5q103 0 159 74z" />
    <glyph glyph-name="adieresis" unicode="&#xe4;" horiz-adv-x="514" 
d="M162 570q-11 0 -19.5 8.5t-8.5 19.5t8.5 19.5t19.5 8.5t19.5 -8.5t8.5 -19.5t-8.5 -19.5t-19.5 -8.5zM364 570q-11 0 -19.5 8.5t-8.5 19.5t8.5 19.5t19.5 8.5t19.5 -8.5t8.5 -19.5t-8.5 -19.5t-19.5 -8.5zM398 0v59q-65 -71 -167 -71q-68 0 -118.5 43.5t-50.5 117.5
t50 117.5t119 43.5q102 0 167 -71v109q0 56 -39 88t-97 32q-92 0 -155 -76l-23 20q37 43 78 63t100 20q74 0 120 -37.5t46 -108.5v-349h-30zM398 89v120q-56 74 -159 74q-65 0 -104.5 -38.5t-39.5 -95.5t39.5 -95.5t104.5 -38.5q103 0 159 74z" />
    <glyph glyph-name="aring" unicode="&#xe5;" horiz-adv-x="514" 
d="M170 646q0 38 27.5 65.5t65.5 27.5t65 -27.5t27 -65.5t-27 -65.5t-65 -27.5t-65.5 27.5t-27.5 65.5zM331 646q0 29 -20 49t-48 20q-29 0 -49 -20.5t-20 -48.5t20 -48.5t49 -20.5q28 0 48 20t20 49zM398 0v59q-65 -71 -167 -71q-68 0 -118.5 43.5t-50.5 117.5t50 117.5
t119 43.5q102 0 167 -71v109q0 56 -39 88t-97 32q-92 0 -155 -76l-23 20q37 43 78 63t100 20q74 0 120 -37.5t46 -108.5v-349h-30zM398 89v120q-56 74 -159 74q-65 0 -104.5 -38.5t-39.5 -95.5t39.5 -95.5t104.5 -38.5q103 0 159 74z" />
    <glyph glyph-name="ae" unicode="&#xe6;" horiz-adv-x="905" 
d="M454 232q3 -92 54 -154.5t134 -62.5q93 0 157 73l18 -19q-71 -81 -174 -81q-68 0 -120.5 37t-77.5 105q-21 -65 -72.5 -103.5t-119.5 -38.5q-84 0 -137.5 43.5t-53.5 118.5q0 74 52.5 117t127.5 43q112 0 182 -69v107q0 57 -40 88.5t-108 31.5q-100 0 -169 -76l-23 20
q71 83 200 83q61 0 111 -29.5t57 -94.5q23 54 72.5 89t108.5 35q101 0 156.5 -73t55.5 -180v-10h-391zM813 259q0 81 -46 145t-134 64q-80 0 -128 -64.5t-51 -144.5h359zM424 207q-61 76 -172 76q-71 0 -114 -38.5t-43 -95.5t43 -95.5t114 -38.5q78 0 125 51t47 122v19z" />
    <glyph glyph-name="ccedilla" unicode="&#xe7;" horiz-adv-x="493" 
d="M290 15q87 0 141 73l22 -19q-32 -39 -67 -59t-86 -22l-17 -46q15 12 38 12q29 0 47 -17t18 -45q0 -35 -28 -57t-70 -22q-58 0 -93 28l14 27q32 -28 79 -28q29 0 49 14t20 38q0 40 -44 40q-27 0 -43 -19l-22 13l23 63q-95 7 -153 79t-58 174q0 107 63 180t165 73
q56 0 94 -20t71 -61l-22 -18q-53 72 -141 72q-91 0 -144 -64.5t-53 -161.5q0 -98 53.5 -162.5t143.5 -64.5z" />
    <glyph glyph-name="egrave" unicode="&#xe8;" horiz-adv-x="571" 
d="M271 556l-175 144h45l160 -144h-30zM60 242q0 106 65 179.5t162 73.5q106 0 165 -73t59 -180v-10h-417q2 -92 57.5 -154.5t145.5 -62.5q100 0 168 73l18 -19q-78 -81 -186 -81q-105 0 -171 71.5t-66 182.5zM286 468q-87 0 -138 -64.5t-54 -144.5h385q0 49 -20 95.5
t-65.5 80t-107.5 33.5z" />
    <glyph glyph-name="eacute" unicode="&#xe9;" horiz-adv-x="571" 
d="M300 556h-30l160 144h45zM60 242q0 106 65 179.5t162 73.5q106 0 165 -73t59 -180v-10h-417q2 -92 57.5 -154.5t145.5 -62.5q100 0 168 73l18 -19q-78 -81 -186 -81q-105 0 -171 71.5t-66 182.5zM286 468q-87 0 -138 -64.5t-54 -144.5h385q0 49 -20 95.5t-65.5 80
t-107.5 33.5z" />
    <glyph glyph-name="ecircumflex" unicode="&#xea;" horiz-adv-x="571" 
d="M377 556l-91 120l-88 -120h-28l98 144h36l101 -144h-28zM60 242q0 106 65 179.5t162 73.5q106 0 165 -73t59 -180v-10h-417q2 -92 57.5 -154.5t145.5 -62.5q100 0 168 73l18 -19q-78 -81 -186 -81q-105 0 -171 71.5t-66 182.5zM286 468q-87 0 -138 -64.5t-54 -144.5h385
q0 49 -20 95.5t-65.5 80t-107.5 33.5z" />
    <glyph glyph-name="edieresis" unicode="&#xeb;" horiz-adv-x="571" 
d="M185 570q-11 0 -19.5 8.5t-8.5 19.5t8.5 19.5t19.5 8.5t19.5 -8.5t8.5 -19.5t-8.5 -19.5t-19.5 -8.5zM387 570q-11 0 -19.5 8.5t-8.5 19.5t8.5 19.5t19.5 8.5t19.5 -8.5t8.5 -19.5t-8.5 -19.5t-19.5 -8.5zM60 242q0 106 65 179.5t162 73.5q106 0 165 -73t59 -180v-10
h-417q2 -92 57.5 -154.5t145.5 -62.5q100 0 168 73l18 -19q-78 -81 -186 -81q-105 0 -171 71.5t-66 182.5zM286 468q-87 0 -138 -64.5t-54 -144.5h385q0 49 -20 95.5t-65.5 80t-107.5 33.5z" />
    <glyph glyph-name="igrave" unicode="&#xec;" horiz-adv-x="202" 
d="M86 556l-175 144h45l160 -144h-30zM86 0v483h30v-483h-30z" />
    <glyph glyph-name="iacute" unicode="&#xed;" horiz-adv-x="202" 
d="M115 556h-30l160 144h45zM86 0v483h30v-483h-30z" />
    <glyph glyph-name="icircumflex" unicode="&#xee;" horiz-adv-x="202" 
d="M192 556l-91 120l-88 -120h-28l98 144h36l101 -144h-28zM86 0v483h30v-483h-30z" />
    <glyph glyph-name="idieresis" unicode="&#xef;" horiz-adv-x="202" 
d="M0 570q-11 0 -19.5 8.5t-8.5 19.5t8.5 19.5t19.5 8.5t19.5 -8.5t8.5 -19.5t-8.5 -19.5t-19.5 -8.5zM202 570q-11 0 -19.5 8.5t-8.5 19.5t8.5 19.5t19.5 8.5t19.5 -8.5t8.5 -19.5t-8.5 -19.5t-19.5 -8.5zM86 0v483h30v-483h-30z" />
    <glyph glyph-name="eth" unicode="&#xf0;" horiz-adv-x="570" 
d="M312 599q198 -161 198 -357q0 -109 -62 -181.5t-163 -72.5q-100 0 -162.5 72.5t-62.5 181.5q0 108 62.5 180.5t162.5 72.5q95 0 156 -85q-62 99 -162 174l-141 -62l-11 26l126 56q-41 28 -87 57l18 27q55 -33 103 -69l111 49l11 -26zM285 15q89 0 140.5 66.5t51.5 160.5
q0 93 -51.5 159.5t-140.5 66.5q-88 0 -140 -66.5t-52 -159.5q0 -94 52 -160.5t140 -66.5z" />
    <glyph glyph-name="ntilde" unicode="&#xf1;" 
d="M252 617q-9 17 -14.5 25.5t-16 16.5t-22.5 8q-26 0 -42.5 -26.5t-16.5 -80.5h-26q0 57 23.5 95.5t64.5 38.5q15 0 26.5 -5t21 -16t14.5 -19t13 -23q9 -17 14.5 -25.5t16 -16.5t22.5 -8q26 0 42.5 26.5t16.5 80.5h26q0 -57 -23.5 -95.5t-64.5 -38.5q-20 0 -35.5 11t-22 21
t-17.5 31zM412 0v337q0 72 -32 101.5t-93 29.5q-48 0 -96 -26.5t-75 -64.5v-377h-30v483h30v-76q29 35 78 61.5t97 26.5q75 0 113 -37.5t38 -120.5v-337h-30z" />
    <glyph glyph-name="ograve" unicode="&#xf2;" horiz-adv-x="570" 
d="M270 556l-175 144h45l160 -144h-30zM285 -12q-100 0 -162.5 72.5t-62.5 181.5q0 108 62.5 180.5t162.5 72.5q101 0 163 -72t62 -181t-62 -181.5t-163 -72.5zM285 15q89 0 140.5 66.5t51.5 160.5q0 93 -51.5 159.5t-140.5 66.5q-88 0 -140 -66.5t-52 -159.5
q0 -94 52 -160.5t140 -66.5z" />
    <glyph glyph-name="oacute" unicode="&#xf3;" horiz-adv-x="570" 
d="M299 556h-30l160 144h45zM285 -12q-100 0 -162.5 72.5t-62.5 181.5q0 108 62.5 180.5t162.5 72.5q101 0 163 -72t62 -181t-62 -181.5t-163 -72.5zM285 15q89 0 140.5 66.5t51.5 160.5q0 93 -51.5 159.5t-140.5 66.5q-88 0 -140 -66.5t-52 -159.5q0 -94 52 -160.5
t140 -66.5z" />
    <glyph glyph-name="ocircumflex" unicode="&#xf4;" horiz-adv-x="570" 
d="M376 556l-91 120l-88 -120h-28l98 144h36l101 -144h-28zM285 -12q-100 0 -162.5 72.5t-62.5 181.5q0 108 62.5 180.5t162.5 72.5q101 0 163 -72t62 -181t-62 -181.5t-163 -72.5zM285 15q89 0 140.5 66.5t51.5 160.5q0 93 -51.5 159.5t-140.5 66.5q-88 0 -140 -66.5
t-52 -159.5q0 -94 52 -160.5t140 -66.5z" />
    <glyph glyph-name="otilde" unicode="&#xf5;" horiz-adv-x="570" 
d="M273 617q-9 17 -14.5 25.5t-16 16.5t-22.5 8q-26 0 -42.5 -26.5t-16.5 -80.5h-26q0 57 23.5 95.5t64.5 38.5q15 0 26.5 -5t21 -16t14.5 -19t13 -23q9 -17 14.5 -25.5t16 -16.5t22.5 -8q26 0 42.5 26.5t16.5 80.5h26q0 -57 -23.5 -95.5t-64.5 -38.5q-20 0 -35.5 11t-22 21
t-17.5 31zM285 -12q-100 0 -162.5 72.5t-62.5 181.5q0 108 62.5 180.5t162.5 72.5q101 0 163 -72t62 -181t-62 -181.5t-163 -72.5zM285 15q89 0 140.5 66.5t51.5 160.5q0 93 -51.5 159.5t-140.5 66.5q-88 0 -140 -66.5t-52 -159.5q0 -94 52 -160.5t140 -66.5z" />
    <glyph glyph-name="odieresis" unicode="&#xf6;" horiz-adv-x="570" 
d="M184 570q-11 0 -19.5 8.5t-8.5 19.5t8.5 19.5t19.5 8.5t19.5 -8.5t8.5 -19.5t-8.5 -19.5t-19.5 -8.5zM386 570q-11 0 -19.5 8.5t-8.5 19.5t8.5 19.5t19.5 8.5t19.5 -8.5t8.5 -19.5t-8.5 -19.5t-19.5 -8.5zM285 -12q-100 0 -162.5 72.5t-62.5 181.5q0 108 62.5 180.5
t162.5 72.5q101 0 163 -72t62 -181t-62 -181.5t-163 -72.5zM285 15q89 0 140.5 66.5t51.5 160.5q0 93 -51.5 159.5t-140.5 66.5q-88 0 -140 -66.5t-52 -159.5q0 -94 52 -160.5t140 -66.5z" />
    <glyph glyph-name="divide" unicode="&#xf7;" horiz-adv-x="511" 
d="M256 502q-13 0 -23 10t-10 24q0 13 9.5 22.5t23.5 9.5t23.5 -9.5t9.5 -22.5q0 -14 -10 -24t-23 -10zM29 322v30h453v-30h-453zM256 100q-14 0 -23.5 10t-9.5 23t9.5 23t23.5 10t23.5 -10t9.5 -23t-9.5 -23t-23.5 -10z" />
    <glyph glyph-name="oslash" unicode="&#xf8;" horiz-adv-x="570" 
d="M438 433q72 -72 72 -191q0 -109 -62 -181.5t-163 -72.5q-81 0 -139 50l-28 -38h-34l42 57q-66 72 -66 185q0 108 62.5 180.5t162.5 72.5q76 0 133 -44l24 32h33zM93 242q0 -96 52 -160l256 345q-49 41 -116 41q-88 0 -140 -66.5t-52 -159.5zM285 15q89 0 140.5 66.5
t51.5 160.5q0 101 -57 166l-256 -346q50 -47 121 -47z" />
    <glyph glyph-name="ugrave" unicode="&#xf9;" 
d="M249 556l-175 144h45l160 -144h-30zM412 0v74q-33 -37 -80 -61.5t-95 -24.5q-75 0 -113 36.5t-38 119.5v339h30v-339q0 -72 32 -100.5t93 -28.5q48 0 96.5 25.5t74.5 62.5v380h30v-483h-30z" />
    <glyph glyph-name="uacute" unicode="&#xfa;" 
d="M278 556h-30l160 144h45zM412 0v74q-33 -37 -80 -61.5t-95 -24.5q-75 0 -113 36.5t-38 119.5v339h30v-339q0 -72 32 -100.5t93 -28.5q48 0 96.5 25.5t74.5 62.5v380h30v-483h-30z" />
    <glyph glyph-name="ucircumflex" unicode="&#xfb;" 
d="M355 556l-91 120l-88 -120h-28l98 144h36l101 -144h-28zM412 0v74q-33 -37 -80 -61.5t-95 -24.5q-75 0 -113 36.5t-38 119.5v339h30v-339q0 -72 32 -100.5t93 -28.5q48 0 96.5 25.5t74.5 62.5v380h30v-483h-30z" />
    <glyph glyph-name="udieresis" unicode="&#xfc;" 
d="M163 570q-11 0 -19.5 8.5t-8.5 19.5t8.5 19.5t19.5 8.5t19.5 -8.5t8.5 -19.5t-8.5 -19.5t-19.5 -8.5zM365 570q-11 0 -19.5 8.5t-8.5 19.5t8.5 19.5t19.5 8.5t19.5 -8.5t8.5 -19.5t-8.5 -19.5t-19.5 -8.5zM412 0v74q-33 -37 -80 -61.5t-95 -24.5q-75 0 -113 36.5
t-38 119.5v339h30v-339q0 -72 32 -100.5t93 -28.5q48 0 96.5 25.5t74.5 62.5v380h30v-483h-30z" />
    <glyph glyph-name="yacute" unicode="&#xfd;" horiz-adv-x="471" 
d="M250 556h-30l160 144h45zM56 -161q18 -8 42 -8q25 0 42.5 14.5t33.5 51.5l44 100l-207 486h35l190 -448l189 448h35l-256 -597q-36 -82 -106 -82q-27 0 -48 7z" />
    <glyph glyph-name="thorn" unicode="&#xfe;" horiz-adv-x="566" 
d="M116 83v-267h-30v851h30v-265q26 40 73 66.5t101 26.5q98 0 157 -69t59 -184q0 -114 -59.5 -184t-156.5 -70q-53 0 -98.5 25.5t-75.5 69.5zM473 242q0 99 -48.5 162.5t-134.5 63.5q-54 0 -102 -28t-72 -68v-259q24 -40 72 -69t102 -29q86 0 134.5 64t48.5 163z" />
    <glyph glyph-name="ydieresis" unicode="&#xff;" horiz-adv-x="471" 
d="M135 570q-11 0 -19.5 8.5t-8.5 19.5t8.5 19.5t19.5 8.5t19.5 -8.5t8.5 -19.5t-8.5 -19.5t-19.5 -8.5zM337 570q-11 0 -19.5 8.5t-8.5 19.5t8.5 19.5t19.5 8.5t19.5 -8.5t8.5 -19.5t-8.5 -19.5t-19.5 -8.5zM56 -161q18 -8 42 -8q25 0 42.5 14.5t33.5 51.5l44 100l-207 486
h35l190 -448l189 448h35l-256 -597q-36 -82 -106 -82q-27 0 -48 7z" />
    <glyph glyph-name="Amacron" unicode="&#x100;" horiz-adv-x="636" 
d="M176 748v27h283v-27h-283zM578 0l-74 179h-372l-74 -179h-37l278 667h38l278 -667h-37zM318 630l-174 -421h348z" />
    <glyph glyph-name="amacron" unicode="&#x101;" horiz-adv-x="514" 
d="M121 581v27h283v-27h-283zM398 0v59q-65 -71 -167 -71q-68 0 -118.5 43.5t-50.5 117.5t50 117.5t119 43.5q102 0 167 -71v109q0 56 -39 88t-97 32q-92 0 -155 -76l-23 20q37 43 78 63t100 20q74 0 120 -37.5t46 -108.5v-349h-30zM398 89v120q-56 74 -159 74
q-65 0 -104.5 -38.5t-39.5 -95.5t39.5 -95.5t104.5 -38.5q103 0 159 74z" />
    <glyph glyph-name="Abreve" unicode="&#x102;" horiz-adv-x="636" 
d="M318 711q-109 0 -176 88l21 19q57 -80 155 -80t155 80l20 -19q-65 -88 -175 -88zM578 0l-74 179h-372l-74 -179h-37l278 667h38l278 -667h-37zM318 630l-174 -421h348z" />
    <glyph glyph-name="abreve" unicode="&#x103;" horiz-adv-x="514" 
d="M263 544q-109 0 -176 88l21 19q57 -80 155 -80t155 80l20 -19q-65 -88 -175 -88zM398 0v59q-65 -71 -167 -71q-68 0 -118.5 43.5t-50.5 117.5t50 117.5t119 43.5q102 0 167 -71v109q0 56 -39 88t-97 32q-92 0 -155 -76l-23 20q37 43 78 63t100 20q74 0 120 -37.5
t46 -108.5v-349h-30zM398 89v120q-56 74 -159 74q-65 0 -104.5 -38.5t-39.5 -95.5t39.5 -95.5t104.5 -38.5q103 0 159 74z" />
    <glyph glyph-name="Aogonek" unicode="&#x104;" horiz-adv-x="636" 
d="M565 -159q22 0 37 11l13 -22q-21 -16 -50 -16q-35 0 -60.5 19.5t-25.5 52.5q0 64 98 115l-73 178h-372l-74 -179h-37l278 667h38l278 -667q-102 -54 -102 -109q0 -23 14 -36.5t38 -13.5zM144 209h348l-174 421z" />
    <glyph glyph-name="aogonek" unicode="&#x105;" horiz-adv-x="514" 
d="M428 0q-102 -54 -102 -109q0 -23 14 -36.5t38 -13.5q22 0 37 11l13 -22q-21 -16 -50 -16q-35 0 -60.5 19.5t-25.5 52.5t29.5 64.5t76.5 54.5v54q-65 -71 -167 -71q-68 0 -118.5 43.5t-50.5 117.5t50 117.5t119 43.5q102 0 167 -71v109q0 56 -39 88t-97 32q-92 0 -155 -76
l-23 20q37 43 78 63t100 20q74 0 120 -37.5t46 -108.5v-349zM239 15q103 0 159 74v120q-56 74 -159 74q-65 0 -104.5 -38.5t-39.5 -95.5t39.5 -95.5t104.5 -38.5z" />
    <glyph glyph-name="Cacute" unicode="&#x106;" horiz-adv-x="667" 
d="M412 723h-30l160 144h45zM398 -12q-141 0 -237 97t-96 248t96 248t237 97t232 -105l-25 -22q-36 45 -90.5 71t-116.5 26q-127 0 -212.5 -88t-85.5 -227q0 -138 85.5 -226.5t212.5 -88.5q62 0 116.5 26t90.5 71l26 -21q-94 -106 -233 -106z" />
    <glyph glyph-name="cacute" unicode="&#x107;" horiz-adv-x="493" 
d="M300 556h-30l160 144h45zM60 242q0 107 63 180t165 73q56 0 94 -20t71 -61l-22 -18q-53 72 -141 72q-91 0 -144 -64.5t-53 -161.5q0 -98 53.5 -162.5t143.5 -64.5q87 0 141 73l22 -19q-33 -41 -71 -61t-94 -20q-102 0 -165 73.5t-63 180.5z" />
    <glyph glyph-name="Ccircumflex" unicode="&#x108;" horiz-adv-x="667" 
d="M489 723l-91 120l-88 -120h-28l98 144h36l101 -144h-28zM398 -12q-141 0 -237 97t-96 248t96 248t237 97t232 -105l-25 -22q-36 45 -90.5 71t-116.5 26q-127 0 -212.5 -88t-85.5 -227q0 -138 85.5 -226.5t212.5 -88.5q62 0 116.5 26t90.5 71l26 -21q-94 -106 -233 -106z
" />
    <glyph glyph-name="ccircumflex" unicode="&#x109;" horiz-adv-x="493" 
d="M377 556l-91 120l-88 -120h-28l98 144h36l101 -144h-28zM60 242q0 107 63 180t165 73q56 0 94 -20t71 -61l-22 -18q-53 72 -141 72q-91 0 -144 -64.5t-53 -161.5q0 -98 53.5 -162.5t143.5 -64.5q87 0 141 73l22 -19q-33 -41 -71 -61t-94 -20q-102 0 -165 73.5t-63 180.5z
" />
    <glyph glyph-name="Cdotaccent" unicode="&#x10a;" horiz-adv-x="667" 
d="M369 762q0 12 9 20.5t20 8.5q12 0 20.5 -8.5t8.5 -20.5t-8.5 -20.5t-20.5 -8.5q-11 0 -20 8.5t-9 20.5zM398 -12q-141 0 -237 97t-96 248t96 248t237 97t232 -105l-25 -22q-36 45 -90.5 71t-116.5 26q-127 0 -212.5 -88t-85.5 -227q0 -138 85.5 -226.5t212.5 -88.5
q62 0 116.5 26t90.5 71l26 -21q-94 -106 -233 -106z" />
    <glyph glyph-name="cdotaccent" unicode="&#x10b;" horiz-adv-x="493" 
d="M257 595q0 12 9 20.5t20 8.5q12 0 20.5 -8.5t8.5 -20.5t-8.5 -20.5t-20.5 -8.5q-11 0 -20 8.5t-9 20.5zM60 242q0 107 63 180t165 73q56 0 94 -20t71 -61l-22 -18q-53 72 -141 72q-91 0 -144 -64.5t-53 -161.5q0 -98 53.5 -162.5t143.5 -64.5q87 0 141 73l22 -19
q-33 -41 -71 -61t-94 -20q-102 0 -165 73.5t-63 180.5z" />
    <glyph glyph-name="Ccaron" unicode="&#x10c;" horiz-adv-x="667" 
d="M380 723l-101 144h28l91 -120l88 120h28l-98 -144h-36zM398 -12q-141 0 -237 97t-96 248t96 248t237 97t232 -105l-25 -22q-36 45 -90.5 71t-116.5 26q-127 0 -212.5 -88t-85.5 -227q0 -138 85.5 -226.5t212.5 -88.5q62 0 116.5 26t90.5 71l26 -21q-94 -106 -233 -106z
" />
    <glyph glyph-name="ccaron" unicode="&#x10d;" horiz-adv-x="493" 
d="M268 556l-101 144h28l91 -120l88 120h28l-98 -144h-36zM60 242q0 107 63 180t165 73q56 0 94 -20t71 -61l-22 -18q-53 72 -141 72q-91 0 -144 -64.5t-53 -161.5q0 -98 53.5 -162.5t143.5 -64.5q87 0 141 73l22 -19q-33 -41 -71 -61t-94 -20q-102 0 -165 73.5t-63 180.5z
" />
    <glyph glyph-name="Dcaron" unicode="&#x10e;" horiz-adv-x="684" 
d="M328 723l-101 144h28l91 -120l88 120h28l-98 -144h-36zM88 0v667h198q150 0 241 -97.5t91 -236.5q0 -140 -90.5 -236.5t-241.5 -96.5h-198zM120 30h166q138 0 217.5 86t79.5 217q0 130 -80 217t-217 87h-166v-607z" />
    <glyph glyph-name="dcaron" unicode="&#x10f;" horiz-adv-x="605" 
d="M546 506l-22 18q24 18 38.5 43.5t14.5 48.5l-8 -1q-14 0 -23 9.5t-9 23.5q0 13 9 22.5t23 9.5q16 0 27.5 -14t11.5 -39q0 -36 -18 -69.5t-44 -51.5zM450 0v81q-26 -40 -73 -66.5t-101 -26.5q-98 0 -157 69t-59 184q0 114 59.5 184t156.5 70q53 0 98.5 -25.5t75.5 -69.5
v267h30v-667h-30zM450 111v259q-24 40 -72 69t-102 29q-86 0 -134.5 -64t-48.5 -163t48.5 -162.5t134.5 -63.5q54 0 102 28t72 68z" />
    <glyph glyph-name="Dcroat" unicode="&#x110;" horiz-adv-x="715" 
d="M317 667q150 0 241 -97.5t91 -236.5q0 -140 -90.5 -236.5t-241.5 -96.5h-198v317h-107v30h107v320h198zM317 30q138 0 217.5 86t79.5 217q0 130 -80 217t-217 87h-166v-290h188v-30h-188v-287h166z" />
    <glyph glyph-name="dcroat" unicode="&#x111;" horiz-adv-x="566" 
d="M557 568v-27h-77v-541h-30v81q-26 -40 -73 -66.5t-101 -26.5q-98 0 -157 69t-59 184q0 114 59.5 184t156.5 70q53 0 98.5 -25.5t75.5 -69.5v141h-166v27h166v99h30v-99h77zM450 111v259q-24 40 -72 69t-102 29q-86 0 -134.5 -64t-48.5 -163t48.5 -162.5t134.5 -63.5
q54 0 102 28t72 68z" />
    <glyph glyph-name="Emacron" unicode="&#x112;" horiz-adv-x="558" 
d="M154 748v27h283v-27h-283zM88 0v667h408v-30h-376v-279h369v-30h-369v-298h376v-30h-408z" />
    <glyph glyph-name="emacron" unicode="&#x113;" horiz-adv-x="571" 
d="M144 581v27h283v-27h-283zM60 242q0 106 65 179.5t162 73.5q106 0 165 -73t59 -180v-10h-417q2 -92 57.5 -154.5t145.5 -62.5q100 0 168 73l18 -19q-78 -81 -186 -81q-105 0 -171 71.5t-66 182.5zM286 468q-87 0 -138 -64.5t-54 -144.5h385q0 49 -20 95.5t-65.5 80
t-107.5 33.5z" />
    <glyph glyph-name="Ebreve" unicode="&#x114;" horiz-adv-x="558" 
d="M296 711q-109 0 -176 88l21 19q57 -80 155 -80t155 80l20 -19q-65 -88 -175 -88zM88 0v667h408v-30h-376v-279h369v-30h-369v-298h376v-30h-408z" />
    <glyph glyph-name="ebreve" unicode="&#x115;" horiz-adv-x="571" 
d="M286 544q-109 0 -176 88l21 19q57 -80 155 -80t155 80l20 -19q-65 -88 -175 -88zM60 242q0 106 65 179.5t162 73.5q106 0 165 -73t59 -180v-10h-417q2 -92 57.5 -154.5t145.5 -62.5q100 0 168 73l18 -19q-78 -81 -186 -81q-105 0 -171 71.5t-66 182.5zM286 468
q-87 0 -138 -64.5t-54 -144.5h385q0 49 -20 95.5t-65.5 80t-107.5 33.5z" />
    <glyph glyph-name="Edotaccent" unicode="&#x116;" horiz-adv-x="558" 
d="M267 762q0 12 9 20.5t20 8.5q12 0 20.5 -8.5t8.5 -20.5t-8.5 -20.5t-20.5 -8.5q-11 0 -20 8.5t-9 20.5zM88 0v667h408v-30h-376v-279h369v-30h-369v-298h376v-30h-408z" />
    <glyph glyph-name="edotaccent" unicode="&#x117;" horiz-adv-x="571" 
d="M257 595q0 12 9 20.5t20 8.5q12 0 20.5 -8.5t8.5 -20.5t-8.5 -20.5t-20.5 -8.5q-11 0 -20 8.5t-9 20.5zM60 242q0 106 65 179.5t162 73.5q106 0 165 -73t59 -180v-10h-417q2 -92 57.5 -154.5t145.5 -62.5q100 0 168 73l18 -19q-78 -81 -186 -81q-105 0 -171 71.5
t-66 182.5zM286 468q-87 0 -138 -64.5t-54 -144.5h385q0 49 -20 95.5t-65.5 80t-107.5 33.5z" />
    <glyph glyph-name="Eogonek" unicode="&#x118;" horiz-adv-x="558" 
d="M496 637h-376v-279h369v-30h-369v-298h376v-30q-102 -54 -102 -109q0 -23 14 -36.5t38 -13.5q22 0 37 11l13 -22q-21 -16 -50 -16q-35 0 -60.5 19.5t-25.5 52.5q0 63 96 114h-368v667h408v-30z" />
    <glyph glyph-name="eogonek" unicode="&#x119;" horiz-adv-x="571" 
d="M297 -12q-105 0 -171 71.5t-66 182.5q0 106 65 179.5t162 73.5q106 0 165 -73t59 -180v-10h-417q2 -92 57.5 -154.5t145.5 -62.5q100 0 168 73l18 -19q-126 -115 -126 -178q0 -23 14 -36.5t38 -13.5q22 0 37 11l13 -22q-21 -16 -50 -16q-35 0 -60.5 19.5t-25.5 52.5
q0 60 69 119q-44 -17 -95 -17zM286 468q-87 0 -138 -64.5t-54 -144.5h385q0 49 -20 95.5t-65.5 80t-107.5 33.5z" />
    <glyph glyph-name="Ecaron" unicode="&#x11a;" horiz-adv-x="558" 
d="M278 723l-101 144h28l91 -120l88 120h28l-98 -144h-36zM88 0v667h408v-30h-376v-279h369v-30h-369v-298h376v-30h-408z" />
    <glyph glyph-name="ecaron" unicode="&#x11b;" horiz-adv-x="571" 
d="M268 556l-101 144h28l91 -120l88 120h28l-98 -144h-36zM60 242q0 106 65 179.5t162 73.5q106 0 165 -73t59 -180v-10h-417q2 -92 57.5 -154.5t145.5 -62.5q100 0 168 73l18 -19q-78 -81 -186 -81q-105 0 -171 71.5t-66 182.5zM286 468q-87 0 -138 -64.5t-54 -144.5h385
q0 49 -20 95.5t-65.5 80t-107.5 33.5z" />
    <glyph glyph-name="Gcircumflex" unicode="&#x11c;" horiz-adv-x="708" 
d="M488 723l-91 120l-88 -120h-28l98 144h36l101 -144h-28zM65 333q0 151 96 248t237 97q144 0 244 -103l-21 -22q-39 45 -98 70t-125 25q-127 0 -212.5 -88t-85.5 -227q0 -138 85.5 -227t212.5 -89q67 0 122 26.5t90 63.5v183h-275v30h307v-226q-44 -49 -107.5 -78
t-136.5 -29q-141 0 -237 97t-96 249z" />
    <glyph glyph-name="gcircumflex" unicode="&#x11d;" horiz-adv-x="566" 
d="M376 556l-91 120l-88 -120h-28l98 144h36l101 -144h-28zM91 -123l22 25q31 -39 68.5 -55t94.5 -16q77 0 125.5 41.5t48.5 124.5v84q-27 -40 -73.5 -67.5t-100.5 -27.5q-98 0 -157 69.5t-59 184.5q0 114 59.5 184.5t156.5 70.5q53 0 98.5 -25.5t75.5 -69.5v83h30v-486
q0 -99 -55.5 -146t-148.5 -47q-63 0 -103.5 15t-81.5 58zM450 111v259q-24 40 -72 69t-102 29q-86 0 -134.5 -64.5t-48.5 -163.5t48.5 -163t134.5 -64q54 0 102 29t72 69z" />
    <glyph glyph-name="Gbreve" unicode="&#x11e;" horiz-adv-x="708" 
d="M397 711q-109 0 -176 88l21 19q57 -80 155 -80t155 80l20 -19q-65 -88 -175 -88zM65 333q0 151 96 248t237 97q144 0 244 -103l-21 -22q-39 45 -98 70t-125 25q-127 0 -212.5 -88t-85.5 -227q0 -138 85.5 -227t212.5 -89q67 0 122 26.5t90 63.5v183h-275v30h307v-226
q-44 -49 -107.5 -78t-136.5 -29q-141 0 -237 97t-96 249z" />
    <glyph glyph-name="gbreve" unicode="&#x11f;" horiz-adv-x="566" 
d="M285 544q-109 0 -176 88l21 19q57 -80 155 -80t155 80l20 -19q-65 -88 -175 -88zM91 -123l22 25q31 -39 68.5 -55t94.5 -16q77 0 125.5 41.5t48.5 124.5v84q-27 -40 -73.5 -67.5t-100.5 -27.5q-98 0 -157 69.5t-59 184.5q0 114 59.5 184.5t156.5 70.5q53 0 98.5 -25.5
t75.5 -69.5v83h30v-486q0 -99 -55.5 -146t-148.5 -47q-63 0 -103.5 15t-81.5 58zM450 111v259q-24 40 -72 69t-102 29q-86 0 -134.5 -64.5t-48.5 -163.5t48.5 -163t134.5 -64q54 0 102 29t72 69z" />
    <glyph glyph-name="Gdotaccent" unicode="&#x120;" horiz-adv-x="708" 
d="M65 333q0 151 96 248t237 97q144 0 244 -103l-21 -22q-39 45 -98 70t-125 25q-127 0 -212.5 -88t-85.5 -227q0 -138 85.5 -227t212.5 -89q67 0 122 26.5t90 63.5v183h-275v30h307v-226q-44 -49 -107.5 -78t-136.5 -29q-141 0 -237 97t-96 249zM369 -145q0 12 9 20.5
t20 8.5q12 0 20.5 -8.5t8.5 -20.5t-8.5 -20.5t-20.5 -8.5q-11 0 -20 8.5t-9 20.5z" />
    <glyph glyph-name="gdotaccent" unicode="&#x121;" horiz-adv-x="566" 
d="M256 595q0 12 9 20.5t20 8.5q12 0 20.5 -8.5t8.5 -20.5t-8.5 -20.5t-20.5 -8.5q-11 0 -20 8.5t-9 20.5zM91 -123l22 25q31 -39 68.5 -55t94.5 -16q77 0 125.5 41.5t48.5 124.5v84q-27 -40 -73.5 -67.5t-100.5 -27.5q-98 0 -157 69.5t-59 184.5q0 114 59.5 184.5
t156.5 70.5q53 0 98.5 -25.5t75.5 -69.5v83h30v-486q0 -99 -55.5 -146t-148.5 -47q-63 0 -103.5 15t-81.5 58zM450 111v259q-24 40 -72 69t-102 29q-86 0 -134.5 -64.5t-48.5 -163.5t48.5 -163t134.5 -64q54 0 102 29t72 69z" />
    <glyph glyph-name="uni0122" unicode="&#x122;" horiz-adv-x="708" 
d="M65 333q0 151 96 248t237 97q144 0 244 -103l-21 -22q-39 45 -98 70t-125 25q-127 0 -212.5 -88t-85.5 -227q0 -138 85.5 -227t212.5 -89q67 0 122 26.5t90 63.5v183h-275v30h307v-226q-44 -49 -107.5 -78t-136.5 -29q-141 0 -237 97t-96 249zM375 -258l-22 18
q24 18 38.5 43.5t14.5 48.5l-8 -1q-14 0 -23 9.5t-9 23.5q0 13 9 22.5t23 9.5q16 0 27.5 -14t11.5 -39q0 -36 -18 -69.5t-44 -51.5z" />
    <glyph glyph-name="uni0123" unicode="&#x123;" horiz-adv-x="566" 
d="M301 739l24 -19q-24 -18 -38.5 -43.5t-14.5 -48.5q2 1 4 1q12 0 22.5 -10t10.5 -23q0 -12 -9.5 -22t-23.5 -10q-16 0 -25.5 13t-9.5 33q0 40 18.5 76.5t41.5 52.5zM91 -123l22 25q31 -39 68.5 -55t94.5 -16q77 0 125.5 41.5t48.5 124.5v84q-27 -40 -73.5 -67.5
t-100.5 -27.5q-98 0 -157 69.5t-59 184.5q0 114 59.5 184.5t156.5 70.5q53 0 98.5 -25.5t75.5 -69.5v83h30v-486q0 -99 -55.5 -146t-148.5 -47q-63 0 -103.5 15t-81.5 58zM450 111v259q-24 40 -72 69t-102 29q-86 0 -134.5 -64.5t-48.5 -163.5t48.5 -163t134.5 -64
q54 0 102 29t72 69z" />
    <glyph glyph-name="Hcircumflex" unicode="&#x124;" horiz-adv-x="695" 
d="M439 723l-91 120l-88 -120h-28l98 144h36l101 -144h-28zM575 0v328h-455v-328h-32v667h32v-309h455v309h32v-667h-32z" />
    <glyph glyph-name="hcircumflex" unicode="&#x125;" 
d="M355 723l-91 120l-88 -120h-28l98 144h36l101 -144h-28zM412 0v339q0 72 -32 100.5t-93 28.5q-48 0 -96 -26.5t-75 -64.5v-377h-30v667h30v-260q29 35 78 61.5t97 26.5q75 0 113 -36.5t38 -119.5v-339h-30z" />
    <glyph glyph-name="Hbar" unicode="&#x126;" horiz-adv-x="717" 
d="M705 528v-27h-86v-501h-32v328h-455v-328h-32v501h-88v27h88v139h32v-139h455v139h32v-139h86zM587 358v143h-455v-143h455z" />
    <glyph glyph-name="hbar" unicode="&#x127;" 
d="M291 495q75 0 113 -36.5t38 -119.5v-339h-30v339q0 72 -32 100.5t-93 28.5q-48 0 -96 -26.5t-75 -64.5v-377h-30v541h-76v27h76v99h30v-99h166v-27h-166v-134q29 35 78 61.5t97 26.5z" />
    <glyph glyph-name="Itilde" unicode="&#x128;" horiz-adv-x="208" 
d="M92 784q-9 17 -14.5 25.5t-16 16.5t-22.5 8q-26 0 -42.5 -26.5t-16.5 -80.5h-26q0 57 23.5 95.5t64.5 38.5q15 0 26.5 -5t21 -16t14.5 -19t13 -23q9 -17 14.5 -25.5t16 -16.5t22.5 -8q26 0 42.5 26.5t16.5 80.5h26q0 -57 -23.5 -95.5t-64.5 -38.5q-20 0 -35.5 11t-22 21
t-17.5 31zM88 0v667h32v-667h-32z" />
    <glyph glyph-name="itilde" unicode="&#x129;" horiz-adv-x="202" 
d="M89 617q-9 17 -14.5 25.5t-16 16.5t-22.5 8q-26 0 -42.5 -26.5t-16.5 -80.5h-26q0 57 23.5 95.5t64.5 38.5q15 0 26.5 -5t21 -16t14.5 -19t13 -23q9 -17 14.5 -25.5t16 -16.5t22.5 -8q26 0 42.5 26.5t16.5 80.5h26q0 -57 -23.5 -95.5t-64.5 -38.5q-20 0 -35.5 11t-22 21
t-17.5 31zM86 0v483h30v-483h-30z" />
    <glyph glyph-name="Imacron" unicode="&#x12a;" horiz-adv-x="208" 
d="M-38 748v27h283v-27h-283zM88 0v667h32v-667h-32z" />
    <glyph glyph-name="imacron" unicode="&#x12b;" horiz-adv-x="202" 
d="M-41 581v27h283v-27h-283zM86 0v483h30v-483h-30z" />
    <glyph glyph-name="Ibreve" unicode="&#x12c;" horiz-adv-x="208" 
d="M104 711q-109 0 -176 88l21 19q57 -80 155 -80t155 80l20 -19q-65 -88 -175 -88zM88 0v667h32v-667h-32z" />
    <glyph glyph-name="ibreve" unicode="&#x12d;" horiz-adv-x="202" 
d="M101 544q-109 0 -176 88l21 19q57 -80 155 -80t155 80l20 -19q-65 -88 -175 -88zM86 0v483h30v-483h-30z" />
    <glyph glyph-name="Iogonek" unicode="&#x12e;" horiz-adv-x="208" 
d="M120 0q-102 -54 -102 -109q0 -23 14 -36.5t38 -13.5q22 0 37 11l13 -22q-21 -16 -50 -16q-35 0 -60.5 19.5t-25.5 52.5t29 64t75 54v663h32v-667z" />
    <glyph glyph-name="iogonek" unicode="&#x12f;" horiz-adv-x="202" 
d="M101 624q12 0 20.5 -8.5t8.5 -20.5t-8.5 -20.5t-20.5 -8.5q-11 0 -20 8.5t-9 20.5t9 20.5t20 8.5zM86 5v478h30v-483q-102 -54 -102 -109q0 -23 14 -36.5t38 -13.5q22 0 37 11l13 -22q-21 -16 -50 -16q-35 0 -60.5 19.5t-25.5 52.5t29.5 64.5t76.5 54.5z" />
    <glyph glyph-name="Idotaccent" unicode="&#x130;" horiz-adv-x="208" 
d="M75 762q0 12 9 20.5t20 8.5q12 0 20.5 -8.5t8.5 -20.5t-8.5 -20.5t-20.5 -8.5q-11 0 -20 8.5t-9 20.5zM88 0v667h32v-667h-32z" />
    <glyph glyph-name="dotlessi" unicode="&#x131;" horiz-adv-x="202" 
d="M86 0v483h30v-483h-30z" />
    <glyph glyph-name="IJ" unicode="&#x132;" horiz-adv-x="673" 
d="M88 0v667h32v-667h-32zM224 75l27 24q57 -81 142 -81q73 0 116.5 46.5t43.5 120.5v482h32v-482q0 -95 -55 -146t-137 -51q-107 0 -169 87z" />
    <glyph glyph-name="ij" unicode="&#x133;" horiz-adv-x="404" 
d="M101 566q-11 0 -20 8.5t-9 20.5t9 20.5t20 8.5q12 0 20.5 -8.5t8.5 -20.5t-8.5 -20.5t-20.5 -8.5zM303 566q-11 0 -20 8.5t-9 20.5t9 20.5t20 8.5q12 0 20.5 -8.5t8.5 -20.5t-8.5 -20.5t-20.5 -8.5zM86 0v483h30v-483h-30zM318 483v-559q0 -60 -30.5 -90t-84.5 -30
q-31 0 -55 10l10 27q20 -9 45 -9q85 0 85 92v559h30z" />
    <glyph glyph-name="Jcircumflex" unicode="&#x134;" horiz-adv-x="465" 
d="M452 740l-91 120l-88 -120h-28l98 144h36l101 -144h-28zM16 75l27 24q57 -81 142 -81q73 0 116.5 46.5t43.5 120.5v482h32v-482q0 -95 -55 -146t-137 -51q-107 0 -169 87z" />
    <glyph glyph-name="jcircumflex" unicode="&#x135;" horiz-adv-x="202" 
d="M192 556l-91 120l-88 -120h-28l98 144h36l101 -144h-28zM-54 -186l10 27q19 -9 45 -9q85 0 85 92v559h30v-559q0 -60 -30.5 -90t-84.5 -30q-31 0 -55 10z" />
    <glyph glyph-name="uni0136" unicode="&#x136;" horiz-adv-x="571" 
d="M497 0l-297 328l-80 -87v-241h-32v667h32v-385l347 385h43l-290 -319l320 -348h-43zM281 -258l-22 18q24 18 38.5 43.5t14.5 48.5l-8 -1q-14 0 -23 9.5t-9 23.5q0 13 9 22.5t23 9.5q16 0 27.5 -14t11.5 -39q0 -36 -18 -69.5t-44 -51.5z" />
    <glyph glyph-name="uni0137" unicode="&#x137;" horiz-adv-x="496" 
d="M428 0l-212 243l-100 -92v-151h-30v667h30v-478l315 294h43l-235 -218l232 -265h-43zM231 -258l-22 18q24 18 38.5 43.5t14.5 48.5l-8 -1q-14 0 -23 9.5t-9 23.5q0 13 9 22.5t23 9.5q16 0 27.5 -14t11.5 -39q0 -36 -18 -69.5t-44 -51.5z" />
    <glyph glyph-name="kgreenlandic" unicode="&#x138;" horiz-adv-x="496" 
d="M428 0l-212 243l-100 -92v-151h-30v483h30v-294l315 294h43l-235 -218l232 -265h-43z" />
    <glyph glyph-name="Lacute" unicode="&#x139;" horiz-adv-x="499" 
d="M286 723h-30l160 144h45zM88 0v667h32v-637h335v-30h-367z" />
    <glyph glyph-name="lacute" unicode="&#x13a;" horiz-adv-x="202" 
d="M115 723h-30l160 144h45zM86 0v667h30v-667h-30z" />
    <glyph glyph-name="uni013B" unicode="&#x13b;" horiz-adv-x="499" 
d="M88 0v667h32v-637h335v-30h-367zM249 -258l-22 18q24 18 38.5 43.5t14.5 48.5l-8 -1q-14 0 -23 9.5t-9 23.5q0 13 9 22.5t23 9.5q16 0 27.5 -14t11.5 -39q0 -36 -18 -69.5t-44 -51.5z" />
    <glyph glyph-name="uni013C" unicode="&#x13c;" horiz-adv-x="202" 
d="M86 0v667h30v-667h-30zM78 -258l-22 18q24 18 38.5 43.5t14.5 48.5l-8 -1q-14 0 -23 9.5t-9 23.5q0 13 9 22.5t23 9.5q16 0 27.5 -14t11.5 -39q0 -36 -18 -69.5t-44 -51.5z" />
    <glyph glyph-name="Lcaron" unicode="&#x13d;" horiz-adv-x="499" 
d="M236 505l-22 18q24 18 38.5 43.5t14.5 48.5l-8 -1q-14 0 -23 9.5t-9 23.5q0 13 9 22.5t23 9.5q16 0 27.5 -14t11.5 -39q0 -36 -18 -69.5t-44 -51.5zM88 0v667h32v-637h335v-30h-367z" />
    <glyph glyph-name="lcaron" unicode="&#x13e;" horiz-adv-x="237" 
d="M182 506l-22 18q24 18 38.5 43.5t14.5 48.5l-8 -1q-14 0 -23 9.5t-9 23.5q0 13 9 22.5t23 9.5q16 0 27.5 -14t11.5 -39q0 -36 -18 -69.5t-44 -51.5zM86 0v667h30v-667h-30z" />
    <glyph glyph-name="Ldot" unicode="&#x13f;" horiz-adv-x="499" 
d="M88 0v667h32v-637h335v-30h-367zM345 309q-13 0 -23 9.5t-10 23.5q0 13 10 22.5t23 9.5t23 -9.5t10 -22.5q0 -14 -10 -23.5t-23 -9.5z" />
    <glyph glyph-name="ldot" unicode="&#x140;" horiz-adv-x="240" 
d="M86 0v667h30v-667h-30zM221 212q-13 0 -23 10t-10 23t10 22.5t23 9.5t23 -9.5t10 -22.5t-10 -23t-23 -10z" />
    <glyph glyph-name="Lslash" unicode="&#x141;" horiz-adv-x="523" 
d="M144 30h335v-30h-367v304l-100 -58v34l100 58v329h32v-310l114 66v-34l-114 -66v-293z" />
    <glyph glyph-name="lslash" unicode="&#x142;" horiz-adv-x="268" 
d="M256 420v-32l-107 -61v-327h-30v309l-107 -61v32l107 61v326h30v-308z" />
    <glyph glyph-name="Nacute" unicode="&#x143;" horiz-adv-x="690" 
d="M359 723h-30l160 144h45zM570 0l-450 615v-615h-32v667h32l450 -609v609h32v-667h-32z" />
    <glyph glyph-name="nacute" unicode="&#x144;" 
d="M278 556h-30l160 144h45zM412 0v337q0 72 -32 101.5t-93 29.5q-48 0 -96 -26.5t-75 -64.5v-377h-30v483h30v-76q29 35 78 61.5t97 26.5q75 0 113 -37.5t38 -120.5v-337h-30z" />
    <glyph glyph-name="uni0145" unicode="&#x145;" horiz-adv-x="690" 
d="M570 0l-450 615v-615h-32v667h32l450 -609v609h32v-667h-32zM309 -258l-22 18q24 18 38.5 43.5t14.5 48.5l-8 -1q-14 0 -23 9.5t-9 23.5q0 13 9 22.5t23 9.5q16 0 27.5 -14t11.5 -39q0 -36 -18 -69.5t-44 -51.5z" />
    <glyph glyph-name="uni0146" unicode="&#x146;" 
d="M412 0v337q0 72 -32 101.5t-93 29.5q-48 0 -96 -26.5t-75 -64.5v-377h-30v483h30v-76q29 35 78 61.5t97 26.5q75 0 113 -37.5t38 -120.5v-337h-30zM241 -258l-22 18q24 18 38.5 43.5t14.5 48.5l-8 -1q-14 0 -23 9.5t-9 23.5q0 13 9 22.5t23 9.5q16 0 27.5 -14t11.5 -39
q0 -36 -18 -69.5t-44 -51.5z" />
    <glyph glyph-name="Ncaron" unicode="&#x147;" horiz-adv-x="690" 
d="M327 723l-101 144h28l91 -120l88 120h28l-98 -144h-36zM570 0l-450 615v-615h-32v667h32l450 -609v609h32v-667h-32z" />
    <glyph glyph-name="ncaron" unicode="&#x148;" 
d="M246 556l-101 144h28l91 -120l88 120h28l-98 -144h-36zM412 0v337q0 72 -32 101.5t-93 29.5q-48 0 -96 -26.5t-75 -64.5v-377h-30v483h30v-76q29 35 78 61.5t97 26.5q75 0 113 -37.5t38 -120.5v-337h-30z" />
    <glyph glyph-name="napostrophe" unicode="&#x149;" 
d="M87 551l-22 18q24 18 38.5 43.5t14.5 48.5l-8 -1q-14 0 -23 9.5t-9 23.5q0 13 9 22.5t23 9.5q16 0 27.5 -14t11.5 -39q0 -36 -18 -69.5t-44 -51.5zM412 0v337q0 72 -32 101.5t-93 29.5q-48 0 -96 -26.5t-75 -64.5v-377h-30v483h30v-76q29 35 78 61.5t97 26.5
q75 0 113 -37.5t38 -120.5v-337h-30z" />
    <glyph glyph-name="Eng" unicode="&#x14a;" horiz-adv-x="690" 
d="M570 667h32v-669q0 -95 -54.5 -144.5t-137.5 -49.5q-107 0 -169 87l27 24q57 -81 142 -81q74 0 117 45t43 119v2l-450 615v-615h-32v667h32l450 -609v609z" />
    <glyph glyph-name="eng" unicode="&#x14b;" 
d="M442 -76q0 -60 -30.5 -90t-84.5 -30q-31 0 -55 10l10 27q20 -9 45 -9q85 0 85 92v413q0 72 -32 101.5t-93 29.5q-48 0 -96 -26.5t-75 -64.5v-377h-30v483h30v-76q29 35 78 61.5t97 26.5q75 0 113 -37.5t38 -120.5v-413z" />
    <glyph glyph-name="Omacron" unicode="&#x14c;" horiz-adv-x="764" 
d="M240 748v27h283v-27h-283zM65 333q0 148 87 246.5t230 98.5q142 0 229.5 -98.5t87.5 -246.5t-87.5 -246.5t-229.5 -98.5q-143 0 -230 98.5t-87 246.5zM664 333q0 139 -77.5 227t-204.5 88q-128 0 -205 -88t-77 -227q0 -138 77 -226.5t205 -88.5q127 0 204.5 88.5
t77.5 226.5z" />
    <glyph glyph-name="omacron" unicode="&#x14d;" horiz-adv-x="570" 
d="M143 581v27h283v-27h-283zM285 -12q-100 0 -162.5 72.5t-62.5 181.5q0 108 62.5 180.5t162.5 72.5q101 0 163 -72t62 -181t-62 -181.5t-163 -72.5zM285 15q89 0 140.5 66.5t51.5 160.5q0 93 -51.5 159.5t-140.5 66.5q-88 0 -140 -66.5t-52 -159.5q0 -94 52 -160.5
t140 -66.5z" />
    <glyph glyph-name="Obreve" unicode="&#x14e;" horiz-adv-x="764" 
d="M382 711q-109 0 -176 88l21 19q57 -80 155 -80t155 80l20 -19q-65 -88 -175 -88zM65 333q0 148 87 246.5t230 98.5q142 0 229.5 -98.5t87.5 -246.5t-87.5 -246.5t-229.5 -98.5q-143 0 -230 98.5t-87 246.5zM664 333q0 139 -77.5 227t-204.5 88q-128 0 -205 -88t-77 -227
q0 -138 77 -226.5t205 -88.5q127 0 204.5 88.5t77.5 226.5z" />
    <glyph glyph-name="obreve" unicode="&#x14f;" horiz-adv-x="570" 
d="M285 544q-109 0 -176 88l21 19q57 -80 155 -80t155 80l20 -19q-65 -88 -175 -88zM285 -12q-100 0 -162.5 72.5t-62.5 181.5q0 108 62.5 180.5t162.5 72.5q101 0 163 -72t62 -181t-62 -181.5t-163 -72.5zM285 15q89 0 140.5 66.5t51.5 160.5q0 93 -51.5 159.5t-140.5 66.5
q-88 0 -140 -66.5t-52 -159.5q0 -94 52 -160.5t140 -66.5z" />
    <glyph glyph-name="Ohungarumlaut" unicode="&#x150;" horiz-adv-x="764" 
d="M323 723h-26l100 144h41zM459 723h-26l100 144h41zM65 333q0 148 87 246.5t230 98.5q142 0 229.5 -98.5t87.5 -246.5t-87.5 -246.5t-229.5 -98.5q-143 0 -230 98.5t-87 246.5zM664 333q0 139 -77.5 227t-204.5 88q-128 0 -205 -88t-77 -227q0 -138 77 -226.5t205 -88.5
q127 0 204.5 88.5t77.5 226.5z" />
    <glyph glyph-name="ohungarumlaut" unicode="&#x151;" horiz-adv-x="570" 
d="M226 556h-26l100 144h41zM362 556h-26l100 144h41zM285 -12q-100 0 -162.5 72.5t-62.5 181.5q0 108 62.5 180.5t162.5 72.5q101 0 163 -72t62 -181t-62 -181.5t-163 -72.5zM285 15q89 0 140.5 66.5t51.5 160.5q0 93 -51.5 159.5t-140.5 66.5q-88 0 -140 -66.5t-52 -159.5
q0 -94 52 -160.5t140 -66.5z" />
    <glyph glyph-name="OE" unicode="&#x152;" horiz-adv-x="1124" 
d="M651 0v157q-39 -81 -111 -125t-158 -44q-143 0 -230 98.5t-87 246.5t87 246t230 98q86 0 158 -43.5t111 -123.5v157h408v-30h-376v-279h369v-30h-369v-298h376v-30h-408zM651 449q-34 98 -104.5 148t-164.5 50q-128 0 -205 -87.5t-77 -226.5t77 -227t205 -88q93 0 164 51
t105 149v231z" />
    <glyph glyph-name="oe" unicode="&#x153;" horiz-adv-x="988" 
d="M511 232q2 -92 57.5 -154.5t145.5 -62.5q100 0 168 73l18 -19q-78 -81 -186 -81q-50 0 -90.5 16.5t-66 42.5t-41 52.5t-22.5 52.5q-8 -26 -21.5 -51t-37.5 -52t-63 -44t-87 -17q-100 0 -162.5 72.5t-62.5 181.5q0 108 62.5 180.5t162.5 72.5q48 0 88 -17t64 -44.5
t37.5 -53t19.5 -49.5q7 25 22 51t39.5 52.5t63.5 43.5t85 17q106 0 165 -73t59 -180v-10h-417zM285 468q-88 0 -140 -66.5t-52 -159.5q0 -94 52 -161t140 -67q89 0 140.5 67t51.5 161q0 93 -51.5 159.5t-140.5 66.5zM896 259q0 49 -20 95.5t-65.5 80t-107.5 33.5
q-87 0 -138 -64.5t-54 -144.5h385z" />
    <glyph glyph-name="Racute" unicode="&#x154;" horiz-adv-x="579" 
d="M308 723h-30l160 144h45zM483 0l-203 288h-160v-288h-32v667h230q85 0 141 -50.5t56 -138.5t-56.5 -139t-140.5 -51l206 -288h-41zM480 478q0 70 -44.5 114.5t-117.5 44.5h-198v-319h198q73 0 117.5 45t44.5 115z" />
    <glyph glyph-name="racute" unicode="&#x155;" horiz-adv-x="304" 
d="M199 556h-30l160 144h45zM86 0v483h30v-88q73 97 166 97v-36q-9 1 -24 1q-37 0 -81 -30t-61 -65v-362h-30z" />
    <glyph glyph-name="uni0156" unicode="&#x156;" horiz-adv-x="579" 
d="M483 0l-203 288h-160v-288h-32v667h230q85 0 141 -50.5t56 -138.5t-56.5 -139t-140.5 -51l206 -288h-41zM480 478q0 70 -44.5 114.5t-117.5 44.5h-198v-319h198q73 0 117.5 45t44.5 115zM271 -258l-22 18q24 18 38.5 43.5t14.5 48.5l-8 -1q-14 0 -23 9.5t-9 23.5
q0 13 9 22.5t23 9.5q16 0 27.5 -14t11.5 -39q0 -36 -18 -69.5t-44 -51.5z" />
    <glyph glyph-name="uni0157" unicode="&#x157;" horiz-adv-x="304" 
d="M86 0v483h30v-88q73 97 166 97v-36q-9 1 -24 1q-37 0 -81 -30t-61 -65v-362h-30zM78 -258l-22 18q24 18 38.5 43.5t14.5 48.5l-8 -1q-14 0 -23 9.5t-9 23.5q0 13 9 22.5t23 9.5q16 0 27.5 -14t11.5 -39q0 -36 -18 -69.5t-44 -51.5z" />
    <glyph glyph-name="Rcaron" unicode="&#x158;" horiz-adv-x="579" 
d="M276 723l-101 144h28l91 -120l88 120h28l-98 -144h-36zM483 0l-203 288h-160v-288h-32v667h230q85 0 141 -50.5t56 -138.5t-56.5 -139t-140.5 -51l206 -288h-41zM480 478q0 70 -44.5 114.5t-117.5 44.5h-198v-319h198q73 0 117.5 45t44.5 115z" />
    <glyph glyph-name="rcaron" unicode="&#x159;" horiz-adv-x="304" 
d="M167 556l-101 144h28l91 -120l88 120h28l-98 -144h-36zM86 0v483h30v-88q73 97 166 97v-36q-9 1 -24 1q-37 0 -81 -30t-61 -65v-362h-30z" />
    <glyph glyph-name="Sacute" unicode="&#x15a;" horiz-adv-x="575" 
d="M297 723h-30l160 144h45zM53 94l26 23q81 -99 207 -99q55 0 95 14.5t60 38t29 48t9 50.5q0 31 -12 56t-27.5 40.5t-45.5 29.5t-51.5 21t-59.5 18q-42 12 -62.5 18.5t-54 21.5t-50 31t-29.5 43t-13 60q0 78 61 124t148 46q140 0 216 -94l-25 -23q-67 87 -191 87
q-74 0 -124 -39.5t-50 -100.5q0 -26 11.5 -47t25 -34t43.5 -25.5t48.5 -18.5t56.5 -17q42 -12 65 -20t57.5 -24.5t52 -35t31.5 -49t14 -68.5q0 -31 -11 -60.5t-35 -58t-71 -45.5t-111 -17q-75 0 -135 29t-98 77z" />
    <glyph glyph-name="sacute" unicode="&#x15b;" horiz-adv-x="454" 
d="M232 556h-30l160 144h45zM44 65l24 22q54 -72 153 -72q65 0 104 31.5t39 80.5q0 25 -11 43.5t-36 31.5t-43.5 19t-55.5 16q-33 9 -49 13.5t-42.5 16t-39 23t-23 32t-10.5 45.5q0 55 44 91.5t120 36.5q109 0 166 -73l-22 -20q-46 66 -144 66q-62 0 -98 -28.5t-36 -72.5
q0 -18 8.5 -32.5t18 -23.5t33 -18t35.5 -12.5t43 -11.5q33 -8 50.5 -13.5t44.5 -17.5t41 -25t25 -35.5t11 -50.5q0 -60 -44.5 -99.5t-128.5 -39.5q-110 0 -177 77z" />
    <glyph glyph-name="Scircumflex" unicode="&#x15c;" horiz-adv-x="575" 
d="M374 723l-91 120l-88 -120h-28l98 144h36l101 -144h-28zM53 94l26 23q81 -99 207 -99q55 0 95 14.5t60 38t29 48t9 50.5q0 31 -12 56t-27.5 40.5t-45.5 29.5t-51.5 21t-59.5 18q-42 12 -62.5 18.5t-54 21.5t-50 31t-29.5 43t-13 60q0 78 61 124t148 46q140 0 216 -94
l-25 -23q-67 87 -191 87q-74 0 -124 -39.5t-50 -100.5q0 -26 11.5 -47t25 -34t43.5 -25.5t48.5 -18.5t56.5 -17q42 -12 65 -20t57.5 -24.5t52 -35t31.5 -49t14 -68.5q0 -31 -11 -60.5t-35 -58t-71 -45.5t-111 -17q-75 0 -135 29t-98 77z" />
    <glyph glyph-name="scircumflex" unicode="&#x15d;" horiz-adv-x="454" 
d="M309 556l-91 120l-88 -120h-28l98 144h36l101 -144h-28zM44 65l24 22q54 -72 153 -72q65 0 104 31.5t39 80.5q0 25 -11 43.5t-36 31.5t-43.5 19t-55.5 16q-33 9 -49 13.5t-42.5 16t-39 23t-23 32t-10.5 45.5q0 55 44 91.5t120 36.5q109 0 166 -73l-22 -20q-46 66 -144 66
q-62 0 -98 -28.5t-36 -72.5q0 -18 8.5 -32.5t18 -23.5t33 -18t35.5 -12.5t43 -11.5q33 -8 50.5 -13.5t44.5 -17.5t41 -25t25 -35.5t11 -50.5q0 -60 -44.5 -99.5t-128.5 -39.5q-110 0 -177 77z" />
    <glyph glyph-name="uni015E" unicode="&#x15e;" horiz-adv-x="575" 
d="M514 169q0 -30 -10.5 -59t-33.5 -56.5t-67.5 -45.5t-105.5 -20l-17 -46q15 12 38 12q29 0 47 -17t18 -45q0 -35 -28 -57t-70 -22q-58 0 -93 28l14 27q32 -28 79 -28q29 0 49 14t20 38q0 40 -44 40q-27 0 -43 -19l-22 13l23 62q-137 7 -215 106l26 23q81 -99 207 -99
q55 0 95 14.5t60 38t29 48t9 50.5q0 31 -12 56t-27.5 40.5t-45.5 29.5t-51.5 21t-59.5 18q-42 12 -62.5 18.5t-54 21.5t-50 31t-29.5 43t-13 60q0 78 61 124t148 46q140 0 216 -94l-25 -23q-67 87 -191 87q-74 0 -124 -39.5t-50 -100.5q0 -26 11.5 -47t25 -34t43.5 -25.5
t48.5 -18.5t56.5 -17q42 -12 65 -20t57.5 -24.5t52 -35t31.5 -49t14 -68.5z" />
    <glyph glyph-name="uni015F" unicode="&#x15f;" horiz-adv-x="454" 
d="M394 127q0 -58 -41.5 -97t-120.5 -42l-17 -46q15 12 38 12q29 0 47 -17t18 -45q0 -35 -28 -57t-70 -22q-58 0 -93 28l14 27q32 -28 79 -28q29 0 49 14t20 38q0 40 -44 40q-27 0 -43 -19l-22 13l23 62q-96 6 -159 77l24 22q54 -72 153 -72q65 0 104 31.5t39 80.5
q0 25 -11 43.5t-36 31.5t-43.5 19t-55.5 16q-33 9 -49 13.5t-42.5 16t-39 23t-23 32t-10.5 45.5q0 55 44 91.5t120 36.5q109 0 166 -73l-22 -20q-46 66 -144 66q-62 0 -98 -28.5t-36 -72.5q0 -18 8.5 -32.5t18 -23.5t33 -18t35.5 -12.5t43 -11.5q33 -8 50.5 -13.5
t44.5 -17.5t41 -25t25 -35.5t11 -50.5z" />
    <glyph glyph-name="Scaron" unicode="&#x160;" horiz-adv-x="575" 
d="M265 723l-101 144h28l91 -120l88 120h28l-98 -144h-36zM53 94l26 23q81 -99 207 -99q55 0 95 14.5t60 38t29 48t9 50.5q0 31 -12 56t-27.5 40.5t-45.5 29.5t-51.5 21t-59.5 18q-42 12 -62.5 18.5t-54 21.5t-50 31t-29.5 43t-13 60q0 78 61 124t148 46q140 0 216 -94
l-25 -23q-67 87 -191 87q-74 0 -124 -39.5t-50 -100.5q0 -26 11.5 -47t25 -34t43.5 -25.5t48.5 -18.5t56.5 -17q42 -12 65 -20t57.5 -24.5t52 -35t31.5 -49t14 -68.5q0 -31 -11 -60.5t-35 -58t-71 -45.5t-111 -17q-75 0 -135 29t-98 77z" />
    <glyph glyph-name="scaron" unicode="&#x161;" horiz-adv-x="454" 
d="M200 556l-101 144h28l91 -120l88 120h28l-98 -144h-36zM44 65l24 22q54 -72 153 -72q65 0 104 31.5t39 80.5q0 25 -11 43.5t-36 31.5t-43.5 19t-55.5 16q-33 9 -49 13.5t-42.5 16t-39 23t-23 32t-10.5 45.5q0 55 44 91.5t120 36.5q109 0 166 -73l-22 -20q-46 66 -144 66
q-62 0 -98 -28.5t-36 -72.5q0 -18 8.5 -32.5t18 -23.5t33 -18t35.5 -12.5t43 -11.5q33 -8 50.5 -13.5t44.5 -17.5t41 -25t25 -35.5t11 -50.5q0 -60 -44.5 -99.5t-128.5 -39.5q-110 0 -177 77z" />
    <glyph glyph-name="uni0162" unicode="&#x162;" horiz-adv-x="559" 
d="M263 0v637h-225v30h483v-30h-226v-637h-32zM257 -258l-22 18q24 18 38.5 43.5t14.5 48.5l-8 -1q-14 0 -23 9.5t-9 23.5q0 13 9 22.5t23 9.5q16 0 27.5 -14t11.5 -39q0 -36 -18 -69.5t-44 -51.5z" />
    <glyph glyph-name="uni0163" unicode="&#x163;" horiz-adv-x="256" 
d="M174 -12q-82 0 -82 97v371h-80v27h80v132h30v-132h98v-27h-98v-371q0 -70 52 -70q35 0 57 26l18 -23q-32 -30 -75 -30zM111 -258l-22 18q24 18 38.5 43.5t14.5 48.5l-8 -1q-14 0 -23 9.5t-9 23.5q0 13 9 22.5t23 9.5q16 0 27.5 -14t11.5 -39q0 -36 -18 -69.5t-44 -51.5z
" />
    <glyph glyph-name="Tcaron" unicode="&#x164;" horiz-adv-x="559" 
d="M262 723l-101 144h28l91 -120l88 120h28l-98 -144h-36zM263 0v637h-225v30h483v-30h-226v-637h-32z" />
    <glyph glyph-name="tcaron" unicode="&#x165;" horiz-adv-x="256" 
d="M198 551l-22 18q24 18 38.5 43.5t14.5 48.5l-8 -1q-14 0 -23 9.5t-9 23.5q0 13 9 22.5t23 9.5q16 0 27.5 -14t11.5 -39q0 -36 -18 -69.5t-44 -51.5zM174 -12q-82 0 -82 97v371h-80v27h80v132h30v-132h98v-27h-98v-371q0 -70 52 -70q35 0 57 26l18 -23q-32 -30 -75 -30z
" />
    <glyph glyph-name="Tbar" unicode="&#x166;" horiz-adv-x="559" 
d="M521 637h-226v-289h166v-27h-166v-321h-32v321h-165v27h165v289h-225v30h483v-30z" />
    <glyph glyph-name="tbar" unicode="&#x167;" horiz-adv-x="256" 
d="M231 41l18 -23q-32 -30 -75 -30q-82 0 -82 97v157h-80v27h80v187h-80v27h80v132h30v-132h98v-27h-98v-187h72v-27h-72v-157q0 -70 52 -70q35 0 57 26z" />
    <glyph glyph-name="Utilde" unicode="&#x168;" horiz-adv-x="672" 
d="M324 784q-9 17 -14.5 25.5t-16 16.5t-22.5 8q-26 0 -42.5 -26.5t-16.5 -80.5h-26q0 57 23.5 95.5t64.5 38.5q15 0 26.5 -5t21 -16t14.5 -19t13 -23q9 -17 14.5 -25.5t16 -16.5t22.5 -8q26 0 42.5 26.5t16.5 80.5h26q0 -57 -23.5 -95.5t-64.5 -38.5q-20 0 -35.5 11t-22 21
t-17.5 31zM88 253v414h32v-414q0 -112 56 -173.5t160 -61.5t160 61.5t56 173.5v414h32v-414q0 -125 -64 -195t-184 -70t-184 70t-64 195z" />
    <glyph glyph-name="utilde" unicode="&#x169;" 
d="M252 617q-9 17 -14.5 25.5t-16 16.5t-22.5 8q-26 0 -42.5 -26.5t-16.5 -80.5h-26q0 57 23.5 95.5t64.5 38.5q15 0 26.5 -5t21 -16t14.5 -19t13 -23q9 -17 14.5 -25.5t16 -16.5t22.5 -8q26 0 42.5 26.5t16.5 80.5h26q0 -57 -23.5 -95.5t-64.5 -38.5q-20 0 -35.5 11t-22 21
t-17.5 31zM412 0v74q-33 -37 -80 -61.5t-95 -24.5q-75 0 -113 36.5t-38 119.5v339h30v-339q0 -72 32 -100.5t93 -28.5q48 0 96.5 25.5t74.5 62.5v380h30v-483h-30z" />
    <glyph glyph-name="Umacron" unicode="&#x16a;" horiz-adv-x="672" 
d="M194 748v27h283v-27h-283zM88 253v414h32v-414q0 -112 56 -173.5t160 -61.5t160 61.5t56 173.5v414h32v-414q0 -125 -64 -195t-184 -70t-184 70t-64 195z" />
    <glyph glyph-name="umacron" unicode="&#x16b;" 
d="M122 581v27h283v-27h-283zM412 0v74q-33 -37 -80 -61.5t-95 -24.5q-75 0 -113 36.5t-38 119.5v339h30v-339q0 -72 32 -100.5t93 -28.5q48 0 96.5 25.5t74.5 62.5v380h30v-483h-30z" />
    <glyph glyph-name="Ubreve" unicode="&#x16c;" horiz-adv-x="672" 
d="M336 711q-109 0 -176 88l21 19q57 -80 155 -80t155 80l20 -19q-65 -88 -175 -88zM88 253v414h32v-414q0 -112 56 -173.5t160 -61.5t160 61.5t56 173.5v414h32v-414q0 -125 -64 -195t-184 -70t-184 70t-64 195z" />
    <glyph glyph-name="ubreve" unicode="&#x16d;" 
d="M264 544q-109 0 -176 88l21 19q57 -80 155 -80t155 80l20 -19q-65 -88 -175 -88zM412 0v74q-33 -37 -80 -61.5t-95 -24.5q-75 0 -113 36.5t-38 119.5v339h30v-339q0 -72 32 -100.5t93 -28.5q48 0 96.5 25.5t74.5 62.5v380h30v-483h-30z" />
    <glyph glyph-name="Uring" unicode="&#x16e;" horiz-adv-x="672" 
d="M243 813q0 38 27.5 65.5t65.5 27.5t65 -27.5t27 -65.5t-27 -65.5t-65 -27.5t-65.5 27.5t-27.5 65.5zM404 813q0 29 -20 49t-48 20t-48.5 -20t-20.5 -49t20.5 -49t48.5 -20t48 20t20 49zM88 253v414h32v-414q0 -112 56 -173.5t160 -61.5t160 61.5t56 173.5v414h32v-414
q0 -125 -64 -195t-184 -70t-184 70t-64 195z" />
    <glyph glyph-name="uring" unicode="&#x16f;" 
d="M171 646q0 38 27.5 65.5t65.5 27.5t65 -27.5t27 -65.5t-27 -65.5t-65 -27.5t-65.5 27.5t-27.5 65.5zM332 646q0 29 -20 49t-48 20t-48.5 -20.5t-20.5 -48.5t20.5 -48.5t48.5 -20.5t48 20t20 49zM412 0v74q-33 -37 -80 -61.5t-95 -24.5q-75 0 -113 36.5t-38 119.5v339h30
v-339q0 -72 32 -100.5t93 -28.5q48 0 96.5 25.5t74.5 62.5v380h30v-483h-30z" />
    <glyph glyph-name="Uhungarumlaut" unicode="&#x170;" horiz-adv-x="672" 
d="M277 723h-26l100 144h41zM413 723h-26l100 144h41zM88 253v414h32v-414q0 -112 56 -173.5t160 -61.5t160 61.5t56 173.5v414h32v-414q0 -125 -64 -195t-184 -70t-184 70t-64 195z" />
    <glyph glyph-name="uhungarumlaut" unicode="&#x171;" 
d="M205 556h-26l100 144h41zM341 556h-26l100 144h41zM412 0v74q-33 -37 -80 -61.5t-95 -24.5q-75 0 -113 36.5t-38 119.5v339h30v-339q0 -72 32 -100.5t93 -28.5q48 0 96.5 25.5t74.5 62.5v380h30v-483h-30z" />
    <glyph glyph-name="Uogonek" unicode="&#x172;" horiz-adv-x="672" 
d="M88 253v414h32v-414q0 -112 56 -173.5t160 -61.5t160 61.5t56 173.5v414h32v-414q0 -190 -141 -247q-122 -50 -122 -115q0 -23 14 -36.5t38 -13.5q22 0 37 11l13 -22q-21 -16 -50 -16q-35 0 -60.5 19.5t-25.5 52.5q0 55 77 103q-9 -1 -28 -1q-120 0 -184 70t-64 195z" />
    <glyph glyph-name="uogonek" unicode="&#x173;" 
d="M442 0q-102 -54 -102 -109q0 -23 14 -36.5t38 -13.5q22 0 37 11l13 -22q-21 -16 -50 -16q-35 0 -60.5 19.5t-25.5 52.5t29.5 64.5t76.5 54.5v69q-33 -37 -80 -61.5t-95 -24.5q-75 0 -113 36.5t-38 119.5v339h30v-339q0 -72 32 -100.5t93 -28.5q48 0 96.5 25.5t74.5 62.5
v380h30v-483z" />
    <glyph glyph-name="Wcircumflex" unicode="&#x174;" horiz-adv-x="852" 
d="M517 723l-91 120l-88 -120h-28l98 144h36l101 -144h-28zM599 0l-173 607l-173 -607h-38l-190 667h35l174 -619l175 619h34l175 -619l174 619h35l-190 -667h-38z" />
    <glyph glyph-name="wcircumflex" unicode="&#x175;" horiz-adv-x="704" 
d="M443 556l-91 120l-88 -120h-28l98 144h36l101 -144h-28zM498 0l-146 438l-146 -438h-24l-160 483h33l140 -436l145 436h24l145 -436l140 436h33l-160 -483h-24z" />
    <glyph glyph-name="Ycircumflex" unicode="&#x176;" horiz-adv-x="610" 
d="M396 723l-91 120l-88 -120h-28l98 144h36l101 -144h-28zM289 0v289l-268 378h41l243 -346l243 346h41l-268 -378v-289h-32z" />
    <glyph glyph-name="ycircumflex" unicode="&#x177;" horiz-adv-x="471" 
d="M327 556l-91 120l-88 -120h-28l98 144h36l101 -144h-28zM56 -161q18 -8 42 -8q25 0 42.5 14.5t33.5 51.5l44 100l-207 486h35l190 -448l189 448h35l-256 -597q-36 -82 -106 -82q-27 0 -48 7z" />
    <glyph glyph-name="Ydieresis" unicode="&#x178;" horiz-adv-x="610" 
d="M204 737q-11 0 -19.5 8.5t-8.5 19.5t8.5 19.5t19.5 8.5t19.5 -8.5t8.5 -19.5t-8.5 -19.5t-19.5 -8.5zM406 737q-11 0 -19.5 8.5t-8.5 19.5t8.5 19.5t19.5 8.5t19.5 -8.5t8.5 -19.5t-8.5 -19.5t-19.5 -8.5zM289 0v289l-268 378h41l243 -346l243 346h41l-268 -378v-289h-32
z" />
    <glyph glyph-name="Zacute" unicode="&#x179;" horiz-adv-x="578" 
d="M303 723h-30l160 144h45zM53 0v30l427 607h-427v30h465v-30l-428 -607h435v-30h-472z" />
    <glyph glyph-name="zacute" unicode="&#x17a;" horiz-adv-x="466" 
d="M247 556h-30l160 144h45zM60 0v27l307 429h-307v27h342v-27l-309 -429h313v-27h-346z" />
    <glyph glyph-name="Zdotaccent" unicode="&#x17b;" horiz-adv-x="578" 
d="M260 762q0 12 9 20.5t20 8.5q12 0 20.5 -8.5t8.5 -20.5t-8.5 -20.5t-20.5 -8.5q-11 0 -20 8.5t-9 20.5zM53 0v30l427 607h-427v30h465v-30l-428 -607h435v-30h-472z" />
    <glyph glyph-name="zdotaccent" unicode="&#x17c;" horiz-adv-x="466" 
d="M204 595q0 12 9 20.5t20 8.5q12 0 20.5 -8.5t8.5 -20.5t-8.5 -20.5t-20.5 -8.5q-11 0 -20 8.5t-9 20.5zM60 0v27l307 429h-307v27h342v-27l-309 -429h313v-27h-346z" />
    <glyph glyph-name="Zcaron" unicode="&#x17d;" horiz-adv-x="578" 
d="M271 723l-101 144h28l91 -120l88 120h28l-98 -144h-36zM53 0v30l427 607h-427v30h465v-30l-428 -607h435v-30h-472z" />
    <glyph glyph-name="zcaron" unicode="&#x17e;" horiz-adv-x="466" 
d="M215 556l-101 144h28l91 -120l88 120h28l-98 -144h-36zM60 0v27l307 429h-307v27h342v-27l-309 -429h313v-27h-346z" />
    <glyph glyph-name="longs" unicode="&#x17f;" horiz-adv-x="246" 
d="M100 0v456h-80v27h80v51q0 67 32 105t89 38q35 0 57 -13l-13 -26q-21 12 -44 12q-91 0 -91 -116v-534h-30z" />
    <glyph glyph-name="uni018F" unicode="&#x18f;" horiz-adv-x="749" 
d="M351 678q141 0 237 -97t96 -248q0 -153 -91.5 -249.5t-231.5 -96.5q-146 0 -228.5 97.5t-82.5 255.5h599q-2 136 -87 222t-211 86q-66 0 -125 -25t-98 -70l-21 22q100 103 244 103zM361 17q120 0 200 81.5t87 211.5h-565q8 -129 80.5 -211t197.5 -82z" />
    <glyph glyph-name="uni0192" unicode="&#x192;" horiz-adv-x="412" 
d="M40 -161l95 428h-80v30h86l53 237q15 67 55.5 105t97.5 38q46 0 75 -30l-23 -24q-19 24 -52 24q-45 0 -77.5 -30t-43.5 -83l-53 -237h162v-30h-168l-95 -428h-32z" />
    <glyph glyph-name="Ohorn" unicode="&#x1a0;" horiz-adv-x="764" 
d="M700 663q0 -35 -17.5 -68t-42.5 -52q59 -90 59 -210q0 -148 -87.5 -246.5t-229.5 -98.5q-143 0 -230 98.5t-87 246.5t87 246.5t230 98.5q152 0 241 -112q46 39 46 86l-8 -1q-14 0 -23 9.5t-9 23.5q0 13 9 22.5t23 9.5q16 0 27.5 -14t11.5 -39zM382 18q127 0 204.5 88.5
t77.5 226.5q0 139 -77.5 227t-204.5 88q-128 0 -205 -88t-77 -227q0 -138 77 -226.5t205 -88.5z" />
    <glyph glyph-name="ohorn" unicode="&#x1a1;" horiz-adv-x="570" 
d="M454 416q56 -70 56 -174q0 -109 -62 -181.5t-163 -72.5q-100 0 -162.5 72.5t-62.5 181.5q0 108 62.5 180.5t162.5 72.5q89 0 150 -58q40 38 40 81l-8 -1q-14 0 -23 9.5t-9 23.5q0 13 9 22.5t23 9.5q16 0 27.5 -14t11.5 -39q0 -67 -52 -113zM285 15q89 0 140.5 66.5
t51.5 160.5q0 93 -51.5 159.5t-140.5 66.5q-88 0 -140 -66.5t-52 -159.5q0 -94 52 -160.5t140 -66.5z" />
    <glyph glyph-name="Uhorn" unicode="&#x1af;" horiz-adv-x="672" 
d="M704 730q0 -51 -33 -92.5t-87 -59.5v-325q0 -125 -64 -195t-184 -70t-184 70t-64 195v414h32v-414q0 -112 56 -173.5t160 -61.5t160 61.5t56 173.5v414h32v-61q38 17 63.5 48.5t25.5 64.5l-8 -1q-14 0 -23 9.5t-9 23.5q0 13 9 22.5t23 9.5q16 0 27.5 -14t11.5 -39z" />
    <glyph glyph-name="uhorn" unicode="&#x1b0;" 
d="M545 529q0 -46 -28 -85.5t-75 -59.5v-384h-30v74q-33 -37 -80 -61.5t-95 -24.5q-75 0 -113 36.5t-38 119.5v339h30v-339q0 -72 32 -100.5t93 -28.5q48 0 96.5 25.5t74.5 62.5v380h30v-69q32 18 52 46.5t20 57.5l-8 -1q-14 0 -23 9.5t-9 23.5q0 13 9 22.5t23 9.5
q16 0 27.5 -14t11.5 -39z" />
    <glyph glyph-name="AEacute" unicode="&#x1fc;" horiz-adv-x="930" 
d="M486 723h-30l160 144h45zM457 0v179h-286l-113 -179h-37l425 667h419v-30h-376v-279h369v-30h-369v-298h376v-30h-408zM457 630l-269 -421h269v421z" />
    <glyph glyph-name="aeacute" unicode="&#x1fd;" horiz-adv-x="905" 
d="M455 556h-30l160 144h45zM454 232q3 -92 54 -154.5t134 -62.5q93 0 157 73l18 -19q-71 -81 -174 -81q-68 0 -120.5 37t-77.5 105q-21 -65 -72.5 -103.5t-119.5 -38.5q-84 0 -137.5 43.5t-53.5 118.5q0 74 52.5 117t127.5 43q112 0 182 -69v107q0 57 -40 88.5t-108 31.5
q-100 0 -169 -76l-23 20q71 83 200 83q61 0 111 -29.5t57 -94.5q23 54 72.5 89t108.5 35q101 0 156.5 -73t55.5 -180v-10h-391zM813 259q0 81 -46 145t-134 64q-80 0 -128 -64.5t-51 -144.5h359zM424 207q-61 76 -172 76q-71 0 -114 -38.5t-43 -95.5t43 -95.5t114 -38.5
q78 0 125 51t47 122v19z" />
    <glyph glyph-name="Oslashacute" unicode="&#x1fe;" horiz-adv-x="764" 
d="M536 867l-175 -144h-30l160 144h45zM570 618q61 -46 95 -121t34 -164q0 -148 -87.5 -246.5t-229.5 -98.5q-90 0 -163 43l-18 -31h-36l29 48q-61 46 -95 121t-34 164q0 148 87 246.5t230 98.5q91 0 162 -43l19 32h36zM100 333q0 -170 110 -258l318 534q-64 39 -146 39
q-128 0 -205 -88t-77 -227zM382 18q127 0 204.5 88.5t77.5 226.5q0 170 -110 258l-319 -534q64 -39 147 -39z" />
    <glyph glyph-name="oslashacute" unicode="&#x1ff;" horiz-adv-x="570" 
d="M474 700l-175 -144h-30l160 144h45zM438 433q72 -72 72 -191q0 -109 -62 -181.5t-163 -72.5q-81 0 -139 50l-28 -38h-34l42 57q-66 72 -66 185q0 108 62.5 180.5t162.5 72.5q76 0 133 -44l24 32h33zM93 242q0 -96 52 -160l256 345q-49 41 -116 41q-88 0 -140 -66.5
t-52 -159.5zM285 15q89 0 140.5 66.5t51.5 160.5q0 101 -57 166l-256 -346q50 -47 121 -47z" />
    <glyph glyph-name="uni0218" unicode="&#x218;" horiz-adv-x="575" 
d="M53 94l26 23q81 -99 207 -99q55 0 95 14.5t60 38t29 48t9 50.5q0 31 -12 56t-27.5 40.5t-45.5 29.5t-51.5 21t-59.5 18q-42 12 -62.5 18.5t-54 21.5t-50 31t-29.5 43t-13 60q0 78 61 124t148 46q140 0 216 -94l-25 -23q-67 87 -191 87q-74 0 -124 -39.5t-50 -100.5
q0 -26 11.5 -47t25 -34t43.5 -25.5t48.5 -18.5t56.5 -17q42 -12 65 -20t57.5 -24.5t52 -35t31.5 -49t14 -68.5q0 -31 -11 -60.5t-35 -58t-71 -45.5t-111 -17q-75 0 -135 29t-98 77zM260 -258l-22 18q24 18 38.5 43.5t14.5 48.5l-8 -1q-14 0 -23 9.5t-9 23.5q0 13 9 22.5
t23 9.5q16 0 27.5 -14t11.5 -39q0 -36 -18 -69.5t-44 -51.5z" />
    <glyph glyph-name="uni0219" unicode="&#x219;" horiz-adv-x="454" 
d="M44 65l24 22q54 -72 153 -72q65 0 104 31.5t39 80.5q0 25 -11 43.5t-36 31.5t-43.5 19t-55.5 16q-33 9 -49 13.5t-42.5 16t-39 23t-23 32t-10.5 45.5q0 55 44 91.5t120 36.5q109 0 166 -73l-22 -20q-46 66 -144 66q-62 0 -98 -28.5t-36 -72.5q0 -18 8.5 -32.5t18 -23.5
t33 -18t35.5 -12.5t43 -11.5q33 -8 50.5 -13.5t44.5 -17.5t41 -25t25 -35.5t11 -50.5q0 -60 -44.5 -99.5t-128.5 -39.5q-110 0 -177 77zM195 -258l-22 18q24 18 38.5 43.5t14.5 48.5l-8 -1q-14 0 -23 9.5t-9 23.5q0 13 9 22.5t23 9.5q16 0 27.5 -14t11.5 -39
q0 -36 -18 -69.5t-44 -51.5z" />
    <glyph glyph-name="uni021A" unicode="&#x21a;" horiz-adv-x="559" 
d="M263 0v637h-225v30h483v-30h-226v-637h-32zM257 -258l-22 18q24 18 38.5 43.5t14.5 48.5l-8 -1q-14 0 -23 9.5t-9 23.5q0 13 9 22.5t23 9.5q16 0 27.5 -14t11.5 -39q0 -36 -18 -69.5t-44 -51.5z" />
    <glyph glyph-name="uni021B" unicode="&#x21b;" horiz-adv-x="256" 
d="M174 -12q-82 0 -82 97v371h-80v27h80v132h30v-132h98v-27h-98v-371q0 -70 52 -70q35 0 57 26l18 -23q-32 -30 -75 -30zM111 -258l-22 18q24 18 38.5 43.5t14.5 48.5l-8 -1q-14 0 -23 9.5t-9 23.5q0 13 9 22.5t23 9.5q16 0 27.5 -14t11.5 -39q0 -36 -18 -69.5t-44 -51.5z
" />
    <glyph glyph-name="uni0237" unicode="&#x237;" horiz-adv-x="202" 
d="M-54 -186l10 27q19 -9 45 -9q85 0 85 92v559h30v-559q0 -60 -30.5 -90t-84.5 -30q-31 0 -55 10z" />
    <glyph glyph-name="uni0259" unicode="&#x259;" horiz-adv-x="571" 
d="M511 241q0 -106 -65 -179.5t-162 -73.5q-106 0 -165 73t-59 180v10h417q-2 92 -57.5 154.5t-145.5 62.5q-100 0 -168 -73l-18 19q78 81 186 81q105 0 171 -71.5t66 -182.5zM285 15q87 0 138 64.5t54 144.5h-385q0 -49 20 -95.5t65.5 -80t107.5 -33.5z" />
    <glyph glyph-name="uni02B0" unicode="&#x2b0;" horiz-adv-x="387" 
d="M290 326v214q0 47 -21 66t-61 19q-31 0 -62 -17t-49 -40v-242h-28v434h28v-169q20 23 52.5 40t65.5 17q51 0 77 -25.5t26 -83.5v-213h-28z" />
    <glyph glyph-name="uni02BC" unicode="&#x2bc;" horiz-adv-x="208" 
d="M80 503l-22 18q24 18 38.5 43.5t14.5 48.5l-8 -1q-14 0 -23 9.5t-9 23.5q0 13 9 22.5t23 9.5q16 0 27.5 -14t11.5 -39q0 -36 -18 -69.5t-44 -51.5z" />
    <glyph glyph-name="circumflex" unicode="&#x2c6;" horiz-adv-x="235" 
d="M207 556l-91 120l-88 -120h-28l98 144h36l101 -144h-28z" />
    <glyph glyph-name="caron" unicode="&#x2c7;" horiz-adv-x="235" 
d="M101 556l-101 144h28l91 -120l88 120h28l-98 -144h-36z" />
    <glyph glyph-name="uni02C9" unicode="&#x2c9;" horiz-adv-x="363" 
d="M40 591v27h283v-27h-283z" />
    <glyph glyph-name="uni02CB" unicode="&#x2cb;" horiz-adv-x="205" 
d="M175 556l-175 144h45l160 -144h-30z" />
    <glyph glyph-name="breve" unicode="&#x2d8;" horiz-adv-x="351" 
d="M176 544q-109 0 -176 88l21 19q57 -80 155 -80t155 80l20 -19q-65 -88 -175 -88z" />
    <glyph glyph-name="dotaccent" unicode="&#x2d9;" horiz-adv-x="98" 
d="M20 595q0 12 9 20.5t20 8.5q12 0 20.5 -8.5t8.5 -20.5t-8.5 -20.5t-20.5 -8.5q-11 0 -20 8.5t-9 20.5z" />
    <glyph glyph-name="ring" unicode="&#x2da;" horiz-adv-x="225" 
d="M20 646q0 38 27.5 65.5t65.5 27.5t65 -27.5t27 -65.5t-27 -65.5t-65 -27.5t-65.5 27.5t-27.5 65.5zM181 646q0 29 -20 49t-48 20q-29 0 -49 -20.5t-20 -48.5t20 -48.5t49 -20.5q28 0 48 20t20 49z" />
    <glyph glyph-name="ogonek" unicode="&#x2db;" horiz-adv-x="176" 
d="M156 -170q-21 -16 -50 -16q-35 0 -60.5 19.5t-25.5 52.5t29.5 64.5t76.5 54.5l30 -5q-102 -54 -102 -109q0 -23 14 -36.5t38 -13.5q22 0 37 11z" />
    <glyph glyph-name="tilde" unicode="&#x2dc;" horiz-adv-x="301" 
d="M138 617q-9 17 -14.5 25.5t-16 16.5t-22.5 8q-26 0 -42.5 -26.5t-16.5 -80.5h-26q0 57 23.5 95.5t64.5 38.5q15 0 26.5 -5t21 -16t14.5 -19t13 -23q9 -17 14.5 -25.5t16 -16.5t22.5 -8q26 0 42.5 26.5t16.5 80.5h26q0 -57 -23.5 -95.5t-64.5 -38.5q-20 0 -35.5 11t-22 21
t-17.5 31z" />
    <glyph glyph-name="hungarumlaut" unicode="&#x2dd;" horiz-adv-x="277" 
d="M26 556h-26l100 144h41zM162 556h-26l100 144h41z" />
    <glyph glyph-name="uni0309" unicode="&#x309;" horiz-adv-x="0" 
d="M-172 648q9 28 30.5 48t55.5 20q36 0 60 -22t24 -64q0 -36 -28 -73h-35q34 34 34 73q0 28 -14.5 43t-40.5 15q-44 0 -59 -48z" />
    <glyph glyph-name="uni037E" unicode="&#x37e;" horiz-adv-x="208" 
d="M104 425q-13 0 -23 9.5t-10 22.5t9.5 23t23.5 10t23.5 -10t9.5 -23t-10 -22.5t-23 -9.5zM80 -118l-22 18q24 18 38.5 43.5t14.5 48.5l-8 -1q-14 0 -23 9.5t-9 23.5q0 13 9 22.5t23 9.5q16 0 27.5 -14t11.5 -39q0 -36 -18 -69.5t-44 -51.5z" />
    <glyph glyph-name="tonos" unicode="&#x384;" horiz-adv-x="109" 
d="M20 575l17 190h52l-47 -190h-22z" />
    <glyph glyph-name="dieresistonos" unicode="&#x385;" horiz-adv-x="338" 
d="M148 575l17 190h52l-47 -190h-22zM48 570q-11 0 -19.5 8.5t-8.5 19.5t8.5 19.5t19.5 8.5t19.5 -8.5t8.5 -19.5t-8.5 -19.5t-19.5 -8.5zM290 570q-11 0 -19.5 8.5t-8.5 19.5t8.5 19.5t19.5 8.5t19.5 -8.5t8.5 -19.5t-8.5 -19.5t-19.5 -8.5z" />
    <glyph glyph-name="Alphatonos" unicode="&#x386;" horiz-adv-x="636" 
d="M150 575l17 190h52l-47 -190h-22zM578 0l-74 179h-372l-74 -179h-37l278 667h38l278 -667h-37zM318 630l-174 -421h348z" />
    <glyph glyph-name="Epsilontonos" unicode="&#x388;" horiz-adv-x="558" 
d="M-21 575l17 190h52l-47 -190h-22zM88 0v667h408v-30h-376v-279h369v-30h-369v-298h376v-30h-408z" />
    <glyph glyph-name="Etatonos" unicode="&#x389;" horiz-adv-x="695" 
d="M-21 575l17 190h52l-47 -190h-22zM575 0v328h-455v-328h-32v667h32v-309h455v309h32v-667h-32z" />
    <glyph glyph-name="Iotatonos" unicode="&#x38a;" horiz-adv-x="208" 
d="M-21 575l17 190h52l-47 -190h-22zM88 0v667h32v-667h-32z" />
    <glyph glyph-name="Omicrontonos" unicode="&#x38c;" horiz-adv-x="764" 
d="M39 575l17 190h52l-47 -190h-22zM65 333q0 148 87 246.5t230 98.5q142 0 229.5 -98.5t87.5 -246.5t-87.5 -246.5t-229.5 -98.5q-143 0 -230 98.5t-87 246.5zM664 333q0 139 -77.5 227t-204.5 88q-128 0 -205 -88t-77 -227q0 -138 77 -226.5t205 -88.5q127 0 204.5 88.5
t77.5 226.5z" />
    <glyph glyph-name="Upsilontonos" unicode="&#x38e;" horiz-adv-x="637" 
d="M-21 575l17 190h52l-47 -190h-22zM316 0v289l-268 378h41l243 -346l243 346h41l-268 -378v-289h-32z" />
    <glyph glyph-name="Omegatonos" unicode="&#x38f;" horiz-adv-x="764" 
d="M39 575l17 190h52l-47 -190h-22zM232 30q-167 95 -167 303q0 148 87 246.5t230 98.5t230 -98.5t87 -246.5q0 -209 -166 -303h148v-30h-215v30q78 19 138 98t60 205q0 139 -77 226.5t-205 87.5t-205 -87.5t-77 -226.5q0 -126 60.5 -205t138.5 -98v-30h-215v30h148z" />
    <glyph glyph-name="iotadieresistonos" unicode="&#x390;" horiz-adv-x="216" 
d="M89 575l17 190h52l-47 -190h-22zM-11 570q-11 0 -19.5 8.5t-8.5 19.5t8.5 19.5t19.5 8.5t19.5 -8.5t8.5 -19.5t-8.5 -19.5t-19.5 -8.5zM231 570q-11 0 -19.5 8.5t-8.5 19.5t8.5 19.5t19.5 8.5t19.5 -8.5t8.5 -19.5t-8.5 -19.5t-19.5 -8.5zM86 85v398h30v-398
q0 -70 52 -70q12 0 20 2l3 -27q-12 -2 -23 -2q-82 0 -82 97z" />
    <glyph glyph-name="Alpha" unicode="&#x391;" horiz-adv-x="636" 
d="M578 0l-74 179h-372l-74 -179h-37l278 667h38l278 -667h-37zM318 630l-174 -421h348z" />
    <glyph glyph-name="Beta" unicode="&#x392;" horiz-adv-x="600" 
d="M88 0v667h251q82 0 132 -44.5t50 -125.5q0 -60 -35 -101.5t-83 -51.5q53 -8 92 -57t39 -107q0 -85 -51.5 -132.5t-139.5 -47.5h-255zM120 358h219q71 0 109 39t38 100q0 60 -38.5 100t-108.5 40h-219v-279zM120 30h223q73 0 114.5 40t41.5 109q0 61 -41 105t-115 44h-223
v-298z" />
    <glyph glyph-name="Gamma" unicode="&#x393;" horiz-adv-x="533" 
d="M88 0v667h408v-30h-376v-637h-32z" />
    <glyph glyph-name="uni0394" unicode="&#x394;" horiz-adv-x="636" 
d="M21 0l278 667h38l278 -667h-594zM318 630l-249 -600h498z" />
    <glyph glyph-name="Epsilon" unicode="&#x395;" horiz-adv-x="558" 
d="M88 0v667h408v-30h-376v-279h369v-30h-369v-298h376v-30h-408z" />
    <glyph glyph-name="Zeta" unicode="&#x396;" horiz-adv-x="578" 
d="M53 0v30l427 607h-427v30h465v-30l-428 -607h435v-30h-472z" />
    <glyph glyph-name="Eta" unicode="&#x397;" horiz-adv-x="695" 
d="M575 0v328h-455v-328h-32v667h32v-309h455v309h32v-667h-32z" />
    <glyph glyph-name="Theta" unicode="&#x398;" horiz-adv-x="764" 
d="M65 333q0 148 87 246.5t230 98.5q142 0 229.5 -98.5t87.5 -246.5t-87.5 -246.5t-229.5 -98.5q-143 0 -230 98.5t-87 246.5zM664 333q0 139 -77.5 227t-204.5 88q-128 0 -205 -88t-77 -227q0 -138 77 -226.5t205 -88.5q127 0 204.5 88.5t77.5 226.5zM167 328v30h430v-30
h-430z" />
    <glyph glyph-name="Iota" unicode="&#x399;" horiz-adv-x="208" 
d="M88 0v667h32v-667h-32z" />
    <glyph glyph-name="Kappa" unicode="&#x39a;" horiz-adv-x="571" 
d="M497 0l-297 328l-80 -87v-241h-32v667h32v-385l347 385h43l-290 -319l320 -348h-43z" />
    <glyph glyph-name="Lambda" unicode="&#x39b;" horiz-adv-x="636" 
d="M578 0l-260 630l-260 -630h-37l278 667h38l278 -667h-37z" />
    <glyph glyph-name="Mu" unicode="&#x39c;" horiz-adv-x="770" 
d="M650 0v629l-260 -629h-10l-260 629v-629h-32v667h51l246 -597l246 597h51v-667h-32z" />
    <glyph glyph-name="Nu" unicode="&#x39d;" horiz-adv-x="690" 
d="M570 0l-450 615v-615h-32v667h32l450 -609v609h32v-667h-32z" />
    <glyph glyph-name="Xi" unicode="&#x39e;" horiz-adv-x="608" 
d="M63 637v30h483v-30h-483zM70 328v30h469v-30h-469zM62 0v30h483v-30h-483z" />
    <glyph glyph-name="Omicron" unicode="&#x39f;" horiz-adv-x="764" 
d="M65 333q0 148 87 246.5t230 98.5q142 0 229.5 -98.5t87.5 -246.5t-87.5 -246.5t-229.5 -98.5q-143 0 -230 98.5t-87 246.5zM664 333q0 139 -77.5 227t-204.5 88q-128 0 -205 -88t-77 -227q0 -138 77 -226.5t205 -88.5q127 0 204.5 88.5t77.5 226.5z" />
    <glyph glyph-name="Pi" unicode="&#x3a0;" horiz-adv-x="695" 
d="M575 0v637h-455v-637h-32v667h519v-667h-32z" />
    <glyph glyph-name="Rho" unicode="&#x3a1;" horiz-adv-x="555" 
d="M88 0v667h231q90 0 142.5 -54.5t52.5 -134.5q0 -79 -53 -134t-142 -55h-199v-289h-32zM479 478q0 70 -44 114.5t-117 44.5h-198v-318h198q73 0 117 44.5t44 114.5z" />
    <glyph glyph-name="Sigma" unicode="&#x3a3;" horiz-adv-x="567" 
d="M99 30h406v-30h-443v30l255 314l-254 293v30h442v-30h-404l254 -292z" />
    <glyph glyph-name="Tau" unicode="&#x3a4;" horiz-adv-x="559" 
d="M263 0v637h-225v30h483v-30h-226v-637h-32z" />
    <glyph glyph-name="Upsilon" unicode="&#x3a5;" horiz-adv-x="610" 
d="M289 0v289l-268 378h41l243 -346l243 346h41l-268 -378v-289h-32z" />
    <glyph glyph-name="Phi" unicode="&#x3a6;" horiz-adv-x="764" 
d="M699 333q0 -112 -82.5 -188t-218.5 -81v-64h-32v64q-136 5 -218.5 81t-82.5 188t82.5 188t218.5 81v65h32v-65q136 -5 218.5 -81t82.5 -188zM100 333q0 -102 72.5 -168.5t193.5 -70.5v478q-122 -4 -194 -70.5t-72 -168.5zM398 94q120 4 193 71t73 168q0 102 -72.5 168.5
t-193.5 70.5v-478z" />
    <glyph glyph-name="Chi" unicode="&#x3a7;" horiz-adv-x="638" 
d="M571 0l-252 318l-252 -318h-42l276 342l-261 325h43l236 -299l236 299h43l-261 -324l276 -343h-42z" />
    <glyph glyph-name="Psi" unicode="&#x3a8;" horiz-adv-x="736" 
d="M616 667h32v-278q0 -121 -68 -191t-196 -74v-124h-32v124q-128 4 -196 74t-68 191v278h32v-278q0 -108 59.5 -169.5t172.5 -65.5v513h32v-513q113 4 172.5 65.5t59.5 169.5v278z" />
    <glyph glyph-name="uni03A9" unicode="&#x3a9;" horiz-adv-x="764" 
d="M232 30q-167 95 -167 303q0 148 87 246.5t230 98.5t230 -98.5t87 -246.5q0 -209 -166 -303h148v-30h-215v30q78 19 138 98t60 205q0 139 -77 226.5t-205 87.5t-205 -87.5t-77 -226.5q0 -126 60.5 -205t138.5 -98v-30h-215v30h148z" />
    <glyph glyph-name="Iotadieresis" unicode="&#x3aa;" horiz-adv-x="208" 
d="M3 737q-11 0 -19.5 8.5t-8.5 19.5t8.5 19.5t19.5 8.5t19.5 -8.5t8.5 -19.5t-8.5 -19.5t-19.5 -8.5zM205 737q-11 0 -19.5 8.5t-8.5 19.5t8.5 19.5t19.5 8.5t19.5 -8.5t8.5 -19.5t-8.5 -19.5t-19.5 -8.5zM88 0v667h32v-667h-32z" />
    <glyph glyph-name="Upsilondieresis" unicode="&#x3ab;" horiz-adv-x="610" 
d="M204 737q-11 0 -19.5 8.5t-8.5 19.5t8.5 19.5t19.5 8.5t19.5 -8.5t8.5 -19.5t-8.5 -19.5t-19.5 -8.5zM406 737q-11 0 -19.5 8.5t-8.5 19.5t8.5 19.5t19.5 8.5t19.5 -8.5t8.5 -19.5t-8.5 -19.5t-19.5 -8.5zM289 0v289l-268 378h41l243 -346l243 346h41l-268 -378v-289h-32
z" />
    <glyph glyph-name="alphatonos" unicode="&#x3ac;" horiz-adv-x="580" 
d="M274 575l17 190h52l-47 -190h-22zM555 -10q-12 -2 -23 -2q-80 0 -82 93q-26 -40 -73 -66.5t-101 -26.5q-98 0 -157 69t-59 184q0 114 59.5 184t156.5 70q53 0 98.5 -25.5t75.5 -69.5v83h30v-398q0 -32 13.5 -51t38.5 -19q12 0 20 2zM450 111v259q-24 40 -72 69t-102 29
q-86 0 -134.5 -64t-48.5 -163t48.5 -162.5t134.5 -63.5q54 0 102 28t72 68z" />
    <glyph glyph-name="epsilontonos" unicode="&#x3ad;" horiz-adv-x="487" 
d="M238 575l17 190h52l-47 -190h-22zM251 -12q-90 0 -140.5 39t-50.5 100q0 57 37.5 86t82.5 33q-41 6 -75.5 36.5t-34.5 84.5q0 60 51.5 94t125.5 34q114 0 184 -80l-21 -20q-31 38 -69 55.5t-94 17.5q-62 0 -103.5 -28t-41.5 -73q0 -53 44.5 -80.5t111.5 -27.5h84v-27h-84
q-165 0 -165 -105q0 -51 43 -81.5t115 -30.5q107 0 171 73l20 -21q-71 -79 -191 -79z" />
    <glyph glyph-name="etatonos" unicode="&#x3ae;" 
d="M253 575l17 190h52l-47 -190h-22zM412 -184v521q0 72 -32 101.5t-93 29.5q-48 0 -96 -26.5t-75 -64.5v-377h-30v483h30v-76q29 35 78 61.5t97 26.5q75 0 113 -37.5t38 -120.5v-521h-30z" />
    <glyph glyph-name="iotatonos" unicode="&#x3af;" horiz-adv-x="216" 
d="M90 575l17 190h52l-47 -190h-22zM86 85v398h30v-398q0 -70 52 -70q12 0 20 2l3 -27q-12 -2 -23 -2q-82 0 -82 97z" />
    <glyph glyph-name="upsilondieresistonos" unicode="&#x3b0;" horiz-adv-x="549" 
d="M252 575l17 190h52l-47 -190h-22zM152 570q-11 0 -19.5 8.5t-8.5 19.5t8.5 19.5t19.5 8.5t19.5 -8.5t8.5 -19.5t-8.5 -19.5t-19.5 -8.5zM394 570q-11 0 -19.5 8.5t-8.5 19.5t8.5 19.5t19.5 8.5t19.5 -8.5t8.5 -19.5t-8.5 -19.5t-19.5 -8.5zM264 -12q-86 0 -132 58
t-46 161v276h30v-276q0 -90 38.5 -141t109.5 -51q89 0 140.5 66.5t51.5 160.5q0 144 -85 233l24 20q94 -107 94 -253q0 -109 -62 -181.5t-163 -72.5z" />
    <glyph glyph-name="alpha" unicode="&#x3b1;" horiz-adv-x="580" 
d="M555 -10q-12 -2 -23 -2q-80 0 -82 93q-26 -40 -73 -66.5t-101 -26.5q-98 0 -157 69t-59 184q0 114 59.5 184t156.5 70q53 0 98.5 -25.5t75.5 -69.5v83h30v-398q0 -32 13.5 -51t38.5 -19q12 0 20 2zM450 111v259q-24 40 -72 69t-102 29q-86 0 -134.5 -64t-48.5 -163
t48.5 -162.5t134.5 -63.5q54 0 102 28t72 68z" />
    <glyph glyph-name="beta" unicode="&#x3b2;" horiz-adv-x="566" 
d="M116 -184h-30v645q0 105 61 160.5t151 55.5q79 0 136 -46.5t57 -127.5q0 -72 -43 -110.5t-94 -47.5q31 -3 64 -19.5t60.5 -56t27.5 -92.5q0 -86 -58.5 -137.5t-154.5 -51.5q-56 0 -103.5 26.5t-73.5 66.5v-265zM116 111q24 -40 72 -68t102 -28q87 0 135 43.5t48 118.5
q0 77 -54.5 115.5t-137.5 38.5h-31v27h31q76 0 126.5 36.5t50.5 108.5q0 67 -46.5 107t-113.5 40q-76 0 -129 -48.5t-53 -140.5v-350z" />
    <glyph glyph-name="gamma" unicode="&#x3b3;" horiz-adv-x="471" 
d="M221 -184v159q0 145 -62 282.5t-158 225.5h40q76 -71 136 -197t71 -239q70 93 114 209t44 227h30q0 -115 -49.5 -241.5t-135.5 -237.5v-188h-30z" />
    <glyph glyph-name="delta" unicode="&#x3b4;" horiz-adv-x="570" 
d="M285 451q35 -11 53 -17.5t49.5 -20.5t49 -30t37 -39.5t28 -56t8.5 -72.5q0 -90 -63 -158.5t-162 -68.5q-98 0 -161.5 68.5t-63.5 158.5q0 81 45.5 139t123.5 85q-53 18 -81 43t-28 69q0 55 44 91.5t120 36.5q109 0 166 -73l-22 -20q-46 66 -144 66q-62 0 -98 -28.5
t-36 -72.5q0 -28 21 -48t44 -29t70 -23zM285 15q87 0 141 62.5t54 137.5q0 41 -12.5 73t-29.5 52t-48.5 37.5t-54 26t-61.5 20.5q-89 -22 -135 -76t-46 -133q0 -75 53 -137.5t139 -62.5z" />
    <glyph glyph-name="epsilon" unicode="&#x3b5;" horiz-adv-x="487" 
d="M251 -12q-90 0 -140.5 39t-50.5 100q0 57 37.5 86t82.5 33q-41 6 -75.5 36.5t-34.5 84.5q0 60 51.5 94t125.5 34q114 0 184 -80l-21 -20q-31 38 -69 55.5t-94 17.5q-62 0 -103.5 -28t-41.5 -73q0 -53 44.5 -80.5t111.5 -27.5h84v-27h-84q-165 0 -165 -105q0 -51 43 -81.5
t115 -30.5q107 0 171 73l20 -21q-71 -79 -191 -79z" />
    <glyph glyph-name="zeta" unicode="&#x3b6;" horiz-adv-x="493" 
d="M333 0q-124 0 -198.5 55t-74.5 157q0 237 342 428h-326v27h367v-27q-178 -105 -264 -206.5t-86 -221.5q0 -90 65.5 -137.5t176.5 -47.5q108 0 108 -86q0 -37 -35 -98h-35q37 64 37 98q0 59 -77 59z" />
    <glyph glyph-name="eta" unicode="&#x3b7;" 
d="M412 -184v521q0 72 -32 101.5t-93 29.5q-48 0 -96 -26.5t-75 -64.5v-377h-30v483h30v-76q29 35 78 61.5t97 26.5q75 0 113 -37.5t38 -120.5v-521h-30z" />
    <glyph glyph-name="theta" unicode="&#x3b8;" horiz-adv-x="570" 
d="M285 679q112 0 168.5 -95.5t56.5 -249.5t-56.5 -250t-168.5 -96q-75 0 -127 47t-75 123t-23 176q0 154 56.5 249.5t168.5 95.5zM285 652q-66 0 -110 -44t-62 -109t-20 -150h384q-3 133 -49 218t-143 85zM285 15q50 0 88 24.5t59.5 68.5t32.5 97t12 117h-384
q2 -86 20 -152t62 -110.5t110 -44.5z" />
    <glyph glyph-name="iota" unicode="&#x3b9;" horiz-adv-x="216" 
d="M86 85v398h30v-398q0 -70 52 -70q12 0 20 2l3 -27q-12 -2 -23 -2q-82 0 -82 97z" />
    <glyph glyph-name="kappa" unicode="&#x3ba;" horiz-adv-x="496" 
d="M428 0l-212 243l-100 -92v-151h-30v483h30v-294l315 294h43l-235 -218l232 -265h-43z" />
    <glyph glyph-name="lambda" unicode="&#x3bb;" horiz-adv-x="471" 
d="M98 679q70 0 106 -82l256 -597h-35l-189 448l-190 -448h-35l207 486l-44 100q-16 37 -33.5 51.5t-42.5 14.5q-24 0 -42 -8l-6 28q21 7 48 7z" />
    <glyph glyph-name="uni03BC" unicode="&#x3bc;" horiz-adv-x="542" 
d="M116 -184h-30v667h30v-339q0 -131 127 -131q47 0 95 26.5t74 63.5v380h30v-398q0 -70 52 -70q12 0 20 2l3 -27q-12 -2 -23 -2q-75 0 -82 86q-32 -37 -77.5 -61.5t-91.5 -24.5q-95 0 -127 65v-237z" />
    <glyph glyph-name="nu" unicode="&#x3bd;" horiz-adv-x="471" 
d="M218 0l-207 483h35l191 -451q78 104 123.5 221.5t45.5 229.5h30q0 -116 -50.5 -243.5t-137.5 -239.5h-30z" />
    <glyph glyph-name="xi" unicode="&#x3be;" horiz-adv-x="493" 
d="M60 177q0 77 50 120.5t102 48.5q-52 9 -97 45t-45 100q0 47 34 89t84 60h-112v27h355v-27h-186q-59 -13 -100.5 -57t-41.5 -92q0 -63 53.5 -97.5t128.5 -34.5h139v-27h-139q-83 0 -137.5 -39t-54.5 -116q0 -151 242 -151q108 0 108 -85q0 -37 -35 -98h-35q37 64 37 98
q0 58 -77 58q-132 0 -202.5 44.5t-70.5 133.5z" />
    <glyph glyph-name="omicron" unicode="&#x3bf;" horiz-adv-x="570" 
d="M285 -12q-100 0 -162.5 72.5t-62.5 181.5q0 108 62.5 180.5t162.5 72.5q101 0 163 -72t62 -181t-62 -181.5t-163 -72.5zM285 15q89 0 140.5 66.5t51.5 160.5q0 93 -51.5 159.5t-140.5 66.5q-88 0 -140 -66.5t-52 -159.5q0 -94 52 -160.5t140 -66.5z" />
    <glyph glyph-name="pi" unicode="&#x3c0;" horiz-adv-x="540" 
d="M418 0v456h-296v-456h-30v456h-80v27h516v-27h-80v-456h-30z" />
    <glyph glyph-name="rho" unicode="&#x3c1;" horiz-adv-x="562" 
d="M116 83v-267h-30v426q0 109 57.5 181t151.5 72q95 0 153 -72t58 -181q0 -114 -59.5 -184t-156.5 -70q-53 0 -98.5 25.5t-75.5 69.5zM473 242q0 93 -48 159.5t-131 66.5q-82 0 -130 -66.5t-48 -159.5v-129q24 -40 72 -69t102 -29q86 0 134.5 64t48.5 163z" />
    <glyph glyph-name="uni03C2" unicode="&#x3c2;" horiz-adv-x="475" 
d="M60 242q0 107 63 180t165 73q56 0 94 -20t71 -61l-22 -18q-53 72 -141 72q-91 0 -144 -64.5t-53 -161.5q0 -110 63.5 -162.5t173.5 -52.5q57 0 82.5 -16.5t25.5 -57.5q0 -49 -35 -110h-30q37 64 37 110q0 27 -20 37t-62 10q-127 0 -197.5 62t-70.5 180z" />
    <glyph glyph-name="sigma" unicode="&#x3c3;" horiz-adv-x="570" 
d="M285 -12q-100 0 -162.5 72.5t-62.5 181.5q0 103 65.5 172t178.5 69h236v-27h-136q106 -80 106 -222q0 -103 -62.5 -174.5t-162.5 -71.5zM351 456h-47q-100 0 -155.5 -63.5t-55.5 -150.5q0 -94 52 -160.5t140 -66.5t140 65.5t52 153.5q0 78 -35 136.5t-91 85.5z" />
    <glyph glyph-name="tau" unicode="&#x3c4;" horiz-adv-x="447" 
d="M203 85v371h-172v27h385v-27h-183v-371q0 -70 52 -70q35 0 57 26l18 -23q-32 -30 -75 -30q-82 0 -82 97z" />
    <glyph glyph-name="upsilon" unicode="&#x3c5;" horiz-adv-x="549" 
d="M264 -12q-86 0 -132 58t-46 161v276h30v-276q0 -90 38.5 -141t109.5 -51q89 0 140.5 66.5t51.5 160.5q0 144 -85 233l24 20q94 -107 94 -253q0 -109 -62 -181.5t-163 -72.5z" />
    <glyph glyph-name="phi" unicode="&#x3c6;" horiz-adv-x="700" 
d="M640 236q0 -108 -69.5 -176t-205.5 -72v-172h-30v172q-135 4 -205 76.5t-70 188.5q0 81 49 143t124 95l14 -23q-154 -74 -154 -215q0 -102 58.5 -167.5t183.5 -70.5v468h15q143 0 216.5 -68t73.5 -179zM365 15q124 4 183 65.5t59 155.5t-59 154.5t-183 65.5v-441z" />
    <glyph glyph-name="chi" unicode="&#x3c7;" horiz-adv-x="472" 
d="M415 -184l-179 315l-179 -315h-35l197 343l-186 324h35l168 -296l168 296h35l-186 -324l197 -343h-35z" />
    <glyph glyph-name="psi" unicode="&#x3c8;" horiz-adv-x="700" 
d="M584 483h30v-276q0 -100 -64 -157.5t-185 -61.5v-172h-30v172q-121 4 -185 61.5t-64 157.5v276h30v-276q0 -87 57 -137.5t162 -54.5v652h30v-652q105 4 162 54.5t57 137.5v276z" />
    <glyph glyph-name="omega" unicode="&#x3c9;" horiz-adv-x="770" 
d="M540 -12q-64 0 -103.5 47.5t-51.5 107.5q-12 -60 -51.5 -107.5t-103.5 -47.5q-75 0 -122.5 71t-47.5 173q0 192 92 263l23 -19q-82 -69 -82 -244q0 -87 38 -152t101 -65q64 0 101 66.5t37 160.5v124h30v-124q0 -94 37 -160.5t101 -66.5q63 0 101 65t38 152q0 175 -82 244
l23 19q92 -71 92 -263q0 -102 -47.5 -173t-122.5 -71z" />
    <glyph glyph-name="iotadieresis" unicode="&#x3ca;" horiz-adv-x="216" 
d="M0 570q-11 0 -19.5 8.5t-8.5 19.5t8.5 19.5t19.5 8.5t19.5 -8.5t8.5 -19.5t-8.5 -19.5t-19.5 -8.5zM202 570q-11 0 -19.5 8.5t-8.5 19.5t8.5 19.5t19.5 8.5t19.5 -8.5t8.5 -19.5t-8.5 -19.5t-19.5 -8.5zM86 85v398h30v-398q0 -70 52 -70q12 0 20 2l3 -27q-12 -2 -23 -2
q-82 0 -82 97z" />
    <glyph glyph-name="upsilondieresis" unicode="&#x3cb;" horiz-adv-x="549" 
d="M163 570q-11 0 -19.5 8.5t-8.5 19.5t8.5 19.5t19.5 8.5t19.5 -8.5t8.5 -19.5t-8.5 -19.5t-19.5 -8.5zM365 570q-11 0 -19.5 8.5t-8.5 19.5t8.5 19.5t19.5 8.5t19.5 -8.5t8.5 -19.5t-8.5 -19.5t-19.5 -8.5zM264 -12q-86 0 -132 58t-46 161v276h30v-276q0 -90 38.5 -141
t109.5 -51q89 0 140.5 66.5t51.5 160.5q0 144 -85 233l24 20q94 -107 94 -253q0 -109 -62 -181.5t-163 -72.5z" />
    <glyph glyph-name="omicrontonos" unicode="&#x3cc;" horiz-adv-x="570" 
d="M274 575l17 190h52l-47 -190h-22zM285 -12q-100 0 -162.5 72.5t-62.5 181.5q0 108 62.5 180.5t162.5 72.5q101 0 163 -72t62 -181t-62 -181.5t-163 -72.5zM285 15q89 0 140.5 66.5t51.5 160.5q0 93 -51.5 159.5t-140.5 66.5q-88 0 -140 -66.5t-52 -159.5q0 -94 52 -160.5
t140 -66.5z" />
    <glyph glyph-name="upsilontonos" unicode="&#x3cd;" horiz-adv-x="549" 
d="M253 575l17 190h52l-47 -190h-22zM264 -12q-86 0 -132 58t-46 161v276h30v-276q0 -90 38.5 -141t109.5 -51q89 0 140.5 66.5t51.5 160.5q0 144 -85 233l24 20q94 -107 94 -253q0 -109 -62 -181.5t-163 -72.5z" />
    <glyph glyph-name="omegatonos" unicode="&#x3ce;" horiz-adv-x="770" 
d="M374 575l17 190h52l-47 -190h-22zM540 -12q-64 0 -103.5 47.5t-51.5 107.5q-12 -60 -51.5 -107.5t-103.5 -47.5q-75 0 -122.5 71t-47.5 173q0 192 92 263l23 -19q-82 -69 -82 -244q0 -87 38 -152t101 -65q64 0 101 66.5t37 160.5v124h30v-124q0 -94 37 -160.5t101 -66.5
q63 0 101 65t38 152q0 175 -82 244l23 19q92 -71 92 -263q0 -102 -47.5 -173t-122.5 -71z" />
    <glyph glyph-name="uni0401" unicode="&#x401;" horiz-adv-x="558" 
d="M195 737q-11 0 -19.5 8.5t-8.5 19.5t8.5 19.5t19.5 8.5t19.5 -8.5t8.5 -19.5t-8.5 -19.5t-19.5 -8.5zM397 737q-11 0 -19.5 8.5t-8.5 19.5t8.5 19.5t19.5 8.5t19.5 -8.5t8.5 -19.5t-8.5 -19.5t-19.5 -8.5zM88 0v667h408v-30h-376v-279h369v-30h-369v-298h376v-30h-408z
" />
    <glyph glyph-name="uni0402" unicode="&#x402;" horiz-adv-x="777" 
d="M497 18q78 0 119 37.5t41 123.5v12q0 90 -38.5 129.5t-124.5 39.5q-121 0 -199 -40v-320h-32v637h-225v30h483v-30h-226v-289q89 42 199 42q102 0 148.5 -47.5t46.5 -152.5v-11q0 -107 -52 -149t-140 -42v30z" />
    <glyph glyph-name="uni0403" unicode="&#x403;" horiz-adv-x="533" 
d="M311 723h-30l160 144h45zM88 0v667h408v-30h-376v-637h-32z" />
    <glyph glyph-name="uni0404" unicode="&#x404;" horiz-adv-x="667" 
d="M398 18q62 0 116.5 26t90.5 71l26 -21q-94 -106 -233 -106q-141 0 -237 97t-96 248t96 248t237 97t232 -105l-25 -22q-36 45 -90.5 71t-116.5 26q-121 0 -205 -80.5t-92 -209.5h421v-30h-422q1 -136 87 -223t211 -87z" />
    <glyph glyph-name="uni0405" unicode="&#x405;" horiz-adv-x="575" 
d="M53 94l26 23q81 -99 207 -99q55 0 95 14.5t60 38t29 48t9 50.5q0 31 -12 56t-27.5 40.5t-45.5 29.5t-51.5 21t-59.5 18q-42 12 -62.5 18.5t-54 21.5t-50 31t-29.5 43t-13 60q0 78 61 124t148 46q140 0 216 -94l-25 -23q-67 87 -191 87q-74 0 -124 -39.5t-50 -100.5
q0 -26 11.5 -47t25 -34t43.5 -25.5t48.5 -18.5t56.5 -17q42 -12 65 -20t57.5 -24.5t52 -35t31.5 -49t14 -68.5q0 -31 -11 -60.5t-35 -58t-71 -45.5t-111 -17q-75 0 -135 29t-98 77z" />
    <glyph glyph-name="uni0406" unicode="&#x406;" horiz-adv-x="208" 
d="M88 0v667h32v-667h-32z" />
    <glyph glyph-name="uni0407" unicode="&#x407;" horiz-adv-x="208" 
d="M3 737q-11 0 -19.5 8.5t-8.5 19.5t8.5 19.5t19.5 8.5t19.5 -8.5t8.5 -19.5t-8.5 -19.5t-19.5 -8.5zM205 737q-11 0 -19.5 8.5t-8.5 19.5t8.5 19.5t19.5 8.5t19.5 -8.5t8.5 -19.5t-8.5 -19.5t-19.5 -8.5zM88 0v667h32v-667h-32z" />
    <glyph glyph-name="uni0408" unicode="&#x408;" horiz-adv-x="465" 
d="M16 75l27 24q57 -81 142 -81q73 0 116.5 46.5t43.5 120.5v482h32v-482q0 -95 -55 -146t-137 -51q-107 0 -169 87z" />
    <glyph glyph-name="uni0409" unicode="&#x409;" horiz-adv-x="1042" 
d="M38 18q30 0 53 9.5t47.5 39.5t43.5 82.5t36.5 142.5t30.5 215l17 160h341v-289h199q89 0 142 -55t53 -134q0 -80 -52.5 -134.5t-142.5 -54.5h-231v637h-282l-14 -136q-14 -136 -34 -232.5t-41.5 -150.5t-50.5 -84t-54.5 -38t-60.5 -8v30zM607 348v-318h198q73 0 117 44.5
t44 114.5t-44 114.5t-117 44.5h-198z" />
    <glyph glyph-name="uni040A" unicode="&#x40a;" horiz-adv-x="1042" 
d="M88 667h32v-309h455v309h32v-309h209q84 0 134.5 -51.5t50.5 -127.5t-50 -127.5t-135 -51.5h-241v328h-455v-328h-32v667zM816 30q67 0 108.5 42t41.5 107t-41.5 107t-108.5 42h-209v-298h209z" />
    <glyph glyph-name="uni040B" unicode="&#x40b;" horiz-adv-x="777" 
d="M657 181q0 97 -38 138t-125 41q-121 0 -199 -40v-320h-32v637h-225v30h483v-30h-226v-289q89 42 199 42q103 0 149 -49t46 -161v-180h-32v181z" />
    <glyph glyph-name="uni040C" unicode="&#x40c;" horiz-adv-x="571" 
d="M318 723h-30l160 144h45zM497 0l-297 328l-80 -87v-241h-32v667h32v-385l347 385h43l-290 -319l320 -348h-43z" />
    <glyph glyph-name="uni040E" unicode="&#x40e;" horiz-adv-x="610" 
d="M305 711q-92 0 -143 72l20 17q46 -62 123 -62q79 0 122 62l21 -17q-51 -72 -143 -72zM552 667h37l-279 -559q-32 -63 -64 -91.5t-79 -28.5q-39 0 -64 14l10 29q28 -13 54 -13q36 0 58.5 22t55.5 83l34 64l-294 480h38l272 -449z" />
    <glyph glyph-name="uni040F" unicode="&#x40f;" horiz-adv-x="685" 
d="M597 667v-667h-239v-126h-30v126h-240v667h32v-637h445v637h32z" />
    <glyph glyph-name="uni0410" unicode="&#x410;" horiz-adv-x="636" 
d="M578 0l-74 179h-372l-74 -179h-37l278 667h38l278 -667h-37zM318 630l-174 -421h348z" />
    <glyph glyph-name="uni0411" unicode="&#x411;" horiz-adv-x="555" 
d="M486 667v-30h-366v-259h199q89 0 142 -55t53 -134q0 -80 -52.5 -134.5t-142.5 -54.5h-231v667h398zM120 348v-318h198q73 0 117 44.5t44 114.5t-44 114.5t-117 44.5h-198z" />
    <glyph glyph-name="uni0412" unicode="&#x412;" horiz-adv-x="600" 
d="M88 0v667h251q82 0 132 -44.5t50 -125.5q0 -60 -35 -101.5t-83 -51.5q53 -8 92 -57t39 -107q0 -85 -51.5 -132.5t-139.5 -47.5h-255zM120 358h219q71 0 109 39t38 100q0 60 -38.5 100t-108.5 40h-219v-279zM120 30h223q73 0 114.5 40t41.5 109q0 61 -41 105t-115 44h-223
v-298z" />
    <glyph glyph-name="uni0413" unicode="&#x413;" horiz-adv-x="533" 
d="M88 0v667h408v-30h-376v-637h-32z" />
    <glyph glyph-name="uni0414" unicode="&#x414;" horiz-adv-x="710" 
d="M38 30h51q42 37 76.5 140.5t69.5 349.5l21 147h341v-637h69v-153h-30v123h-568v-123h-30v153zM265 516q-33 -237 -63.5 -338t-66.5 -148h430v607h-283z" />
    <glyph glyph-name="uni0415" unicode="&#x415;" horiz-adv-x="558" 
d="M88 0v667h408v-30h-376v-279h369v-30h-369v-298h376v-30h-408z" />
    <glyph glyph-name="uni0416" unicode="&#x416;" horiz-adv-x="874" 
d="M800 0l-303 330h-44v-330h-32v330h-44l-303 -330h-43l320 346l-290 321h43l278 -311h39v311h32v-311h39l278 311h43l-290 -321l320 -346h-43z" />
    <glyph glyph-name="uni0417" unicode="&#x417;" horiz-adv-x="562" 
d="M36 100l28 17q29 -44 81.5 -71.5t123.5 -27.5q89 0 140.5 42.5t51.5 116.5q0 77 -53.5 115t-136.5 38h-120v30h120q76 0 128 36t52 107q0 67 -52 105.5t-128 38.5q-62 0 -108 -22t-87 -68l-25 20q84 100 220 100q88 0 151.5 -46.5t63.5 -127.5q0 -72 -45 -110.5
t-97 -47.5q31 -3 64 -19.5t60.5 -56t27.5 -92.5q0 -83 -61 -136t-167 -53q-80 0 -140.5 31.5t-91.5 80.5z" />
    <glyph glyph-name="uni0418" unicode="&#x418;" horiz-adv-x="690" 
d="M88 667h32v-610l450 610h32v-667h-32v616l-450 -616h-32v667z" />
    <glyph glyph-name="uni0419" unicode="&#x419;" horiz-adv-x="690" 
d="M345 711q-92 0 -143 72l20 17q46 -62 123 -62q79 0 122 62l21 -17q-51 -72 -143 -72zM88 667h32v-610l450 610h32v-667h-32v616l-450 -616h-32v667z" />
    <glyph glyph-name="uni041A" unicode="&#x41a;" horiz-adv-x="571" 
d="M497 0l-297 328l-80 -87v-241h-32v667h32v-385l347 385h43l-290 -319l320 -348h-43z" />
    <glyph glyph-name="uni041B" unicode="&#x41b;" horiz-adv-x="695" 
d="M38 18q30 0 53 9.5t47.5 39.5t43.5 82.5t36.5 142.5t30.5 215l17 160h341v-667h-32v637h-282l-14 -136q-14 -136 -34 -232.5t-41.5 -150.5t-50.5 -84t-54.5 -38t-60.5 -8v30z" />
    <glyph glyph-name="uni041C" unicode="&#x41c;" horiz-adv-x="770" 
d="M650 0v629l-260 -629h-10l-260 629v-629h-32v667h51l246 -597l246 597h51v-667h-32z" />
    <glyph glyph-name="uni041D" unicode="&#x41d;" horiz-adv-x="695" 
d="M575 0v328h-455v-328h-32v667h32v-309h455v309h32v-667h-32z" />
    <glyph glyph-name="uni041E" unicode="&#x41e;" horiz-adv-x="764" 
d="M65 333q0 148 87 246.5t230 98.5q142 0 229.5 -98.5t87.5 -246.5t-87.5 -246.5t-229.5 -98.5q-143 0 -230 98.5t-87 246.5zM664 333q0 139 -77.5 227t-204.5 88q-128 0 -205 -88t-77 -227q0 -138 77 -226.5t205 -88.5q127 0 204.5 88.5t77.5 226.5z" />
    <glyph glyph-name="uni041F" unicode="&#x41f;" horiz-adv-x="695" 
d="M575 0v637h-455v-637h-32v667h519v-667h-32z" />
    <glyph glyph-name="uni0420" unicode="&#x420;" horiz-adv-x="555" 
d="M88 0v667h231q90 0 142.5 -54.5t52.5 -134.5q0 -79 -53 -134t-142 -55h-199v-289h-32zM479 478q0 70 -44 114.5t-117 44.5h-198v-318h198q73 0 117 44.5t44 114.5z" />
    <glyph glyph-name="uni0421" unicode="&#x421;" horiz-adv-x="667" 
d="M398 -12q-141 0 -237 97t-96 248t96 248t237 97t232 -105l-25 -22q-36 45 -90.5 71t-116.5 26q-127 0 -212.5 -88t-85.5 -227q0 -138 85.5 -226.5t212.5 -88.5q62 0 116.5 26t90.5 71l26 -21q-94 -106 -233 -106z" />
    <glyph glyph-name="uni0422" unicode="&#x422;" horiz-adv-x="559" 
d="M263 0v637h-225v30h483v-30h-226v-637h-32z" />
    <glyph glyph-name="uni0423" unicode="&#x423;" horiz-adv-x="610" 
d="M552 667h37l-279 -559q-32 -63 -64 -91.5t-79 -28.5q-39 0 -64 14l10 29q28 -13 54 -13q36 0 58.5 22t55.5 83l34 64l-294 480h38l272 -449z" />
    <glyph glyph-name="uni0424" unicode="&#x424;" horiz-adv-x="764" 
d="M699 333q0 -112 -82.5 -188t-218.5 -81v-64h-32v64q-136 5 -218.5 81t-82.5 188t82.5 188t218.5 81v65h32v-65q136 -5 218.5 -81t82.5 -188zM100 333q0 -102 72.5 -168.5t193.5 -70.5v478q-122 -4 -194 -70.5t-72 -168.5zM398 94q120 4 193 71t73 168q0 102 -72.5 168.5
t-193.5 70.5v-478z" />
    <glyph glyph-name="uni0425" unicode="&#x425;" horiz-adv-x="638" 
d="M571 0l-252 318l-252 -318h-42l276 342l-261 325h43l236 -299l236 299h43l-261 -324l276 -343h-42z" />
    <glyph glyph-name="uni0426" unicode="&#x426;" horiz-adv-x="710" 
d="M636 0h-548v667h32v-637h445v637h32v-637h69v-153h-30v123z" />
    <glyph glyph-name="uni0427" unicode="&#x427;" horiz-adv-x="580" 
d="M98 486q0 -97 38 -138t125 -41q121 0 199 40v320h32v-667h-32v319q-89 -42 -199 -42q-103 0 -149 49t-46 161v180h32v-181z" />
    <glyph glyph-name="uni0428" unicode="&#x428;" horiz-adv-x="966" 
d="M878 667v-667h-790v667h32v-637h347v637h32v-637h347v637h32z" />
    <glyph glyph-name="uni0429" unicode="&#x429;" horiz-adv-x="991" 
d="M878 667v-637h69v-153h-30v123h-829v667h32v-637h347v637h32v-637h347v637h32z" />
    <glyph glyph-name="uni042A" unicode="&#x42a;" horiz-adv-x="730" 
d="M263 0v637h-225v30h257v-289h199q89 0 142 -55t53 -134q0 -80 -52.5 -134.5t-142.5 -54.5h-231zM295 348v-318h198q73 0 117 44.5t44 114.5t-44 114.5t-117 44.5h-198z" />
    <glyph glyph-name="uni042B" unicode="&#x42b;" horiz-adv-x="721" 
d="M120 667v-289h199q89 0 142 -55t53 -134q0 -80 -52.5 -134.5t-142.5 -54.5h-231v667h32zM601 0v667h32v-667h-32zM120 348v-318h198q73 0 117 44.5t44 114.5t-44 114.5t-117 44.5h-198z" />
    <glyph glyph-name="uni042C" unicode="&#x42c;" horiz-adv-x="555" 
d="M120 667v-289h199q89 0 142 -55t53 -134q0 -80 -52.5 -134.5t-142.5 -54.5h-231v667h32zM120 348v-318h198q73 0 117 44.5t44 114.5t-44 114.5t-117 44.5h-198z" />
    <glyph glyph-name="uni042D" unicode="&#x42d;" horiz-adv-x="667" 
d="M269 678q141 0 237 -97t96 -248t-96 -248t-237 -97q-139 0 -233 106l26 21q36 -45 90.5 -71t116.5 -26q125 0 211 87t87 223h-422v30h421q-8 129 -92 209.5t-205 80.5q-62 0 -116.5 -26t-90.5 -71l-25 22q91 105 232 105z" />
    <glyph glyph-name="uni042E" unicode="&#x42e;" horiz-adv-x="957" 
d="M575 678q142 0 229.5 -98.5t87.5 -246.5t-87.5 -246.5t-229.5 -98.5q-141 0 -228 97t-89 243h-138v-328h-32v667h32v-309h139q8 139 94 229.5t222 90.5zM575 18q127 0 204.5 88.5t77.5 226.5q0 139 -77.5 227t-204.5 88q-128 0 -205 -88t-77 -227q0 -138 77 -226.5
t205 -88.5z" />
    <glyph glyph-name="uni042F" unicode="&#x42f;" horiz-adv-x="579" 
d="M55 0l206 288q-84 0 -140.5 51t-56.5 139t56 138.5t141 50.5h230v-667h-32v288h-160l-203 -288h-41zM459 318v319h-198q-73 0 -117.5 -44.5t-44.5 -114.5t44.5 -115t117.5 -45h198z" />
    <glyph glyph-name="uni0430" unicode="&#x430;" horiz-adv-x="514" 
d="M398 0v59q-65 -71 -167 -71q-68 0 -118.5 43.5t-50.5 117.5t50 117.5t119 43.5q102 0 167 -71v109q0 56 -39 88t-97 32q-92 0 -155 -76l-23 20q37 43 78 63t100 20q74 0 120 -37.5t46 -108.5v-349h-30zM398 89v120q-56 74 -159 74q-65 0 -104.5 -38.5t-39.5 -95.5
t39.5 -95.5t104.5 -38.5q103 0 159 74z" />
    <glyph glyph-name="uni0431" unicode="&#x431;" horiz-adv-x="577" 
d="M60 264q0 176 71 269.5t223 122.5l123 23v-30l-117 -22q-67 -13 -117 -39.5t-80 -63.5t-46.5 -75t-24.5 -85q63 131 194 131q100 0 162 -72t62 -180q0 -109 -62 -182t-163 -73q-102 0 -163.5 76t-61.5 200zM477 242q0 93 -51.5 159.5t-140.5 66.5q-88 0 -140 -66.5
t-52 -159.5q0 -94 52 -160.5t140 -66.5q89 0 140.5 66.5t51.5 160.5z" />
    <glyph glyph-name="uni0432" unicode="&#x432;" horiz-adv-x="527" 
d="M86 0v483h210q68 0 107.5 -32.5t39.5 -91.5q0 -42 -23 -71t-57 -39q38 -10 63.5 -44t25.5 -74q0 -62 -41 -96.5t-113 -34.5h-212zM411 359q0 45 -30 71t-85 26h-180v-193h180q55 0 85 27t30 69zM419 130q0 44 -31.5 75t-89.5 31h-182v-209h182q57 0 89 27.5t32 75.5z" />
    <glyph glyph-name="uni0433" unicode="&#x433;" horiz-adv-x="413" 
d="M382 456h-266v-456h-30v483h296v-27z" />
    <glyph glyph-name="uni0434" unicode="&#x434;" horiz-adv-x="545" 
d="M18 27h42q60 73 91 349l12 107h279v-456h60v-150h-27v123h-430v-123h-27v150zM178 371q-32 -277 -85 -344h319v429h-224z" />
    <glyph glyph-name="uni0435" unicode="&#x435;" horiz-adv-x="571" 
d="M60 242q0 106 65 179.5t162 73.5q106 0 165 -73t59 -180v-10h-417q2 -92 57.5 -154.5t145.5 -62.5q100 0 168 73l18 -19q-78 -81 -186 -81q-105 0 -171 71.5t-66 182.5zM286 468q-87 0 -138 -64.5t-54 -144.5h385q0 49 -20 95.5t-65.5 80t-107.5 33.5z" />
    <glyph glyph-name="uni0436" unicode="&#x436;" horiz-adv-x="680" 
d="M658 483l-243 -238l240 -245h-41l-226 232h-33v-232h-30v232h-33l-226 -232h-41l240 245l-243 238h41l229 -224h33v224h30v-224h33l229 224h41z" />
    <glyph glyph-name="uni0437" unicode="&#x437;" horiz-adv-x="487" 
d="M45 67l21 22q65 -74 170 -74q72 0 115 30.5t43 81.5q0 105 -165 105h-84v27h84q67 0 111.5 27.5t44.5 80.5q0 45 -41.5 73t-103.5 28q-56 0 -94 -17.5t-69 -55.5l-21 20q70 80 184 80q74 0 125.5 -34t51.5 -94q0 -54 -34.5 -84.5t-75.5 -36.5q45 -4 82.5 -33t37.5 -86
q0 -61 -50.5 -100t-140.5 -39q-120 0 -191 79z" />
    <glyph glyph-name="uni0438" unicode="&#x438;" 
d="M86 0v483h30v-435l298 435h28v-483h-30v439l-298 -439h-28z" />
    <glyph glyph-name="uni0439" unicode="&#x439;" 
d="M264 544q-92 0 -143 72l20 17q46 -62 123 -62q79 0 122 62l21 -17q-51 -72 -143 -72zM86 0v483h30v-435l298 435h28v-483h-30v439l-298 -439h-28z" />
    <glyph glyph-name="uni043A" unicode="&#x43a;" horiz-adv-x="496" 
d="M428 0l-212 243l-100 -92v-151h-30v483h30v-294l315 294h43l-235 -218l232 -265h-43z" />
    <glyph glyph-name="uni043B" unicode="&#x43b;" 
d="M18 15q28 0 49.5 25t44.5 108.5t40 228.5l12 106h278v-483h-30v456h-224l-9 -80q-18 -158 -43 -245.5t-51.5 -115t-66.5 -27.5v27z" />
    <glyph glyph-name="uni043C" unicode="&#x43c;" horiz-adv-x="632" 
d="M516 0v444l-195 -444h-9l-196 444v-444h-30v483h41l189 -430l188 430h42v-483h-30z" />
    <glyph glyph-name="uni043D" unicode="&#x43d;" 
d="M86 0v483h30v-218h296v218h30v-483h-30v238h-296v-238h-30z" />
    <glyph glyph-name="uni043E" unicode="&#x43e;" horiz-adv-x="570" 
d="M285 -12q-100 0 -162.5 72.5t-62.5 181.5q0 108 62.5 180.5t162.5 72.5q101 0 163 -72t62 -181t-62 -181.5t-163 -72.5zM285 15q89 0 140.5 66.5t51.5 160.5q0 93 -51.5 159.5t-140.5 66.5q-88 0 -140 -66.5t-52 -159.5q0 -94 52 -160.5t140 -66.5z" />
    <glyph glyph-name="uni043F" unicode="&#x43f;" 
d="M412 0v456h-296v-456h-30v483h356v-483h-30z" />
    <glyph glyph-name="uni0440" unicode="&#x440;" horiz-adv-x="566" 
d="M116 -184h-30v667h30v-81q26 40 73 66.5t101 26.5q98 0 157 -69t59 -184q0 -114 -59.5 -184t-156.5 -70q-53 0 -98.5 25.5t-75.5 69.5v-267zM473 242q0 99 -48.5 162.5t-134.5 63.5q-54 0 -102 -28t-72 -68v-259q24 -40 72 -69t102 -29q86 0 134.5 64t48.5 163z" />
    <glyph glyph-name="uni0441" unicode="&#x441;" horiz-adv-x="493" 
d="M60 242q0 107 63 180t165 73q56 0 94 -20t71 -61l-22 -18q-53 72 -141 72q-91 0 -144 -64.5t-53 -161.5q0 -98 53.5 -162.5t143.5 -64.5q87 0 141 73l22 -19q-33 -41 -71 -61t-94 -20q-102 0 -165 73.5t-63 180.5z" />
    <glyph glyph-name="uni0442" unicode="&#x442;" horiz-adv-x="379" 
d="M174 0v456h-143v27h317v-27h-144v-456h-30z" />
    <glyph glyph-name="uni0443" unicode="&#x443;" horiz-adv-x="471" 
d="M56 -161q18 -8 42 -8q25 0 42.5 14.5t33.5 51.5l44 100l-207 486h35l190 -448l189 448h35l-256 -597q-36 -82 -106 -82q-27 0 -48 7z" />
    <glyph glyph-name="uni0444" unicode="&#x444;" horiz-adv-x="680" 
d="M355 495q129 -4 197 -73.5t68 -179.5q0 -109 -68.5 -179.5t-196.5 -74.5v-172h-30v172q-128 4 -196.5 74.5t-68.5 179.5q0 110 68 179.5t197 73.5v172h30v-172zM93 242q0 -95 57.5 -159t174.5 -68v453q-117 -4 -174.5 -67.5t-57.5 -158.5zM355 15q117 4 174.5 68
t57.5 159t-57.5 158.5t-174.5 67.5v-453z" />
    <glyph glyph-name="uni0445" unicode="&#x445;" horiz-adv-x="472" 
d="M411 0l-175 228l-175 -228h-39l197 248l-186 235h39l164 -214l164 214h39l-186 -235l197 -248h-39z" />
    <glyph glyph-name="uni0446" unicode="&#x446;" horiz-adv-x="539" 
d="M469 0h-383v483h30v-456h290v456h30v-456h60v-150h-27v123z" />
    <glyph glyph-name="uni0447" unicode="&#x447;" 
d="M116 483v-145q0 -80 33.5 -110.5t102.5 -30.5q41 0 87.5 11.5t72.5 27.5v247h30v-483h-30v211q-76 -41 -160 -41q-86 0 -126 38t-40 130v145h30z" />
    <glyph glyph-name="uni0448" unicode="&#x448;" horiz-adv-x="771" 
d="M685 483v-483h-599v483h30v-456h254v456h30v-456h255v456h30z" />
    <glyph glyph-name="uni0449" unicode="&#x449;" horiz-adv-x="788" 
d="M685 483v-456h60v-150h-27v123h-632v483h30v-456h254v456h30v-456h255v456h30z" />
    <glyph glyph-name="uni044A" unicode="&#x44a;" horiz-adv-x="584" 
d="M174 0v456h-143v27h173v-186h185q72 0 111.5 -44t39.5 -105q0 -60 -39.5 -104t-111.5 -44h-215zM204 270v-243h185q58 0 88.5 34.5t30.5 86.5q0 53 -30 87.5t-89 34.5h-185z" />
    <glyph glyph-name="uni044B" unicode="&#x44b;" horiz-adv-x="655" 
d="M116 483v-186h185q72 0 111.5 -44t39.5 -105q0 -60 -39.5 -104t-111.5 -44h-215v483h30zM539 0v483h30v-483h-30zM116 270v-243h185q58 0 88.5 34.5t30.5 86.5q0 53 -30 87.5t-89 34.5h-185z" />
    <glyph glyph-name="uni044C" unicode="&#x44c;" horiz-adv-x="496" 
d="M116 483v-186h185q72 0 111.5 -44t39.5 -105q0 -60 -39.5 -104t-111.5 -44h-215v483h30zM116 270v-243h185q58 0 88.5 34.5t30.5 86.5q0 53 -30 87.5t-89 34.5h-185z" />
    <glyph glyph-name="uni044D" unicode="&#x44d;" horiz-adv-x="523" 
d="M226 495q105 0 171 -73t66 -180q0 -111 -66 -182.5t-171 -71.5q-108 0 -186 81l18 19q68 -73 168 -73q90 0 145.5 62.5t57.5 154.5h-308v27h308q-3 80 -56.5 144.5t-146.5 64.5q-91 0 -156 -73l-18 19q71 81 174 81z" />
    <glyph glyph-name="uni044E" unicode="&#x44e;" horiz-adv-x="733" 
d="M448 495q101 0 163 -72t62 -181t-62 -181.5t-163 -72.5q-99 0 -161 71.5t-64 178.5h-107v-238h-30v483h30v-218h108q7 100 68 165t156 65zM448 15q89 0 140.5 66.5t51.5 160.5q0 93 -51.5 159.5t-140.5 66.5q-88 0 -140 -66.5t-52 -159.5q0 -94 52 -160.5t140 -66.5z" />
    <glyph glyph-name="uni044F" unicode="&#x44f;" horiz-adv-x="527" 
d="M72 0l142 206q-63 1 -101 39.5t-38 99.5q0 60 38.5 99t103.5 39h224v-483h-30v206h-163l-138 -206h-38zM411 233v223h-194q-52 0 -81 -30t-29 -81t28 -81.5t82 -30.5h194z" />
    <glyph glyph-name="uni0451" unicode="&#x451;" horiz-adv-x="571" 
d="M185 570q-11 0 -19.5 8.5t-8.5 19.5t8.5 19.5t19.5 8.5t19.5 -8.5t8.5 -19.5t-8.5 -19.5t-19.5 -8.5zM387 570q-11 0 -19.5 8.5t-8.5 19.5t8.5 19.5t19.5 8.5t19.5 -8.5t8.5 -19.5t-8.5 -19.5t-19.5 -8.5zM60 242q0 106 65 179.5t162 73.5q106 0 165 -73t59 -180v-10
h-417q2 -92 57.5 -154.5t145.5 -62.5q100 0 168 73l18 -19q-78 -81 -186 -81q-105 0 -171 71.5t-66 182.5zM286 468q-87 0 -138 -64.5t-54 -144.5h385q0 49 -20 95.5t-65.5 80t-107.5 33.5z" />
    <glyph glyph-name="uni0452" unicode="&#x452;" 
d="M272 -186l10 27q20 -9 45 -9q85 0 85 92v413q0 72 -32 101.5t-93 29.5q-48 0 -96 -26.5t-75 -64.5v-377h-30v541h-76v27h76v99h30v-99h166v-27h-166v-134q29 35 78 61.5t97 26.5q75 0 113 -37.5t38 -120.5v-413q0 -60 -30.5 -90t-84.5 -30q-31 0 -55 10z" />
    <glyph glyph-name="uni0453" unicode="&#x453;" horiz-adv-x="413" 
d="M248 556h-30l160 144h45zM382 456h-266v-456h-30v483h296v-27z" />
    <glyph glyph-name="uni0454" unicode="&#x454;" horiz-adv-x="523" 
d="M297 15q100 0 168 73l18 -19q-78 -81 -186 -81q-105 0 -171 71.5t-66 182.5q0 107 66 180t171 73q103 0 174 -81l-18 -19q-65 73 -156 73q-93 0 -146.5 -64.5t-56.5 -144.5h308v-27h-308q2 -92 57.5 -154.5t145.5 -62.5z" />
    <glyph glyph-name="uni0455" unicode="&#x455;" horiz-adv-x="454" 
d="M44 65l24 22q54 -72 153 -72q65 0 104 31.5t39 80.5q0 25 -11 43.5t-36 31.5t-43.5 19t-55.5 16q-33 9 -49 13.5t-42.5 16t-39 23t-23 32t-10.5 45.5q0 55 44 91.5t120 36.5q109 0 166 -73l-22 -20q-46 66 -144 66q-62 0 -98 -28.5t-36 -72.5q0 -18 8.5 -32.5t18 -23.5
t33 -18t35.5 -12.5t43 -11.5q33 -8 50.5 -13.5t44.5 -17.5t41 -25t25 -35.5t11 -50.5q0 -60 -44.5 -99.5t-128.5 -39.5q-110 0 -177 77z" />
    <glyph glyph-name="uni0456" unicode="&#x456;" horiz-adv-x="202" 
d="M101 566q-11 0 -20 8.5t-9 20.5t9 20.5t20 8.5q12 0 20.5 -8.5t8.5 -20.5t-8.5 -20.5t-20.5 -8.5zM86 0v483h30v-483h-30z" />
    <glyph glyph-name="uni0457" unicode="&#x457;" horiz-adv-x="202" 
d="M0 570q-11 0 -19.5 8.5t-8.5 19.5t8.5 19.5t19.5 8.5t19.5 -8.5t8.5 -19.5t-8.5 -19.5t-19.5 -8.5zM202 570q-11 0 -19.5 8.5t-8.5 19.5t8.5 19.5t19.5 8.5t19.5 -8.5t8.5 -19.5t-8.5 -19.5t-19.5 -8.5zM86 0v483h30v-483h-30z" />
    <glyph glyph-name="uni0458" unicode="&#x458;" horiz-adv-x="202" 
d="M101 566q-11 0 -20 8.5t-9 20.5t9 20.5t20 8.5q12 0 20.5 -8.5t8.5 -20.5t-8.5 -20.5t-20.5 -8.5zM116 483v-559q0 -60 -30.5 -90t-84.5 -30q-31 0 -55 10l10 27q19 -9 45 -9q85 0 85 92v559h30z" />
    <glyph glyph-name="uni0459" unicode="&#x459;" horiz-adv-x="822" 
d="M18 15q28 0 49.5 25t44.5 108.5t40 228.5l12 106h278v-186h185q72 0 111.5 -44t39.5 -105q0 -60 -39.5 -104t-111.5 -44h-215v456h-224l-9 -80q-18 -158 -43 -245.5t-51.5 -115t-66.5 -27.5v27zM442 270v-243h185q58 0 88.5 34.5t30.5 86.5q0 53 -30 88t-89 35z" />
    <glyph glyph-name="uni045A" unicode="&#x45a;" horiz-adv-x="822" 
d="M86 0v483h30v-218h296v218h30v-198h192q69 0 106.5 -42t37.5 -101q0 -58 -37.5 -100t-106.5 -42h-222v238h-296v-238h-30zM442 258v-231h191q55 0 84 33t29 82q0 50 -28 83t-85 33h-191z" />
    <glyph glyph-name="uni045B" unicode="&#x45b;" 
d="M291 495q75 0 113 -36.5t38 -119.5v-339h-30v339q0 72 -32 100.5t-93 28.5q-48 0 -96 -26.5t-75 -64.5v-377h-30v541h-76v27h76v99h30v-99h166v-27h-166v-134q29 35 78 61.5t97 26.5z" />
    <glyph glyph-name="uni045C" unicode="&#x45c;" horiz-adv-x="496" 
d="M272 556h-30l160 144h45zM428 0l-212 243l-100 -92v-151h-30v483h30v-294l315 294h43l-235 -218l232 -265h-43z" />
    <glyph glyph-name="uni045E" unicode="&#x45e;" horiz-adv-x="471" 
d="M236 544q-92 0 -143 72l20 17q46 -62 123 -62q79 0 122 62l21 -17q-51 -72 -143 -72zM56 -161q18 -8 42 -8q25 0 42.5 14.5t33.5 51.5l44 100l-207 486h35l190 -448l189 448h35l-256 -597q-36 -82 -106 -82q-27 0 -48 7z" />
    <glyph glyph-name="uni045F" unicode="&#x45f;" horiz-adv-x="522" 
d="M436 483v-483h-161v-125h-27v125h-162v483h30v-456h290v456h30z" />
    <glyph glyph-name="uni0490" unicode="&#x490;" horiz-adv-x="533" 
d="M120 0h-32v667h378v124h30v-154h-376v-637z" />
    <glyph glyph-name="uni0491" unicode="&#x491;" horiz-adv-x="413" 
d="M116 0h-30v483h269v125h27v-152h-266v-456z" />
    <glyph glyph-name="uni0492" unicode="&#x492;" horiz-adv-x="533" 
d="M496 637h-376v-289h219v-30h-219v-318h-32v318h-76v30h76v319h408v-30z" />
    <glyph glyph-name="uni0493" unicode="&#x493;" horiz-adv-x="413" 
d="M382 456h-266v-197h150v-27h-150v-232h-30v232h-74v27h74v224h296v-27z" />
    <glyph glyph-name="uni049A" unicode="&#x49a;" horiz-adv-x="571" 
d="M511 31h33v-154h-30v123h-17l-297 328l-80 -87v-241h-32v667h32v-385l347 385h43l-290 -319z" />
    <glyph glyph-name="uni049B" unicode="&#x49b;" horiz-adv-x="499" 
d="M447 27h30v-150h-27v123h-22l-212 243l-100 -92v-151h-30v483h30v-294l315 294h43l-235 -218z" />
    <glyph glyph-name="uni04B2" unicode="&#x4b2;" horiz-adv-x="642" 
d="M588 31h32v-154h-30v123h-19l-252 318l-252 -318h-42l276 342l-261 325h43l236 -299l236 299h43l-261 -324z" />
    <glyph glyph-name="uni04B3" unicode="&#x4b3;" horiz-adv-x="480" 
d="M429 27h29v-150h-27v123h-20l-175 228l-175 -228h-39l197 248l-186 235h39l164 -214l164 214h39l-186 -235z" />
    <glyph glyph-name="uni04E8" unicode="&#x4e8;" horiz-adv-x="764" 
d="M382 678q142 0 229.5 -98.5t87.5 -246.5t-87.5 -246.5t-229.5 -98.5q-143 0 -230 98.5t-87 246.5t87 246.5t230 98.5zM382 648q-122 0 -198 -80.5t-83 -209.5h562q-7 129 -83.5 209.5t-197.5 80.5zM382 18q125 0 202.5 87.5t79.5 222.5h-564q2 -136 79 -223t203 -87z" />
    <glyph glyph-name="uni04E9" unicode="&#x4e9;" horiz-adv-x="570" 
d="M285 495q101 0 163 -72t62 -181t-62 -181.5t-163 -72.5q-100 0 -162.5 72.5t-62.5 181.5q0 108 62.5 180.5t162.5 72.5zM285 468q-84 0 -135 -61t-57 -148h384q-6 88 -57 148.5t-135 60.5zM285 15q86 0 137.5 63t54.5 154h-384q3 -91 54.5 -154t137.5 -63z" />
    <glyph glyph-name="uni1E02" unicode="&#x1e02;" horiz-adv-x="600" 
d="M267 762q0 12 9 20.5t20 8.5q12 0 20.5 -8.5t8.5 -20.5t-8.5 -20.5t-20.5 -8.5q-11 0 -20 8.5t-9 20.5zM88 0v667h251q82 0 132 -44.5t50 -125.5q0 -60 -35 -101.5t-83 -51.5q53 -8 92 -57t39 -107q0 -85 -51.5 -132.5t-139.5 -47.5h-255zM120 358h219q71 0 109 39
t38 100q0 60 -38.5 100t-108.5 40h-219v-279zM120 30h223q73 0 114.5 40t41.5 109q0 61 -41 105t-115 44h-223v-298z" />
    <glyph glyph-name="uni1E03" unicode="&#x1e03;" horiz-adv-x="566" 
d="M261 762q0 12 9 20.5t20 8.5q12 0 20.5 -8.5t8.5 -20.5t-8.5 -20.5t-20.5 -8.5q-11 0 -20 8.5t-9 20.5zM86 0v667h30v-267q30 44 75.5 69.5t98.5 25.5q97 0 156.5 -70t59.5 -184q0 -115 -59 -184t-157 -69q-54 0 -101 26.5t-73 66.5v-81h-30zM116 111q24 -40 72 -68
t102 -28q86 0 134.5 63.5t48.5 162.5t-48.5 163t-134.5 64q-54 0 -102 -29t-72 -69v-259z" />
    <glyph glyph-name="uni1E0A" unicode="&#x1e0a;" horiz-adv-x="684" 
d="M317 762q0 12 9 20.5t20 8.5q12 0 20.5 -8.5t8.5 -20.5t-8.5 -20.5t-20.5 -8.5q-11 0 -20 8.5t-9 20.5zM88 0v667h198q150 0 241 -97.5t91 -236.5q0 -140 -90.5 -236.5t-241.5 -96.5h-198zM120 30h166q138 0 217.5 86t79.5 217q0 130 -80 217t-217 87h-166v-607z" />
    <glyph glyph-name="uni1E0B" unicode="&#x1e0b;" horiz-adv-x="566" 
d="M256 762q0 12 9 20.5t20 8.5q12 0 20.5 -8.5t8.5 -20.5t-8.5 -20.5t-20.5 -8.5q-11 0 -20 8.5t-9 20.5zM450 0v81q-26 -40 -73 -66.5t-101 -26.5q-98 0 -157 69t-59 184q0 114 59.5 184t156.5 70q53 0 98.5 -25.5t75.5 -69.5v267h30v-667h-30zM450 111v259q-24 40 -72 69
t-102 29q-86 0 -134.5 -64t-48.5 -163t48.5 -162.5t134.5 -63.5q54 0 102 28t72 68z" />
    <glyph glyph-name="uni1E1E" unicode="&#x1e1e;" horiz-adv-x="533" 
d="M268 762q0 12 9 20.5t20 8.5q12 0 20.5 -8.5t8.5 -20.5t-8.5 -20.5t-20.5 -8.5q-11 0 -20 8.5t-9 20.5zM88 0v667h408v-30h-376v-279h369v-30h-369v-328h-32z" />
    <glyph glyph-name="uni1E1F" unicode="&#x1e1f;" horiz-adv-x="246" 
d="M163 762q0 12 9 20.5t20 8.5q12 0 20.5 -8.5t8.5 -20.5t-8.5 -20.5t-20.5 -8.5q-11 0 -20 8.5t-9 20.5zM100 0v456h-80v27h80v51q0 67 32 105t89 38q35 0 57 -13l-13 -26q-21 12 -44 12q-91 0 -91 -116v-51h98v-27h-98v-456h-30z" />
    <glyph glyph-name="uni1E22" unicode="&#x1e22;" horiz-adv-x="695" 
d="M319 762q0 12 9 20.5t20 8.5q12 0 20.5 -8.5t8.5 -20.5t-8.5 -20.5t-20.5 -8.5q-11 0 -20 8.5t-9 20.5zM575 0v328h-455v-328h-32v667h32v-309h455v309h32v-667h-32z" />
    <glyph glyph-name="uni1E23" unicode="&#x1e23;" 
d="M235 762q0 12 9 20.5t20 8.5q12 0 20.5 -8.5t8.5 -20.5t-8.5 -20.5t-20.5 -8.5q-11 0 -20 8.5t-9 20.5zM412 0v339q0 72 -32 100.5t-93 28.5q-48 0 -96 -26.5t-75 -64.5v-377h-30v667h30v-260q29 35 78 61.5t97 26.5q75 0 113 -36.5t38 -119.5v-339h-30z" />
    <glyph glyph-name="uni1E56" unicode="&#x1e56;" horiz-adv-x="555" 
d="M265 762q0 12 9 20.5t20 8.5q12 0 20.5 -8.5t8.5 -20.5t-8.5 -20.5t-20.5 -8.5q-11 0 -20 8.5t-9 20.5zM88 0v667h231q90 0 142.5 -54.5t52.5 -134.5q0 -79 -53 -134t-142 -55h-199v-289h-32zM479 478q0 70 -44 114.5t-117 44.5h-198v-318h198q73 0 117 44.5t44 114.5z
" />
    <glyph glyph-name="uni1E57" unicode="&#x1e57;" horiz-adv-x="566" 
d="M261 595q0 12 9 20.5t20 8.5q12 0 20.5 -8.5t8.5 -20.5t-8.5 -20.5t-20.5 -8.5q-11 0 -20 8.5t-9 20.5zM116 -184h-30v667h30v-81q26 40 73 66.5t101 26.5q98 0 157 -69t59 -184q0 -114 -59.5 -184t-156.5 -70q-53 0 -98.5 25.5t-75.5 69.5v-267zM473 242
q0 99 -48.5 162.5t-134.5 63.5q-54 0 -102 -28t-72 -68v-259q24 -40 72 -69t102 -29q86 0 134.5 64t48.5 163z" />
    <glyph glyph-name="uni1E60" unicode="&#x1e60;" horiz-adv-x="575" 
d="M254 762q0 12 9 20.5t20 8.5q12 0 20.5 -8.5t8.5 -20.5t-8.5 -20.5t-20.5 -8.5q-11 0 -20 8.5t-9 20.5zM53 94l26 23q81 -99 207 -99q55 0 95 14.5t60 38t29 48t9 50.5q0 31 -12 56t-27.5 40.5t-45.5 29.5t-51.5 21t-59.5 18q-42 12 -62.5 18.5t-54 21.5t-50 31t-29.5 43
t-13 60q0 78 61 124t148 46q140 0 216 -94l-25 -23q-67 87 -191 87q-74 0 -124 -39.5t-50 -100.5q0 -26 11.5 -47t25 -34t43.5 -25.5t48.5 -18.5t56.5 -17q42 -12 65 -20t57.5 -24.5t52 -35t31.5 -49t14 -68.5q0 -31 -11 -60.5t-35 -58t-71 -45.5t-111 -17q-75 0 -135 29
t-98 77z" />
    <glyph glyph-name="uni1E61" unicode="&#x1e61;" horiz-adv-x="454" 
d="M189 595q0 12 9 20.5t20 8.5q12 0 20.5 -8.5t8.5 -20.5t-8.5 -20.5t-20.5 -8.5q-11 0 -20 8.5t-9 20.5zM44 65l24 22q54 -72 153 -72q65 0 104 31.5t39 80.5q0 25 -11 43.5t-36 31.5t-43.5 19t-55.5 16q-33 9 -49 13.5t-42.5 16t-39 23t-23 32t-10.5 45.5q0 55 44 91.5
t120 36.5q109 0 166 -73l-22 -20q-46 66 -144 66q-62 0 -98 -28.5t-36 -72.5q0 -18 8.5 -32.5t18 -23.5t33 -18t35.5 -12.5t43 -11.5q33 -8 50.5 -13.5t44.5 -17.5t41 -25t25 -35.5t11 -50.5q0 -60 -44.5 -99.5t-128.5 -39.5q-110 0 -177 77z" />
    <glyph glyph-name="uni1E6A" unicode="&#x1e6a;" horiz-adv-x="559" 
d="M251 762q0 12 9 20.5t20 8.5q12 0 20.5 -8.5t8.5 -20.5t-8.5 -20.5t-20.5 -8.5q-11 0 -20 8.5t-9 20.5zM263 0v637h-225v30h483v-30h-226v-637h-32z" />
    <glyph glyph-name="uni1E6B" unicode="&#x1e6b;" horiz-adv-x="256" 
d="M78 762q0 12 9 20.5t20 8.5q12 0 20.5 -8.5t8.5 -20.5t-8.5 -20.5t-20.5 -8.5q-11 0 -20 8.5t-9 20.5zM174 -12q-82 0 -82 97v371h-80v27h80v132h30v-132h98v-27h-98v-371q0 -70 52 -70q35 0 57 26l18 -23q-32 -30 -75 -30z" />
    <glyph glyph-name="Wgrave" unicode="&#x1e80;" horiz-adv-x="852" 
d="M411 723l-175 144h45l160 -144h-30zM599 0l-173 607l-173 -607h-38l-190 667h35l174 -619l175 619h34l175 -619l174 619h35l-190 -667h-38z" />
    <glyph glyph-name="wgrave" unicode="&#x1e81;" horiz-adv-x="704" 
d="M337 556l-175 144h45l160 -144h-30zM498 0l-146 438l-146 -438h-24l-160 483h33l140 -436l145 436h24l145 -436l140 436h33l-160 -483h-24z" />
    <glyph glyph-name="Wacute" unicode="&#x1e82;" horiz-adv-x="852" 
d="M440 723h-30l160 144h45zM599 0l-173 607l-173 -607h-38l-190 667h35l174 -619l175 619h34l175 -619l174 619h35l-190 -667h-38z" />
    <glyph glyph-name="wacute" unicode="&#x1e83;" horiz-adv-x="704" 
d="M366 556h-30l160 144h45zM498 0l-146 438l-146 -438h-24l-160 483h33l140 -436l145 436h24l145 -436l140 436h33l-160 -483h-24z" />
    <glyph glyph-name="Wdieresis" unicode="&#x1e84;" horiz-adv-x="852" 
d="M325 737q-11 0 -19.5 8.5t-8.5 19.5t8.5 19.5t19.5 8.5t19.5 -8.5t8.5 -19.5t-8.5 -19.5t-19.5 -8.5zM527 737q-11 0 -19.5 8.5t-8.5 19.5t8.5 19.5t19.5 8.5t19.5 -8.5t8.5 -19.5t-8.5 -19.5t-19.5 -8.5zM599 0l-173 607l-173 -607h-38l-190 667h35l174 -619l175 619h34
l175 -619l174 619h35l-190 -667h-38z" />
    <glyph glyph-name="wdieresis" unicode="&#x1e85;" horiz-adv-x="704" 
d="M251 570q-11 0 -19.5 8.5t-8.5 19.5t8.5 19.5t19.5 8.5t19.5 -8.5t8.5 -19.5t-8.5 -19.5t-19.5 -8.5zM453 570q-11 0 -19.5 8.5t-8.5 19.5t8.5 19.5t19.5 8.5t19.5 -8.5t8.5 -19.5t-8.5 -19.5t-19.5 -8.5zM498 0l-146 438l-146 -438h-24l-160 483h33l140 -436l145 436h24
l145 -436l140 436h33l-160 -483h-24z" />
    <glyph glyph-name="uni1E9E" unicode="&#x1e9e;" horiz-adv-x="644" 
d="M350 382q253 -9 253 -201q0 -88 -58 -140.5t-149 -52.5q-106 0 -186 78l22 24q68 -72 164 -72q78 0 125 44.5t47 118.5q0 171 -244 171h-16v30l186 207q-57 59 -158 59q-104 0 -160 -61.5t-56 -173.5v-413h-32v413q0 125 64 195t184 70q136 0 200 -89z" />
    <glyph glyph-name="uni1EA0" unicode="&#x1ea0;" horiz-adv-x="636" 
d="M578 0l-74 179h-372l-74 -179h-37l278 667h38l278 -667h-37zM318 630l-174 -421h348zM289 -145q0 12 9 20.5t20 8.5q12 0 20.5 -8.5t8.5 -20.5t-8.5 -20.5t-20.5 -8.5q-11 0 -20 8.5t-9 20.5z" />
    <glyph glyph-name="uni1EA1" unicode="&#x1ea1;" horiz-adv-x="514" 
d="M398 0v59q-65 -71 -167 -71q-68 0 -118.5 43.5t-50.5 117.5t50 117.5t119 43.5q102 0 167 -71v109q0 56 -39 88t-97 32q-92 0 -155 -76l-23 20q37 43 78 63t100 20q74 0 120 -37.5t46 -108.5v-349h-30zM398 89v120q-56 74 -159 74q-65 0 -104.5 -38.5t-39.5 -95.5
t39.5 -95.5t104.5 -38.5q103 0 159 74zM234 -145q0 12 9 20.5t20 8.5q12 0 20.5 -8.5t8.5 -20.5t-8.5 -20.5t-20.5 -8.5q-11 0 -20 8.5t-9 20.5z" />
    <glyph glyph-name="uni1EA2" unicode="&#x1ea2;" horiz-adv-x="636" 
d="M227 815q9 28 30.5 48t55.5 20q36 0 60 -22t24 -64q0 -36 -28 -73h-35q34 34 34 73q0 28 -14.5 43t-40.5 15q-44 0 -59 -48zM578 0l-74 179h-372l-74 -179h-37l278 667h38l278 -667h-37zM318 630l-174 -421h348z" />
    <glyph glyph-name="uni1EA3" unicode="&#x1ea3;" horiz-adv-x="514" 
d="M172 648q9 28 30.5 48t55.5 20q36 0 60 -22t24 -64q0 -36 -28 -73h-35q34 34 34 73q0 28 -14.5 43t-40.5 15q-44 0 -59 -48zM398 0v59q-65 -71 -167 -71q-68 0 -118.5 43.5t-50.5 117.5t50 117.5t119 43.5q102 0 167 -71v109q0 56 -39 88t-97 32q-92 0 -155 -76l-23 20
q37 43 78 63t100 20q74 0 120 -37.5t46 -108.5v-349h-30zM398 89v120q-56 74 -159 74q-65 0 -104.5 -38.5t-39.5 -95.5t39.5 -95.5t104.5 -38.5q103 0 159 74z" />
    <glyph glyph-name="uni1EA4" unicode="&#x1ea4;" horiz-adv-x="636" 
d="M433 780h-30l160 108h45zM409 705l-91 90l-88 -90h-28l98 108h36l101 -108h-28zM578 0l-74 179h-372l-74 -179h-37l278 667h38l278 -667h-37zM318 630l-174 -421h348z" />
    <glyph glyph-name="uni1EA5" unicode="&#x1ea5;" horiz-adv-x="514" 
d="M378 656h-30l160 144h45zM354 556l-91 120l-88 -120h-28l98 144h36l101 -144h-28zM398 0v59q-65 -71 -167 -71q-68 0 -118.5 43.5t-50.5 117.5t50 117.5t119 43.5q102 0 167 -71v109q0 56 -39 88t-97 32q-92 0 -155 -76l-23 20q37 43 78 63t100 20q74 0 120 -37.5
t46 -108.5v-349h-30zM398 89v120q-56 74 -159 74q-65 0 -104.5 -38.5t-39.5 -95.5t39.5 -95.5t104.5 -38.5q103 0 159 74z" />
    <glyph glyph-name="uni1EA6" unicode="&#x1ea6;" horiz-adv-x="636" 
d="M205 780l-175 108h45l160 -108h-30zM409 705l-91 90l-88 -90h-28l98 108h36l101 -108h-28zM578 0l-74 179h-372l-74 -179h-37l278 667h38l278 -667h-37zM318 630l-174 -421h348z" />
    <glyph glyph-name="uni1EA7" unicode="&#x1ea7;" horiz-adv-x="514" 
d="M150 656l-175 144h45l160 -144h-30zM354 556l-91 120l-88 -120h-28l98 144h36l101 -144h-28zM398 0v59q-65 -71 -167 -71q-68 0 -118.5 43.5t-50.5 117.5t50 117.5t119 43.5q102 0 167 -71v109q0 56 -39 88t-97 32q-92 0 -155 -76l-23 20q37 43 78 63t100 20
q74 0 120 -37.5t46 -108.5v-349h-30zM398 89v120q-56 74 -159 74q-65 0 -104.5 -38.5t-39.5 -95.5t39.5 -95.5t104.5 -38.5q103 0 159 74z" />
    <glyph glyph-name="uni1EA8" unicode="&#x1ea8;" horiz-adv-x="636" 
d="M296 848q20 51 86 51q36 0 60 -16t24 -48q0 -27 -28 -55h-35q34 26 34 55q0 20 -14.5 31.5t-40.5 11.5q-44 0 -59 -36zM409 705l-91 90l-88 -90h-28l98 108h36l101 -108h-28zM578 0l-74 179h-372l-74 -179h-37l278 667h38l278 -667h-37zM318 630l-174 -421h348z" />
    <glyph glyph-name="uni1EA9" unicode="&#x1ea9;" horiz-adv-x="514" 
d="M241 747q9 28 30.5 48t55.5 20q36 0 60 -22t24 -64q0 -36 -28 -73h-35q34 34 34 73q0 28 -14.5 43t-40.5 15q-44 0 -59 -48zM354 556l-91 120l-88 -120h-28l98 144h36l101 -144h-28zM398 0v59q-65 -71 -167 -71q-68 0 -118.5 43.5t-50.5 117.5t50 117.5t119 43.5
q102 0 167 -71v109q0 56 -39 88t-97 32q-92 0 -155 -76l-23 20q37 43 78 63t100 20q74 0 120 -37.5t46 -108.5v-349h-30zM398 89v120q-56 74 -159 74q-65 0 -104.5 -38.5t-39.5 -95.5t39.5 -95.5t104.5 -38.5q103 0 159 74z" />
    <glyph glyph-name="uni1EAA" unicode="&#x1eaa;" horiz-adv-x="636" 
d="M306 872q-27 37 -53 37t-42.5 -20t-16.5 -60h-26q0 43 23.5 72t64.5 29q19 0 34.5 -8t22.5 -16.5t18 -23.5q27 -37 53 -37t42.5 20t16.5 60h26q0 -42 -23.5 -71t-64.5 -29q-20 0 -35 8t-22 16t-18 23zM409 705l-91 90l-88 -90h-28l98 108h36l101 -108h-28zM578 0l-74 179
h-372l-74 -179h-37l278 667h38l278 -667h-37zM318 630l-174 -421h348z" />
    <glyph glyph-name="uni1EAB" unicode="&#x1eab;" horiz-adv-x="514" 
d="M251 779q-9 17 -14.5 25.5t-16 16.5t-22.5 8q-26 0 -42.5 -26.5t-16.5 -80.5h-26q0 57 23.5 95.5t64.5 38.5q15 0 26.5 -5t21 -16t14.5 -19t13 -23q9 -17 14.5 -25.5t16 -16.5t22.5 -8q26 0 42.5 26.5t16.5 80.5h26q0 -57 -23.5 -95.5t-64.5 -38.5q-20 0 -35.5 11t-22 21
t-17.5 31zM354 556l-91 120l-88 -120h-28l98 144h36l101 -144h-28zM398 0v59q-65 -71 -167 -71q-68 0 -118.5 43.5t-50.5 117.5t50 117.5t119 43.5q102 0 167 -71v109q0 56 -39 88t-97 32q-92 0 -155 -76l-23 20q37 43 78 63t100 20q74 0 120 -37.5t46 -108.5v-349h-30z
M398 89v120q-56 74 -159 74q-65 0 -104.5 -38.5t-39.5 -95.5t39.5 -95.5t104.5 -38.5q103 0 159 74z" />
    <glyph glyph-name="uni1EAC" unicode="&#x1eac;" horiz-adv-x="636" 
d="M409 723l-91 120l-88 -120h-28l98 144h36l101 -144h-28zM578 0l-74 179h-372l-74 -179h-37l278 667h38l278 -667h-37zM318 630l-174 -421h348zM289 -145q0 12 9 20.5t20 8.5q12 0 20.5 -8.5t8.5 -20.5t-8.5 -20.5t-20.5 -8.5q-11 0 -20 8.5t-9 20.5z" />
    <glyph glyph-name="uni1EAD" unicode="&#x1ead;" horiz-adv-x="514" 
d="M354 556l-91 120l-88 -120h-28l98 144h36l101 -144h-28zM398 0v59q-65 -71 -167 -71q-68 0 -118.5 43.5t-50.5 117.5t50 117.5t119 43.5q102 0 167 -71v109q0 56 -39 88t-97 32q-92 0 -155 -76l-23 20q37 43 78 63t100 20q74 0 120 -37.5t46 -108.5v-349h-30zM398 89v120
q-56 74 -159 74q-65 0 -104.5 -38.5t-39.5 -95.5t39.5 -95.5t104.5 -38.5q103 0 159 74zM234 -145q0 12 9 20.5t20 8.5q12 0 20.5 -8.5t8.5 -20.5t-8.5 -20.5t-20.5 -8.5q-11 0 -20 8.5t-9 20.5z" />
    <glyph glyph-name="uni1EAE" unicode="&#x1eae;" horiz-adv-x="636" 
d="M332 807h-30l160 108h45zM318 711q-109 0 -176 88l21 19q57 -80 155 -80t155 80l20 -19q-65 -88 -175 -88zM578 0l-74 179h-372l-74 -179h-37l278 667h38l278 -667h-37zM318 630l-174 -421h348z" />
    <glyph glyph-name="uni1EAF" unicode="&#x1eaf;" horiz-adv-x="514" 
d="M277 658h-30l160 144h45zM263 544q-109 0 -176 88l21 19q57 -80 155 -80t155 80l20 -19q-65 -88 -175 -88zM398 0v59q-65 -71 -167 -71q-68 0 -118.5 43.5t-50.5 117.5t50 117.5t119 43.5q102 0 167 -71v109q0 56 -39 88t-97 32q-92 0 -155 -76l-23 20q37 43 78 63
t100 20q74 0 120 -37.5t46 -108.5v-349h-30zM398 89v120q-56 74 -159 74q-65 0 -104.5 -38.5t-39.5 -95.5t39.5 -95.5t104.5 -38.5q103 0 159 74z" />
    <glyph glyph-name="uni1EB0" unicode="&#x1eb0;" horiz-adv-x="636" 
d="M303 807l-175 108h45l160 -108h-30zM318 711q-109 0 -176 88l21 19q57 -80 155 -80t155 80l20 -19q-65 -88 -175 -88zM578 0l-74 179h-372l-74 -179h-37l278 667h38l278 -667h-37zM318 630l-174 -421h348z" />
    <glyph glyph-name="uni1EB1" unicode="&#x1eb1;" horiz-adv-x="514" 
d="M248 658l-175 144h45l160 -144h-30zM263 544q-109 0 -176 88l21 19q57 -80 155 -80t155 80l20 -19q-65 -88 -175 -88zM398 0v59q-65 -71 -167 -71q-68 0 -118.5 43.5t-50.5 117.5t50 117.5t119 43.5q102 0 167 -71v109q0 56 -39 88t-97 32q-92 0 -155 -76l-23 20
q37 43 78 63t100 20q74 0 120 -37.5t46 -108.5v-349h-30zM398 89v120q-56 74 -159 74q-65 0 -104.5 -38.5t-39.5 -95.5t39.5 -95.5t104.5 -38.5q103 0 159 74z" />
    <glyph glyph-name="uni1EB2" unicode="&#x1eb2;" horiz-adv-x="636" 
d="M227 876q20 51 86 51q36 0 60 -16t24 -48q0 -27 -28 -55h-35q34 26 34 55q0 20 -14.5 31.5t-40.5 11.5q-44 0 -59 -36zM318 711q-109 0 -176 88l21 19q57 -80 155 -80t155 80l20 -19q-65 -88 -175 -88zM578 0l-74 179h-372l-74 -179h-37l278 667h38l278 -667h-37z
M318 630l-174 -421h348z" />
    <glyph glyph-name="uni1EB3" unicode="&#x1eb3;" horiz-adv-x="514" 
d="M172 750q9 28 30.5 48t55.5 20q36 0 60 -22t24 -64q0 -36 -28 -73h-35q34 34 34 73q0 28 -14.5 43t-40.5 15q-44 0 -59 -48zM263 544q-109 0 -176 88l21 19q57 -80 155 -80t155 80l20 -19q-65 -88 -175 -88zM398 0v59q-65 -71 -167 -71q-68 0 -118.5 43.5t-50.5 117.5
t50 117.5t119 43.5q102 0 167 -71v109q0 56 -39 88t-97 32q-92 0 -155 -76l-23 20q37 43 78 63t100 20q74 0 120 -37.5t46 -108.5v-349h-30zM398 89v120q-56 74 -159 74q-65 0 -104.5 -38.5t-39.5 -95.5t39.5 -95.5t104.5 -38.5q103 0 159 74z" />
    <glyph glyph-name="uni1EB4" unicode="&#x1eb4;" horiz-adv-x="636" 
d="M306 827q-27 37 -53 37t-42.5 -20t-16.5 -60h-26q0 43 23.5 72t64.5 29q19 0 34.5 -8t22.5 -16.5t18 -23.5q27 -37 53 -37t42.5 20t16.5 60h26q0 -42 -23.5 -71t-64.5 -29q-20 0 -35 8t-22 16t-18 23zM318 696q-108 0 -176 66l21 14q58 -60 155 -60t155 60l20 -14
q-66 -66 -175 -66zM578 0l-74 179h-372l-74 -179h-37l278 667h38l278 -667h-37zM318 630l-174 -421h348z" />
    <glyph glyph-name="uni1EB5" unicode="&#x1eb5;" horiz-adv-x="514" 
d="M251 719q-9 17 -14.5 25.5t-16 16.5t-22.5 8q-26 0 -42.5 -26.5t-16.5 -80.5h-26q0 57 23.5 95.5t64.5 38.5q15 0 26.5 -5t21 -16t14.5 -19t13 -23q9 -17 14.5 -25.5t16 -16.5t22.5 -8q26 0 42.5 26.5t16.5 80.5h26q0 -57 -23.5 -95.5t-64.5 -38.5q-20 0 -35.5 11t-22 21
t-17.5 31zM263 544q-109 0 -176 88l21 19q57 -80 155 -80t155 80l20 -19q-65 -88 -175 -88zM398 0v59q-65 -71 -167 -71q-68 0 -118.5 43.5t-50.5 117.5t50 117.5t119 43.5q102 0 167 -71v109q0 56 -39 88t-97 32q-92 0 -155 -76l-23 20q37 43 78 63t100 20q74 0 120 -37.5
t46 -108.5v-349h-30zM398 89v120q-56 74 -159 74q-65 0 -104.5 -38.5t-39.5 -95.5t39.5 -95.5t104.5 -38.5q103 0 159 74z" />
    <glyph glyph-name="uni1EB6" unicode="&#x1eb6;" horiz-adv-x="636" 
d="M318 711q-109 0 -176 88l21 19q57 -80 155 -80t155 80l20 -19q-65 -88 -175 -88zM578 0l-74 179h-372l-74 -179h-37l278 667h38l278 -667h-37zM318 630l-174 -421h348zM289 -145q0 12 9 20.5t20 8.5q12 0 20.5 -8.5t8.5 -20.5t-8.5 -20.5t-20.5 -8.5q-11 0 -20 8.5
t-9 20.5z" />
    <glyph glyph-name="uni1EB7" unicode="&#x1eb7;" horiz-adv-x="514" 
d="M263 544q-109 0 -176 88l21 19q57 -80 155 -80t155 80l20 -19q-65 -88 -175 -88zM398 0v59q-65 -71 -167 -71q-68 0 -118.5 43.5t-50.5 117.5t50 117.5t119 43.5q102 0 167 -71v109q0 56 -39 88t-97 32q-92 0 -155 -76l-23 20q37 43 78 63t100 20q74 0 120 -37.5
t46 -108.5v-349h-30zM398 89v120q-56 74 -159 74q-65 0 -104.5 -38.5t-39.5 -95.5t39.5 -95.5t104.5 -38.5q103 0 159 74zM234 -145q0 12 9 20.5t20 8.5q12 0 20.5 -8.5t8.5 -20.5t-8.5 -20.5t-20.5 -8.5q-11 0 -20 8.5t-9 20.5z" />
    <glyph glyph-name="uni1EB8" unicode="&#x1eb8;" horiz-adv-x="558" 
d="M88 0v667h408v-30h-376v-279h369v-30h-369v-298h376v-30h-408zM267 -145q0 12 9 20.5t20 8.5q12 0 20.5 -8.5t8.5 -20.5t-8.5 -20.5t-20.5 -8.5q-11 0 -20 8.5t-9 20.5z" />
    <glyph glyph-name="uni1EB9" unicode="&#x1eb9;" horiz-adv-x="571" 
d="M60 242q0 106 65 179.5t162 73.5q106 0 165 -73t59 -180v-10h-417q2 -92 57.5 -154.5t145.5 -62.5q100 0 168 73l18 -19q-78 -81 -186 -81q-105 0 -171 71.5t-66 182.5zM286 468q-87 0 -138 -64.5t-54 -144.5h385q0 49 -20 95.5t-65.5 80t-107.5 33.5zM257 -145
q0 12 9 20.5t20 8.5q12 0 20.5 -8.5t8.5 -20.5t-8.5 -20.5t-20.5 -8.5q-11 0 -20 8.5t-9 20.5z" />
    <glyph glyph-name="uni1EBA" unicode="&#x1eba;" horiz-adv-x="558" 
d="M205 815q9 28 30.5 48t55.5 20q36 0 60 -22t24 -64q0 -36 -28 -73h-35q34 34 34 73q0 28 -14.5 43t-40.5 15q-44 0 -59 -48zM88 0v667h408v-30h-376v-279h369v-30h-369v-298h376v-30h-408z" />
    <glyph glyph-name="uni1EBB" unicode="&#x1ebb;" horiz-adv-x="571" 
d="M195 648q9 28 30.5 48t55.5 20q36 0 60 -22t24 -64q0 -36 -28 -73h-35q34 34 34 73q0 28 -14.5 43t-40.5 15q-44 0 -59 -48zM60 242q0 106 65 179.5t162 73.5q106 0 165 -73t59 -180v-10h-417q2 -92 57.5 -154.5t145.5 -62.5q100 0 168 73l18 -19q-78 -81 -186 -81
q-105 0 -171 71.5t-66 182.5zM286 468q-87 0 -138 -64.5t-54 -144.5h385q0 49 -20 95.5t-65.5 80t-107.5 33.5z" />
    <glyph glyph-name="uni1EBC" unicode="&#x1ebc;" horiz-adv-x="558" 
d="M284 784q-9 17 -14.5 25.5t-16 16.5t-22.5 8q-26 0 -42.5 -26.5t-16.5 -80.5h-26q0 57 23.5 95.5t64.5 38.5q15 0 26.5 -5t21 -16t14.5 -19t13 -23q9 -17 14.5 -25.5t16 -16.5t22.5 -8q26 0 42.5 26.5t16.5 80.5h26q0 -57 -23.5 -95.5t-64.5 -38.5q-20 0 -35.5 11t-22 21
t-17.5 31zM88 0v667h408v-30h-376v-279h369v-30h-369v-298h376v-30h-408z" />
    <glyph glyph-name="uni1EBD" unicode="&#x1ebd;" horiz-adv-x="571" 
d="M274 617q-9 17 -14.5 25.5t-16 16.5t-22.5 8q-26 0 -42.5 -26.5t-16.5 -80.5h-26q0 57 23.5 95.5t64.5 38.5q15 0 26.5 -5t21 -16t14.5 -19t13 -23q9 -17 14.5 -25.5t16 -16.5t22.5 -8q26 0 42.5 26.5t16.5 80.5h26q0 -57 -23.5 -95.5t-64.5 -38.5q-20 0 -35.5 11t-22 21
t-17.5 31zM60 242q0 106 65 179.5t162 73.5q106 0 165 -73t59 -180v-10h-417q2 -92 57.5 -154.5t145.5 -62.5q100 0 168 73l18 -19q-78 -81 -186 -81q-105 0 -171 71.5t-66 182.5zM286 468q-87 0 -138 -64.5t-54 -144.5h385q0 49 -20 95.5t-65.5 80t-107.5 33.5z" />
    <glyph glyph-name="uni1EBE" unicode="&#x1ebe;" horiz-adv-x="558" 
d="M411 780h-30l160 108h45zM387 705l-91 90l-88 -90h-28l98 108h36l101 -108h-28zM88 0v667h408v-30h-376v-279h369v-30h-369v-298h376v-30h-408z" />
    <glyph glyph-name="uni1EBF" unicode="&#x1ebf;" horiz-adv-x="571" 
d="M401 656h-30l160 144h45zM377 556l-91 120l-88 -120h-28l98 144h36l101 -144h-28zM60 242q0 106 65 179.5t162 73.5q106 0 165 -73t59 -180v-10h-417q2 -92 57.5 -154.5t145.5 -62.5q100 0 168 73l18 -19q-78 -81 -186 -81q-105 0 -171 71.5t-66 182.5zM286 468
q-87 0 -138 -64.5t-54 -144.5h385q0 49 -20 95.5t-65.5 80t-107.5 33.5z" />
    <glyph glyph-name="uni1EC0" unicode="&#x1ec0;" horiz-adv-x="558" 
d="M183 780l-175 108h45l160 -108h-30zM387 705l-91 90l-88 -90h-28l98 108h36l101 -108h-28zM88 0v667h408v-30h-376v-279h369v-30h-369v-298h376v-30h-408z" />
    <glyph glyph-name="uni1EC1" unicode="&#x1ec1;" horiz-adv-x="571" 
d="M173 656l-175 144h45l160 -144h-30zM377 556l-91 120l-88 -120h-28l98 144h36l101 -144h-28zM60 242q0 106 65 179.5t162 73.5q106 0 165 -73t59 -180v-10h-417q2 -92 57.5 -154.5t145.5 -62.5q100 0 168 73l18 -19q-78 -81 -186 -81q-105 0 -171 71.5t-66 182.5z
M286 468q-87 0 -138 -64.5t-54 -144.5h385q0 49 -20 95.5t-65.5 80t-107.5 33.5z" />
    <glyph glyph-name="uni1EC2" unicode="&#x1ec2;" horiz-adv-x="558" 
d="M274 848q20 51 86 51q36 0 60 -16t24 -48q0 -27 -28 -55h-35q34 26 34 55q0 20 -14.5 31.5t-40.5 11.5q-44 0 -59 -36zM387 705l-91 90l-88 -90h-28l98 108h36l101 -108h-28zM88 0v667h408v-30h-376v-279h369v-30h-369v-298h376v-30h-408z" />
    <glyph glyph-name="uni1EC3" unicode="&#x1ec3;" horiz-adv-x="571" 
d="M264 747q9 28 30.5 48t55.5 20q36 0 60 -22t24 -64q0 -36 -28 -73h-35q34 34 34 73q0 28 -14.5 43t-40.5 15q-44 0 -59 -48zM377 556l-91 120l-88 -120h-28l98 144h36l101 -144h-28zM60 242q0 106 65 179.5t162 73.5q106 0 165 -73t59 -180v-10h-417q2 -92 57.5 -154.5
t145.5 -62.5q100 0 168 73l18 -19q-78 -81 -186 -81q-105 0 -171 71.5t-66 182.5zM286 468q-87 0 -138 -64.5t-54 -144.5h385q0 49 -20 95.5t-65.5 80t-107.5 33.5z" />
    <glyph glyph-name="uni1EC4" unicode="&#x1ec4;" horiz-adv-x="558" 
d="M284 872q-27 37 -53 37t-42.5 -20t-16.5 -60h-26q0 43 23.5 72t64.5 29q19 0 34.5 -8t22.5 -16.5t18 -23.5q27 -37 53 -37t42.5 20t16.5 60h26q0 -42 -23.5 -71t-64.5 -29q-20 0 -35 8t-22 16t-18 23zM387 705l-91 90l-88 -90h-28l98 108h36l101 -108h-28zM88 0v667h408
v-30h-376v-279h369v-30h-369v-298h376v-30h-408z" />
    <glyph glyph-name="uni1EC5" unicode="&#x1ec5;" horiz-adv-x="571" 
d="M274 779q-9 17 -14.5 25.5t-16 16.5t-22.5 8q-26 0 -42.5 -26.5t-16.5 -80.5h-26q0 57 23.5 95.5t64.5 38.5q15 0 26.5 -5t21 -16t14.5 -19t13 -23q9 -17 14.5 -25.5t16 -16.5t22.5 -8q26 0 42.5 26.5t16.5 80.5h26q0 -57 -23.5 -95.5t-64.5 -38.5q-20 0 -35.5 11t-22 21
t-17.5 31zM377 556l-91 120l-88 -120h-28l98 144h36l101 -144h-28zM60 242q0 106 65 179.5t162 73.5q106 0 165 -73t59 -180v-10h-417q2 -92 57.5 -154.5t145.5 -62.5q100 0 168 73l18 -19q-78 -81 -186 -81q-105 0 -171 71.5t-66 182.5zM286 468q-87 0 -138 -64.5
t-54 -144.5h385q0 49 -20 95.5t-65.5 80t-107.5 33.5z" />
    <glyph glyph-name="uni1EC6" unicode="&#x1ec6;" horiz-adv-x="558" 
d="M387 723l-91 120l-88 -120h-28l98 144h36l101 -144h-28zM88 0v667h408v-30h-376v-279h369v-30h-369v-298h376v-30h-408zM267 -145q0 12 9 20.5t20 8.5q12 0 20.5 -8.5t8.5 -20.5t-8.5 -20.5t-20.5 -8.5q-11 0 -20 8.5t-9 20.5z" />
    <glyph glyph-name="uni1EC7" unicode="&#x1ec7;" horiz-adv-x="571" 
d="M377 556l-91 120l-88 -120h-28l98 144h36l101 -144h-28zM60 242q0 106 65 179.5t162 73.5q106 0 165 -73t59 -180v-10h-417q2 -92 57.5 -154.5t145.5 -62.5q100 0 168 73l18 -19q-78 -81 -186 -81q-105 0 -171 71.5t-66 182.5zM286 468q-87 0 -138 -64.5t-54 -144.5h385
q0 49 -20 95.5t-65.5 80t-107.5 33.5zM257 -145q0 12 9 20.5t20 8.5q12 0 20.5 -8.5t8.5 -20.5t-8.5 -20.5t-20.5 -8.5q-11 0 -20 8.5t-9 20.5z" />
    <glyph glyph-name="uni1EC8" unicode="&#x1ec8;" horiz-adv-x="208" 
d="M13 815q9 28 30.5 48t55.5 20q36 0 60 -22t24 -64q0 -36 -28 -73h-35q34 34 34 73q0 28 -14.5 43t-40.5 15q-44 0 -59 -48zM88 0v667h32v-667h-32z" />
    <glyph glyph-name="uni1EC9" unicode="&#x1ec9;" horiz-adv-x="202" 
d="M10 648q9 28 30.5 48t55.5 20q36 0 60 -22t24 -64q0 -36 -28 -73h-35q34 34 34 73q0 28 -14.5 43t-40.5 15q-44 0 -59 -48zM86 0v483h30v-483h-30z" />
    <glyph glyph-name="uni1ECA" unicode="&#x1eca;" horiz-adv-x="208" 
d="M88 0v667h32v-667h-32zM75 -145q0 12 9 20.5t20 8.5q12 0 20.5 -8.5t8.5 -20.5t-8.5 -20.5t-20.5 -8.5q-11 0 -20 8.5t-9 20.5z" />
    <glyph glyph-name="uni1ECB" unicode="&#x1ecb;" horiz-adv-x="202" 
d="M101 566q-11 0 -20 8.5t-9 20.5t9 20.5t20 8.5q12 0 20.5 -8.5t8.5 -20.5t-8.5 -20.5t-20.5 -8.5zM86 0v483h30v-483h-30zM72 -145q0 12 9 20.5t20 8.5q12 0 20.5 -8.5t8.5 -20.5t-8.5 -20.5t-20.5 -8.5q-11 0 -20 8.5t-9 20.5z" />
    <glyph glyph-name="uni1ECC" unicode="&#x1ecc;" horiz-adv-x="764" 
d="M65 333q0 148 87 246.5t230 98.5q142 0 229.5 -98.5t87.5 -246.5t-87.5 -246.5t-229.5 -98.5q-143 0 -230 98.5t-87 246.5zM664 333q0 139 -77.5 227t-204.5 88q-128 0 -205 -88t-77 -227q0 -138 77 -226.5t205 -88.5q127 0 204.5 88.5t77.5 226.5zM352 -145q0 12 9 20.5
t20 8.5q12 0 20.5 -8.5t8.5 -20.5t-8.5 -20.5t-20.5 -8.5q-11 0 -20 8.5t-9 20.5z" />
    <glyph glyph-name="uni1ECD" unicode="&#x1ecd;" horiz-adv-x="570" 
d="M285 -12q-100 0 -162.5 72.5t-62.5 181.5q0 108 62.5 180.5t162.5 72.5q101 0 163 -72t62 -181t-62 -181.5t-163 -72.5zM285 15q89 0 140.5 66.5t51.5 160.5q0 93 -51.5 159.5t-140.5 66.5q-88 0 -140 -66.5t-52 -159.5q0 -94 52 -160.5t140 -66.5zM256 -145q0 12 9 20.5
t20 8.5q12 0 20.5 -8.5t8.5 -20.5t-8.5 -20.5t-20.5 -8.5q-11 0 -20 8.5t-9 20.5z" />
    <glyph glyph-name="uni1ECE" unicode="&#x1ece;" horiz-adv-x="764" 
d="M291 815q9 28 30.5 48t55.5 20q36 0 60 -22t24 -64q0 -36 -28 -73h-35q34 34 34 73q0 28 -14.5 43t-40.5 15q-44 0 -59 -48zM65 333q0 148 87 246.5t230 98.5q142 0 229.5 -98.5t87.5 -246.5t-87.5 -246.5t-229.5 -98.5q-143 0 -230 98.5t-87 246.5zM664 333
q0 139 -77.5 227t-204.5 88q-128 0 -205 -88t-77 -227q0 -138 77 -226.5t205 -88.5q127 0 204.5 88.5t77.5 226.5z" />
    <glyph glyph-name="uni1ECF" unicode="&#x1ecf;" horiz-adv-x="570" 
d="M194 648q9 28 30.5 48t55.5 20q36 0 60 -22t24 -64q0 -36 -28 -73h-35q34 34 34 73q0 28 -14.5 43t-40.5 15q-44 0 -59 -48zM285 -12q-100 0 -162.5 72.5t-62.5 181.5q0 108 62.5 180.5t162.5 72.5q101 0 163 -72t62 -181t-62 -181.5t-163 -72.5zM285 15q89 0 140.5 66.5
t51.5 160.5q0 93 -51.5 159.5t-140.5 66.5q-88 0 -140 -66.5t-52 -159.5q0 -94 52 -160.5t140 -66.5z" />
    <glyph glyph-name="uni1ED0" unicode="&#x1ed0;" horiz-adv-x="764" 
d="M497 780h-30l160 108h45zM473 705l-91 90l-88 -90h-28l98 108h36l101 -108h-28zM65 333q0 148 87 246.5t230 98.5q142 0 229.5 -98.5t87.5 -246.5t-87.5 -246.5t-229.5 -98.5q-143 0 -230 98.5t-87 246.5zM664 333q0 139 -77.5 227t-204.5 88q-128 0 -205 -88t-77 -227
q0 -138 77 -226.5t205 -88.5q127 0 204.5 88.5t77.5 226.5z" />
    <glyph glyph-name="uni1ED1" unicode="&#x1ed1;" horiz-adv-x="570" 
d="M400 656h-30l160 144h45zM376 556l-91 120l-88 -120h-28l98 144h36l101 -144h-28zM285 -12q-100 0 -162.5 72.5t-62.5 181.5q0 108 62.5 180.5t162.5 72.5q101 0 163 -72t62 -181t-62 -181.5t-163 -72.5zM285 15q89 0 140.5 66.5t51.5 160.5q0 93 -51.5 159.5
t-140.5 66.5q-88 0 -140 -66.5t-52 -159.5q0 -94 52 -160.5t140 -66.5z" />
    <glyph glyph-name="uni1ED2" unicode="&#x1ed2;" horiz-adv-x="764" 
d="M269 780l-175 108h45l160 -108h-30zM473 705l-91 90l-88 -90h-28l98 108h36l101 -108h-28zM65 333q0 148 87 246.5t230 98.5q142 0 229.5 -98.5t87.5 -246.5t-87.5 -246.5t-229.5 -98.5q-143 0 -230 98.5t-87 246.5zM664 333q0 139 -77.5 227t-204.5 88q-128 0 -205 -88
t-77 -227q0 -138 77 -226.5t205 -88.5q127 0 204.5 88.5t77.5 226.5z" />
    <glyph glyph-name="uni1ED3" unicode="&#x1ed3;" horiz-adv-x="570" 
d="M172 656l-175 144h45l160 -144h-30zM376 556l-91 120l-88 -120h-28l98 144h36l101 -144h-28zM285 -12q-100 0 -162.5 72.5t-62.5 181.5q0 108 62.5 180.5t162.5 72.5q101 0 163 -72t62 -181t-62 -181.5t-163 -72.5zM285 15q89 0 140.5 66.5t51.5 160.5q0 93 -51.5 159.5
t-140.5 66.5q-88 0 -140 -66.5t-52 -159.5q0 -94 52 -160.5t140 -66.5z" />
    <glyph glyph-name="uni1ED4" unicode="&#x1ed4;" horiz-adv-x="764" 
d="M360 848q20 51 86 51q36 0 60 -16t24 -48q0 -27 -28 -55h-35q34 26 34 55q0 20 -14.5 31.5t-40.5 11.5q-44 0 -59 -36zM473 705l-91 90l-88 -90h-28l98 108h36l101 -108h-28zM65 333q0 148 87 246.5t230 98.5q142 0 229.5 -98.5t87.5 -246.5t-87.5 -246.5t-229.5 -98.5
q-143 0 -230 98.5t-87 246.5zM664 333q0 139 -77.5 227t-204.5 88q-128 0 -205 -88t-77 -227q0 -138 77 -226.5t205 -88.5q127 0 204.5 88.5t77.5 226.5z" />
    <glyph glyph-name="uni1ED5" unicode="&#x1ed5;" horiz-adv-x="570" 
d="M263 747q9 28 30.5 48t55.5 20q36 0 60 -22t24 -64q0 -36 -28 -73h-35q34 34 34 73q0 28 -14.5 43t-40.5 15q-44 0 -59 -48zM376 556l-91 120l-88 -120h-28l98 144h36l101 -144h-28zM285 -12q-100 0 -162.5 72.5t-62.5 181.5q0 108 62.5 180.5t162.5 72.5q101 0 163 -72
t62 -181t-62 -181.5t-163 -72.5zM285 15q89 0 140.5 66.5t51.5 160.5q0 93 -51.5 159.5t-140.5 66.5q-88 0 -140 -66.5t-52 -159.5q0 -94 52 -160.5t140 -66.5z" />
    <glyph glyph-name="uni1ED6" unicode="&#x1ed6;" horiz-adv-x="764" 
d="M370 872q-27 37 -53 37t-42.5 -20t-16.5 -60h-26q0 43 23.5 72t64.5 29q19 0 34.5 -8t22.5 -16.5t18 -23.5q27 -37 53 -37t42.5 20t16.5 60h26q0 -42 -23.5 -71t-64.5 -29q-20 0 -35 8t-22 16t-18 23zM473 705l-91 90l-88 -90h-28l98 108h36l101 -108h-28zM65 333
q0 148 87 246.5t230 98.5q142 0 229.5 -98.5t87.5 -246.5t-87.5 -246.5t-229.5 -98.5q-143 0 -230 98.5t-87 246.5zM664 333q0 139 -77.5 227t-204.5 88q-128 0 -205 -88t-77 -227q0 -138 77 -226.5t205 -88.5q127 0 204.5 88.5t77.5 226.5z" />
    <glyph glyph-name="uni1ED7" unicode="&#x1ed7;" horiz-adv-x="570" 
d="M273 779q-9 17 -14.5 25.5t-16 16.5t-22.5 8q-26 0 -42.5 -26.5t-16.5 -80.5h-26q0 57 23.5 95.5t64.5 38.5q15 0 26.5 -5t21 -16t14.5 -19t13 -23q9 -17 14.5 -25.5t16 -16.5t22.5 -8q26 0 42.5 26.5t16.5 80.5h26q0 -57 -23.5 -95.5t-64.5 -38.5q-20 0 -35.5 11t-22 21
t-17.5 31zM376 556l-91 120l-88 -120h-28l98 144h36l101 -144h-28zM285 -12q-100 0 -162.5 72.5t-62.5 181.5q0 108 62.5 180.5t162.5 72.5q101 0 163 -72t62 -181t-62 -181.5t-163 -72.5zM285 15q89 0 140.5 66.5t51.5 160.5q0 93 -51.5 159.5t-140.5 66.5
q-88 0 -140 -66.5t-52 -159.5q0 -94 52 -160.5t140 -66.5z" />
    <glyph glyph-name="uni1ED8" unicode="&#x1ed8;" horiz-adv-x="764" 
d="M473 723l-91 120l-88 -120h-28l98 144h36l101 -144h-28zM65 333q0 148 87 246.5t230 98.5q142 0 229.5 -98.5t87.5 -246.5t-87.5 -246.5t-229.5 -98.5q-143 0 -230 98.5t-87 246.5zM664 333q0 139 -77.5 227t-204.5 88q-128 0 -205 -88t-77 -227q0 -138 77 -226.5
t205 -88.5q127 0 204.5 88.5t77.5 226.5zM352 -145q0 12 9 20.5t20 8.5q12 0 20.5 -8.5t8.5 -20.5t-8.5 -20.5t-20.5 -8.5q-11 0 -20 8.5t-9 20.5z" />
    <glyph glyph-name="uni1ED9" unicode="&#x1ed9;" horiz-adv-x="570" 
d="M376 556l-91 120l-88 -120h-28l98 144h36l101 -144h-28zM285 -12q-100 0 -162.5 72.5t-62.5 181.5q0 108 62.5 180.5t162.5 72.5q101 0 163 -72t62 -181t-62 -181.5t-163 -72.5zM285 15q89 0 140.5 66.5t51.5 160.5q0 93 -51.5 159.5t-140.5 66.5q-88 0 -140 -66.5
t-52 -159.5q0 -94 52 -160.5t140 -66.5zM256 -145q0 12 9 20.5t20 8.5q12 0 20.5 -8.5t8.5 -20.5t-8.5 -20.5t-20.5 -8.5q-11 0 -20 8.5t-9 20.5z" />
    <glyph glyph-name="uni1EDA" unicode="&#x1eda;" horiz-adv-x="764" 
d="M571 867l-175 -144h-30l160 144h45zM700 663q0 -35 -17.5 -68t-42.5 -52q59 -90 59 -210q0 -148 -87.5 -246.5t-229.5 -98.5q-143 0 -230 98.5t-87 246.5t87 246.5t230 98.5q152 0 241 -112q46 39 46 86l-8 -1q-14 0 -23 9.5t-9 23.5q0 13 9 22.5t23 9.5q16 0 27.5 -14
t11.5 -39zM382 18q127 0 204.5 88.5t77.5 226.5q0 139 -77.5 227t-204.5 88q-128 0 -205 -88t-77 -227q0 -138 77 -226.5t205 -88.5z" />
    <glyph glyph-name="uni1EDB" unicode="&#x1edb;" horiz-adv-x="570" 
d="M474 700l-175 -144h-30l160 144h45zM454 416q56 -70 56 -174q0 -109 -62 -181.5t-163 -72.5q-100 0 -162.5 72.5t-62.5 181.5q0 108 62.5 180.5t162.5 72.5q89 0 150 -58q40 38 40 81l-8 -1q-14 0 -23 9.5t-9 23.5q0 13 9 22.5t23 9.5q16 0 27.5 -14t11.5 -39
q0 -67 -52 -113zM285 15q89 0 140.5 66.5t51.5 160.5q0 93 -51.5 159.5t-140.5 66.5q-88 0 -140 -66.5t-52 -159.5q0 -94 52 -160.5t140 -66.5z" />
    <glyph glyph-name="uni1EDC" unicode="&#x1edc;" horiz-adv-x="764" 
d="M397 723h-30l-175 144h45zM700 663q0 -35 -17.5 -68t-42.5 -52q59 -90 59 -210q0 -148 -87.5 -246.5t-229.5 -98.5q-143 0 -230 98.5t-87 246.5t87 246.5t230 98.5q152 0 241 -112q46 39 46 86l-8 -1q-14 0 -23 9.5t-9 23.5q0 13 9 22.5t23 9.5q16 0 27.5 -14t11.5 -39z
M382 18q127 0 204.5 88.5t77.5 226.5q0 139 -77.5 227t-204.5 88q-128 0 -205 -88t-77 -227q0 -138 77 -226.5t205 -88.5z" />
    <glyph glyph-name="uni1EDD" unicode="&#x1edd;" horiz-adv-x="570" 
d="M300 556h-30l-175 144h45zM454 416q56 -70 56 -174q0 -109 -62 -181.5t-163 -72.5q-100 0 -162.5 72.5t-62.5 181.5q0 108 62.5 180.5t162.5 72.5q89 0 150 -58q40 38 40 81l-8 -1q-14 0 -23 9.5t-9 23.5q0 13 9 22.5t23 9.5q16 0 27.5 -14t11.5 -39q0 -67 -52 -113z
M285 15q89 0 140.5 66.5t51.5 160.5q0 93 -51.5 159.5t-140.5 66.5q-88 0 -140 -66.5t-52 -159.5q0 -94 52 -160.5t140 -66.5z" />
    <glyph glyph-name="uni1EDE" unicode="&#x1ede;" horiz-adv-x="764" 
d="M377 855q-44 0 -59 -48l-27 8q9 28 30.5 48t55.5 20q36 0 60 -22t24 -64q0 -36 -28 -73h-35q34 34 34 73q0 28 -14.5 43t-40.5 15zM700 663q0 -35 -17.5 -68t-42.5 -52q59 -90 59 -210q0 -148 -87.5 -246.5t-229.5 -98.5q-143 0 -230 98.5t-87 246.5t87 246.5t230 98.5
q152 0 241 -112q46 39 46 86l-8 -1q-14 0 -23 9.5t-9 23.5q0 13 9 22.5t23 9.5q16 0 27.5 -14t11.5 -39zM382 18q127 0 204.5 88.5t77.5 226.5q0 139 -77.5 227t-204.5 88q-128 0 -205 -88t-77 -227q0 -138 77 -226.5t205 -88.5z" />
    <glyph glyph-name="uni1EDF" unicode="&#x1edf;" horiz-adv-x="570" 
d="M280 688q-44 0 -59 -48l-27 8q9 28 30.5 48t55.5 20q36 0 60 -22t24 -64q0 -36 -28 -73h-35q34 34 34 73q0 28 -14.5 43t-40.5 15zM454 416q56 -70 56 -174q0 -109 -62 -181.5t-163 -72.5q-100 0 -162.5 72.5t-62.5 181.5q0 108 62.5 180.5t162.5 72.5q89 0 150 -58
q40 38 40 81l-8 -1q-14 0 -23 9.5t-9 23.5q0 13 9 22.5t23 9.5q16 0 27.5 -14t11.5 -39q0 -67 -52 -113zM285 15q89 0 140.5 66.5t51.5 160.5q0 93 -51.5 159.5t-140.5 66.5q-88 0 -140 -66.5t-52 -159.5q0 -94 52 -160.5t140 -66.5z" />
    <glyph glyph-name="uni1EE0" unicode="&#x1ee0;" horiz-adv-x="764" 
d="M317 834q-26 0 -42.5 -26.5t-16.5 -80.5h-26q0 57 23.5 95.5t64.5 38.5q15 0 26.5 -5t21 -16t14.5 -19t13 -23q9 -17 14.5 -25.5t16 -16.5t22.5 -8q26 0 42.5 26.5t16.5 80.5h26q0 -57 -23.5 -95.5t-64.5 -38.5q-20 0 -35.5 11t-22 21t-17.5 31q-9 17 -14.5 25.5
t-16 16.5t-22.5 8zM700 663q0 -35 -17.5 -68t-42.5 -52q59 -90 59 -210q0 -148 -87.5 -246.5t-229.5 -98.5q-143 0 -230 98.5t-87 246.5t87 246.5t230 98.5q152 0 241 -112q46 39 46 86l-8 -1q-14 0 -23 9.5t-9 23.5q0 13 9 22.5t23 9.5q16 0 27.5 -14t11.5 -39zM382 18
q127 0 204.5 88.5t77.5 226.5q0 139 -77.5 227t-204.5 88q-128 0 -205 -88t-77 -227q0 -138 77 -226.5t205 -88.5z" />
    <glyph glyph-name="uni1EE1" unicode="&#x1ee1;" horiz-adv-x="570" 
d="M220 667q-26 0 -42.5 -26.5t-16.5 -80.5h-26q0 57 23.5 95.5t64.5 38.5q15 0 26.5 -5t21 -16t14.5 -19t13 -23q9 -17 14.5 -25.5t16 -16.5t22.5 -8q26 0 42.5 26.5t16.5 80.5h26q0 -57 -23.5 -95.5t-64.5 -38.5q-20 0 -35.5 11t-22 21t-17.5 31q-9 17 -14.5 25.5
t-16 16.5t-22.5 8zM454 416q56 -70 56 -174q0 -109 -62 -181.5t-163 -72.5q-100 0 -162.5 72.5t-62.5 181.5q0 108 62.5 180.5t162.5 72.5q89 0 150 -58q40 38 40 81l-8 -1q-14 0 -23 9.5t-9 23.5q0 13 9 22.5t23 9.5q16 0 27.5 -14t11.5 -39q0 -67 -52 -113zM285 15
q89 0 140.5 66.5t51.5 160.5q0 93 -51.5 159.5t-140.5 66.5q-88 0 -140 -66.5t-52 -159.5q0 -94 52 -160.5t140 -66.5z" />
    <glyph glyph-name="uni1EE2" unicode="&#x1ee2;" horiz-adv-x="764" 
d="M700 663q0 -35 -17.5 -68t-42.5 -52q59 -90 59 -210q0 -148 -87.5 -246.5t-229.5 -98.5q-143 0 -230 98.5t-87 246.5t87 246.5t230 98.5q152 0 241 -112q46 39 46 86l-8 -1q-14 0 -23 9.5t-9 23.5q0 13 9 22.5t23 9.5q16 0 27.5 -14t11.5 -39zM382 18q127 0 204.5 88.5
t77.5 226.5q0 139 -77.5 227t-204.5 88q-128 0 -205 -88t-77 -227q0 -138 77 -226.5t205 -88.5zM382 -116q12 0 20.5 -8.5t8.5 -20.5t-8.5 -20.5t-20.5 -8.5q-11 0 -20 8.5t-9 20.5t9 20.5t20 8.5z" />
    <glyph glyph-name="uni1EE3" unicode="&#x1ee3;" horiz-adv-x="570" 
d="M454 416q56 -70 56 -174q0 -109 -62 -181.5t-163 -72.5q-100 0 -162.5 72.5t-62.5 181.5q0 108 62.5 180.5t162.5 72.5q89 0 150 -58q40 38 40 81l-8 -1q-14 0 -23 9.5t-9 23.5q0 13 9 22.5t23 9.5q16 0 27.5 -14t11.5 -39q0 -67 -52 -113zM285 15q89 0 140.5 66.5
t51.5 160.5q0 93 -51.5 159.5t-140.5 66.5q-88 0 -140 -66.5t-52 -159.5q0 -94 52 -160.5t140 -66.5zM285 -116q12 0 20.5 -8.5t8.5 -20.5t-8.5 -20.5t-20.5 -8.5q-11 0 -20 8.5t-9 20.5t9 20.5t20 8.5z" />
    <glyph glyph-name="uni1EE4" unicode="&#x1ee4;" horiz-adv-x="672" 
d="M88 253v414h32v-414q0 -112 56 -173.5t160 -61.5t160 61.5t56 173.5v414h32v-414q0 -125 -64 -195t-184 -70t-184 70t-64 195zM307 -145q0 12 9 20.5t20 8.5q12 0 20.5 -8.5t8.5 -20.5t-8.5 -20.5t-20.5 -8.5q-11 0 -20 8.5t-9 20.5z" />
    <glyph glyph-name="uni1EE5" unicode="&#x1ee5;" 
d="M412 0v74q-33 -37 -80 -61.5t-95 -24.5q-75 0 -113 36.5t-38 119.5v339h30v-339q0 -72 32 -100.5t93 -28.5q48 0 96.5 25.5t74.5 62.5v380h30v-483h-30zM235 -145q0 12 9 20.5t20 8.5q12 0 20.5 -8.5t8.5 -20.5t-8.5 -20.5t-20.5 -8.5q-11 0 -20 8.5t-9 20.5z" />
    <glyph glyph-name="uni1EE6" unicode="&#x1ee6;" horiz-adv-x="672" 
d="M245 815q9 28 30.5 48t55.5 20q36 0 60 -22t24 -64q0 -36 -28 -73h-35q34 34 34 73q0 28 -14.5 43t-40.5 15q-44 0 -59 -48zM88 253v414h32v-414q0 -112 56 -173.5t160 -61.5t160 61.5t56 173.5v414h32v-414q0 -125 -64 -195t-184 -70t-184 70t-64 195z" />
    <glyph glyph-name="uni1EE7" unicode="&#x1ee7;" 
d="M173 648q9 28 30.5 48t55.5 20q36 0 60 -22t24 -64q0 -36 -28 -73h-35q34 34 34 73q0 28 -14.5 43t-40.5 15q-44 0 -59 -48zM412 0v74q-33 -37 -80 -61.5t-95 -24.5q-75 0 -113 36.5t-38 119.5v339h30v-339q0 -72 32 -100.5t93 -28.5q48 0 96.5 25.5t74.5 62.5v380h30
v-483h-30z" />
    <glyph glyph-name="uni1EE8" unicode="&#x1ee8;" horiz-adv-x="672" 
d="M525 867l-175 -144h-30l160 144h45zM704 730q0 -51 -33 -92.5t-87 -59.5v-325q0 -125 -64 -195t-184 -70t-184 70t-64 195v414h32v-414q0 -112 56 -173.5t160 -61.5t160 61.5t56 173.5v414h32v-61q38 17 63.5 48.5t25.5 64.5l-8 -1q-14 0 -23 9.5t-9 23.5q0 13 9 22.5
t23 9.5q16 0 27.5 -14t11.5 -39z" />
    <glyph glyph-name="uni1EE9" unicode="&#x1ee9;" 
d="M453 700l-175 -144h-30l160 144h45zM545 529q0 -46 -28 -85.5t-75 -59.5v-384h-30v74q-33 -37 -80 -61.5t-95 -24.5q-75 0 -113 36.5t-38 119.5v339h30v-339q0 -72 32 -100.5t93 -28.5q48 0 96.5 25.5t74.5 62.5v380h30v-69q32 18 52 46.5t20 57.5l-8 -1q-14 0 -23 9.5
t-9 23.5q0 13 9 22.5t23 9.5q16 0 27.5 -14t11.5 -39z" />
    <glyph glyph-name="uni1EEA" unicode="&#x1eea;" horiz-adv-x="672" 
d="M351 723h-30l-175 144h45zM704 730q0 -51 -33 -92.5t-87 -59.5v-325q0 -125 -64 -195t-184 -70t-184 70t-64 195v414h32v-414q0 -112 56 -173.5t160 -61.5t160 61.5t56 173.5v414h32v-61q38 17 63.5 48.5t25.5 64.5l-8 -1q-14 0 -23 9.5t-9 23.5q0 13 9 22.5t23 9.5
q16 0 27.5 -14t11.5 -39z" />
    <glyph glyph-name="uni1EEB" unicode="&#x1eeb;" 
d="M279 556h-30l-175 144h45zM545 529q0 -46 -28 -85.5t-75 -59.5v-384h-30v74q-33 -37 -80 -61.5t-95 -24.5q-75 0 -113 36.5t-38 119.5v339h30v-339q0 -72 32 -100.5t93 -28.5q48 0 96.5 25.5t74.5 62.5v380h30v-69q32 18 52 46.5t20 57.5l-8 -1q-14 0 -23 9.5t-9 23.5
q0 13 9 22.5t23 9.5q16 0 27.5 -14t11.5 -39z" />
    <glyph glyph-name="uni1EEC" unicode="&#x1eec;" horiz-adv-x="672" 
d="M331 855q-44 0 -59 -48l-27 8q9 28 30.5 48t55.5 20q36 0 60 -22t24 -64q0 -36 -28 -73h-35q34 34 34 73q0 28 -14.5 43t-40.5 15zM704 730q0 -51 -33 -92.5t-87 -59.5v-325q0 -125 -64 -195t-184 -70t-184 70t-64 195v414h32v-414q0 -112 56 -173.5t160 -61.5t160 61.5
t56 173.5v414h32v-61q38 17 63.5 48.5t25.5 64.5l-8 -1q-14 0 -23 9.5t-9 23.5q0 13 9 22.5t23 9.5q16 0 27.5 -14t11.5 -39z" />
    <glyph glyph-name="uni1EED" unicode="&#x1eed;" 
d="M259 688q-44 0 -59 -48l-27 8q9 28 30.5 48t55.5 20q36 0 60 -22t24 -64q0 -36 -28 -73h-35q34 34 34 73q0 28 -14.5 43t-40.5 15zM545 529q0 -46 -28 -85.5t-75 -59.5v-384h-30v74q-33 -37 -80 -61.5t-95 -24.5q-75 0 -113 36.5t-38 119.5v339h30v-339q0 -72 32 -100.5
t93 -28.5q48 0 96.5 25.5t74.5 62.5v380h30v-69q32 18 52 46.5t20 57.5l-8 -1q-14 0 -23 9.5t-9 23.5q0 13 9 22.5t23 9.5q16 0 27.5 -14t11.5 -39z" />
    <glyph glyph-name="uni1EEE" unicode="&#x1eee;" horiz-adv-x="672" 
d="M271 834q-26 0 -42.5 -26.5t-16.5 -80.5h-26q0 57 23.5 95.5t64.5 38.5q15 0 26.5 -5t21 -16t14.5 -19t13 -23q9 -17 14.5 -25.5t16 -16.5t22.5 -8q26 0 42.5 26.5t16.5 80.5h26q0 -57 -23.5 -95.5t-64.5 -38.5q-20 0 -35.5 11t-22 21t-17.5 31q-9 17 -14.5 25.5
t-16 16.5t-22.5 8zM704 730q0 -51 -33 -92.5t-87 -59.5v-325q0 -125 -64 -195t-184 -70t-184 70t-64 195v414h32v-414q0 -112 56 -173.5t160 -61.5t160 61.5t56 173.5v414h32v-61q38 17 63.5 48.5t25.5 64.5l-8 -1q-14 0 -23 9.5t-9 23.5q0 13 9 22.5t23 9.5q16 0 27.5 -14
t11.5 -39z" />
    <glyph glyph-name="uni1EEF" unicode="&#x1eef;" 
d="M199 667q-26 0 -42.5 -26.5t-16.5 -80.5h-26q0 57 23.5 95.5t64.5 38.5q15 0 26.5 -5t21 -16t14.5 -19t13 -23q9 -17 14.5 -25.5t16 -16.5t22.5 -8q26 0 42.5 26.5t16.5 80.5h26q0 -57 -23.5 -95.5t-64.5 -38.5q-20 0 -35.5 11t-22 21t-17.5 31q-9 17 -14.5 25.5
t-16 16.5t-22.5 8zM545 529q0 -46 -28 -85.5t-75 -59.5v-384h-30v74q-33 -37 -80 -61.5t-95 -24.5q-75 0 -113 36.5t-38 119.5v339h30v-339q0 -72 32 -100.5t93 -28.5q48 0 96.5 25.5t74.5 62.5v380h30v-69q32 18 52 46.5t20 57.5l-8 -1q-14 0 -23 9.5t-9 23.5q0 13 9 22.5
t23 9.5q16 0 27.5 -14t11.5 -39z" />
    <glyph glyph-name="uni1EF0" unicode="&#x1ef0;" horiz-adv-x="672" 
d="M704 730q0 -51 -33 -92.5t-87 -59.5v-325q0 -125 -64 -195t-184 -70t-184 70t-64 195v414h32v-414q0 -112 56 -173.5t160 -61.5t160 61.5t56 173.5v414h32v-61q38 17 63.5 48.5t25.5 64.5l-8 -1q-14 0 -23 9.5t-9 23.5q0 13 9 22.5t23 9.5q16 0 27.5 -14t11.5 -39z
M336 -116q12 0 20.5 -8.5t8.5 -20.5t-8.5 -20.5t-20.5 -8.5q-11 0 -20 8.5t-9 20.5t9 20.5t20 8.5z" />
    <glyph glyph-name="uni1EF1" unicode="&#x1ef1;" 
d="M264 566q-11 0 -20 8.5t-9 20.5t9 20.5t20 8.5q12 0 20.5 -8.5t8.5 -20.5t-8.5 -20.5t-20.5 -8.5zM545 529q0 -46 -28 -85.5t-75 -59.5v-384h-30v74q-33 -37 -80 -61.5t-95 -24.5q-75 0 -113 36.5t-38 119.5v339h30v-339q0 -72 32 -100.5t93 -28.5q48 0 96.5 25.5
t74.5 62.5v380h30v-69q32 18 52 46.5t20 57.5l-8 -1q-14 0 -23 9.5t-9 23.5q0 13 9 22.5t23 9.5q16 0 27.5 -14t11.5 -39z" />
    <glyph glyph-name="Ygrave" unicode="&#x1ef2;" horiz-adv-x="610" 
d="M290 723l-175 144h45l160 -144h-30zM289 0v289l-268 378h41l243 -346l243 346h41l-268 -378v-289h-32z" />
    <glyph glyph-name="ygrave" unicode="&#x1ef3;" horiz-adv-x="471" 
d="M221 556l-175 144h45l160 -144h-30zM56 -161q18 -8 42 -8q25 0 42.5 14.5t33.5 51.5l44 100l-207 486h35l190 -448l189 448h35l-256 -597q-36 -82 -106 -82q-27 0 -48 7z" />
    <glyph glyph-name="uni1EF4" unicode="&#x1ef4;" horiz-adv-x="610" 
d="M289 0v289l-268 378h41l243 -346l243 346h41l-268 -378v-289h-32zM276 -145q0 12 9 20.5t20 8.5q12 0 20.5 -8.5t8.5 -20.5t-8.5 -20.5t-20.5 -8.5q-11 0 -20 8.5t-9 20.5z" />
    <glyph glyph-name="uni1EF5" unicode="&#x1ef5;" horiz-adv-x="471" 
d="M56 -161q18 -8 42 -8q25 0 42.5 14.5t33.5 51.5l44 100l-207 486h35l190 -448l189 448h35l-256 -597q-36 -82 -106 -82q-27 0 -48 7zM207 -245q0 12 9 20.5t20 8.5q12 0 20.5 -8.5t8.5 -20.5t-8.5 -20.5t-20.5 -8.5q-11 0 -20 8.5t-9 20.5z" />
    <glyph glyph-name="uni1EF6" unicode="&#x1ef6;" horiz-adv-x="610" 
d="M214 815q9 28 30.5 48t55.5 20q36 0 60 -22t24 -64q0 -36 -28 -73h-35q34 34 34 73q0 28 -14.5 43t-40.5 15q-44 0 -59 -48zM289 0v289l-268 378h41l243 -346l243 346h41l-268 -378v-289h-32z" />
    <glyph glyph-name="uni1EF7" unicode="&#x1ef7;" horiz-adv-x="471" 
d="M145 648q9 28 30.5 48t55.5 20q36 0 60 -22t24 -64q0 -36 -28 -73h-35q34 34 34 73q0 28 -14.5 43t-40.5 15q-44 0 -59 -48zM56 -161q18 -8 42 -8q25 0 42.5 14.5t33.5 51.5l44 100l-207 486h35l190 -448l189 448h35l-256 -597q-36 -82 -106 -82q-27 0 -48 7z" />
    <glyph glyph-name="uni1EF8" unicode="&#x1ef8;" horiz-adv-x="610" 
d="M293 784q-9 17 -14.5 25.5t-16 16.5t-22.5 8q-26 0 -42.5 -26.5t-16.5 -80.5h-26q0 57 23.5 95.5t64.5 38.5q15 0 26.5 -5t21 -16t14.5 -19t13 -23q9 -17 14.5 -25.5t16 -16.5t22.5 -8q26 0 42.5 26.5t16.5 80.5h26q0 -57 -23.5 -95.5t-64.5 -38.5q-20 0 -35.5 11t-22 21
t-17.5 31zM289 0v289l-268 378h41l243 -346l243 346h41l-268 -378v-289h-32z" />
    <glyph glyph-name="uni1EF9" unicode="&#x1ef9;" horiz-adv-x="471" 
d="M224 617q-9 17 -14.5 25.5t-16 16.5t-22.5 8q-26 0 -42.5 -26.5t-16.5 -80.5h-26q0 57 23.5 95.5t64.5 38.5q15 0 26.5 -5t21 -16t14.5 -19t13 -23q9 -17 14.5 -25.5t16 -16.5t22.5 -8q26 0 42.5 26.5t16.5 80.5h26q0 -57 -23.5 -95.5t-64.5 -38.5q-20 0 -35.5 11t-22 21
t-17.5 31zM56 -161q18 -8 42 -8q25 0 42.5 14.5t33.5 51.5l44 100l-207 486h35l190 -448l189 448h35l-256 -597q-36 -82 -106 -82q-27 0 -48 7z" />
    <glyph glyph-name="uni2009" unicode="&#x2009;" horiz-adv-x="125" 
 />
    <glyph glyph-name="endash" unicode="&#x2013;" horiz-adv-x="593" 
d="M30 227v30h533v-30h-533z" />
    <glyph glyph-name="emdash" unicode="&#x2014;" horiz-adv-x="833" 
d="M30 227v30h773v-30h-773z" />
    <glyph glyph-name="uni2015" unicode="&#x2015;" horiz-adv-x="593" 
d="M30 227v30h533v-30h-533z" />
    <glyph glyph-name="quoteleft" unicode="&#x2018;" horiz-adv-x="208" 
d="M117 677l22 -18q-24 -18 -38.5 -43.5t-14.5 -48.5l8 1q14 0 23 -9.5t9 -23.5q0 -13 -9 -22.5t-23 -9.5q-16 0 -27.5 14t-11.5 39q0 36 18 69.5t44 51.5z" />
    <glyph glyph-name="quoteright" unicode="&#x2019;" horiz-adv-x="208" 
d="M80 503l-22 18q24 18 38.5 43.5t14.5 48.5l-8 -1q-14 0 -23 9.5t-9 23.5q0 13 9 22.5t23 9.5q16 0 27.5 -14t11.5 -39q0 -36 -18 -69.5t-44 -51.5z" />
    <glyph glyph-name="quotesinglbase" unicode="&#x201a;" horiz-adv-x="208" 
d="M80 -118l-22 18q24 18 38.5 43.5t14.5 48.5l-8 -1q-14 0 -23 9.5t-9 23.5q0 13 9 22.5t23 9.5q16 0 27.5 -14t11.5 -39q0 -36 -18 -69.5t-44 -51.5z" />
    <glyph glyph-name="quotereversed" unicode="&#x201b;" horiz-adv-x="208" 
d="M105 677q14 0 23 -9.5t9 -22.5q0 -14 -9 -23.5t-23 -9.5l-8 1q0 -23 14.5 -48.5t38.5 -43.5l-22 -18q-26 18 -44 51.5t-18 69.5q0 25 11.5 39t27.5 14z" />
    <glyph glyph-name="quotedblleft" unicode="&#x201c;" horiz-adv-x="331" 
d="M128 677l22 -18q-24 -18 -38.5 -43.5t-14.5 -48.5l8 1q14 0 23 -9.5t9 -23.5q0 -13 -9 -22.5t-23 -9.5q-16 0 -27.5 14t-11.5 39q0 36 18 69.5t44 51.5zM251 677l22 -18q-24 -18 -38.5 -43.5t-14.5 -48.5l8 1q14 0 23 -9.5t9 -23.5q0 -13 -9 -22.5t-23 -9.5
q-16 0 -27.5 14t-11.5 39q0 36 18 69.5t44 51.5z" />
    <glyph glyph-name="quotedblright" unicode="&#x201d;" horiz-adv-x="331" 
d="M80 503l-22 18q24 18 38.5 43.5t14.5 48.5l-8 -1q-14 0 -23 9.5t-9 23.5q0 13 9 22.5t23 9.5q16 0 27.5 -14t11.5 -39q0 -36 -18 -69.5t-44 -51.5zM203 503l-22 18q24 18 38.5 43.5t14.5 48.5l-8 -1q-14 0 -23 9.5t-9 23.5q0 13 9 22.5t23 9.5q16 0 27.5 -14t11.5 -39
q0 -36 -18 -69.5t-44 -51.5z" />
    <glyph glyph-name="quotedblbase" unicode="&#x201e;" horiz-adv-x="331" 
d="M80 -118l-22 18q24 18 38.5 43.5t14.5 48.5l-8 -1q-14 0 -23 9.5t-9 23.5q0 13 9 22.5t23 9.5q16 0 27.5 -14t11.5 -39q0 -36 -18 -69.5t-44 -51.5zM203 -118l-22 18q24 18 38.5 43.5t14.5 48.5l-8 -1q-14 0 -23 9.5t-9 23.5q0 13 9 22.5t23 9.5q16 0 27.5 -14t11.5 -39
q0 -36 -18 -69.5t-44 -51.5z" />
    <glyph glyph-name="dagger" unicode="&#x2020;" horiz-adv-x="251" 
d="M137 543l4 -216h-31l4 216l-89 -4v27l89 -3l-4 114h31l-4 -114l89 3v-27z" />
    <glyph glyph-name="daggerdbl" unicode="&#x2021;" horiz-adv-x="251" 
d="M226 539l-89 4v-229l89 4v-27l-89 3l4 -114h-31l4 114l-89 -3v27l89 -4v229l-89 -4v27l89 -3l-4 114h31l-4 -114l89 3v-27z" />
    <glyph glyph-name="bullet" unicode="&#x2022;" horiz-adv-x="358" 
d="M180 145q-40 0 -69 28.5t-29 68.5t29 69t69 29t69 -29t29 -69t-29 -68.5t-69 -28.5z" />
    <glyph glyph-name="ellipsis" unicode="&#x2026;" horiz-adv-x="624" 
d="M104 -9q-14 0 -23.5 9.5t-9.5 23.5q0 13 10 22.5t23 9.5t23 -9.5t10 -22.5q0 -14 -9.5 -23.5t-23.5 -9.5zM312 -9q-14 0 -23.5 9.5t-9.5 23.5q0 13 10 22.5t23 9.5t23 -9.5t10 -22.5q0 -14 -9.5 -23.5t-23.5 -9.5zM520 -9q-14 0 -23.5 9.5t-9.5 23.5q0 13 10 22.5t23 9.5
t23 -9.5t10 -22.5q0 -14 -9.5 -23.5t-23.5 -9.5z" />
    <glyph glyph-name="perthousand" unicode="&#x2030;" horiz-adv-x="1051" 
d="M189 351q-67 0 -110 46t-43 116q0 71 43 117.5t110 46.5t110 -46.5t43 -117.5q0 -70 -43 -116t-110 -46zM163 0h-36l426 667h37zM189 650q-52 0 -86 -40t-34 -97q0 -55 34 -95t86 -40q53 0 86.5 39.5t33.5 95.5q0 57 -33.5 97t-86.5 40zM520 -12q-67 0 -110 46t-43 116
q0 71 43 117.5t110 46.5t110 -46.5t43 -117.5q0 -70 -43 -116t-110 -46zM862 -12q-67 0 -110 46t-43 116q0 71 43 117.5t110 46.5t110 -46.5t43 -117.5q0 -70 -43 -116t-110 -46zM520 287q-53 0 -86.5 -40t-33.5 -97q0 -56 33.5 -95.5t86.5 -39.5t86.5 39.5t33.5 95.5
q0 57 -33.5 97t-86.5 40zM862 287q-53 0 -86.5 -40t-33.5 -97q0 -56 33.5 -95.5t86.5 -39.5t86.5 39.5t33.5 95.5q0 57 -33.5 97t-86.5 40z" />
    <glyph glyph-name="uni2032" unicode="&#x2032;" horiz-adv-x="165" 
d="M30 447q66 203 70 214q6 16 24 16q11 0 18.5 -7.5t7.5 -18.5q0 -4 -2 -10l-98 -202z" />
    <glyph glyph-name="uni2033" unicode="&#x2033;" horiz-adv-x="290" 
d="M30 447q66 203 70 214q6 16 24 16q11 0 18.5 -7.5t7.5 -18.5q0 -4 -2 -10l-98 -202zM155 447q66 203 70 214q6 16 24 16q11 0 18.5 -7.5t7.5 -18.5q0 -4 -2 -10l-98 -202z" />
    <glyph glyph-name="guilsinglleft" unicode="&#x2039;" horiz-adv-x="259" 
d="M190 63l-160 180l160 177h39l-160 -177l160 -180h-39z" />
    <glyph glyph-name="guilsinglright" unicode="&#x203a;" horiz-adv-x="259" 
d="M69 63h-39l160 180l-160 177h39l160 -177z" />
    <glyph glyph-name="uni203D" unicode="&#x203d;" horiz-adv-x="472" 
d="M240 677q87 0 139 -46t52 -123q0 -145 -195 -219l-4 -128h-20l-11 381h42l-7 -222q81 34 120.5 77t39.5 111q0 65 -41.5 102t-114.5 37q-68 0 -112.5 -25t-78.5 -73l-23 21q75 107 214 107zM222 56q13 0 23 -9.5t10 -22.5q0 -14 -9.5 -23.5t-23.5 -9.5t-23.5 9.5
t-9.5 23.5q0 13 10 22.5t23 9.5z" />
    <glyph glyph-name="uni203E" unicode="&#x203e;" horiz-adv-x="363" 
d="M40 581v27h283v-27h-283z" />
    <glyph glyph-name="fraction" unicode="&#x2044;" horiz-adv-x="121" 
d="M-135 0h-36l426 667h37z" />
    <glyph glyph-name="uni2070" unicode="&#x2070;" horiz-adv-x="380" 
d="M190 414q-76 0 -114 62.5t-38 144.5q0 51 14 96t50 77.5t88 32.5q76 0 114 -62t38 -144q0 -81 -38 -144t-114 -63zM190 801q-43 0 -71.5 -28.5t-39 -67t-10.5 -84.5q0 -74 29.5 -127.5t91.5 -53.5t91 53.5t29 127.5t-29 127t-91 53z" />
    <glyph glyph-name="uni2074" unicode="&#x2074;" horiz-adv-x="380" 
d="M272 534v-113h-29v113h-196v26l186 261h39v-261h62v-26h-62zM243 792l-165 -232h165v232z" />
    <glyph glyph-name="uni2075" unicode="&#x2075;" horiz-adv-x="380" 
d="M190 414q-93 0 -138 66l20 19q42 -59 118 -59q47 0 77.5 29t30.5 72q0 47 -30.5 75t-77.5 28q-58 0 -103 -41l-23 11v207h236v-26h-206v-165q39 39 101 39q55 0 93.5 -33.5t38.5 -93.5q0 -58 -40 -93t-97 -35z" />
    <glyph glyph-name="uni2076" unicode="&#x2076;" horiz-adv-x="380" 
d="M196 414q-77 0 -113.5 58.5t-36.5 148.5q0 85 38 145.5t117 60.5q69 0 111 -51l-18 -21q-36 46 -93 46q-64 0 -94.5 -52.5t-31.5 -127.5q0 -16 1 -23q16 25 50.5 47.5t74.5 22.5q59 0 96 -33t37 -95q0 -51 -38 -88.5t-100 -37.5zM196 642q-34 0 -66.5 -20t-51.5 -52
q5 -53 34 -91.5t84 -38.5q51 0 79.5 31.5t28.5 68.5q0 50 -29.5 76t-78.5 26z" />
    <glyph glyph-name="uni2077" unicode="&#x2077;" horiz-adv-x="355" 
d="M126 421h-33l180 374h-235v26h269v-20z" />
    <glyph glyph-name="uni2078" unicode="&#x2078;" horiz-adv-x="380" 
d="M190 414q-60 0 -99.5 29.5t-39.5 77.5q0 40 31 67.5t76 38.5q-43 10 -71.5 34t-28.5 62q0 50 39.5 77t92.5 27t92.5 -27t39.5 -77q0 -38 -28 -62t-71 -34q45 -11 75.5 -38.5t30.5 -67.5q0 -47 -40 -77t-99 -30zM190 801q-44 0 -73.5 -21t-29.5 -58q0 -62 103 -83
q103 21 103 83q0 37 -29.5 58t-73.5 21zM190 615q-18 -2 -40.5 -10t-46 -30.5t-23.5 -52.5q0 -37 32.5 -60t77.5 -23q44 0 76.5 23t32.5 60q0 30 -23.5 52.5t-45.5 30.5t-40 10z" />
    <glyph glyph-name="uni2079" unicode="&#x2079;" horiz-adv-x="380" 
d="M184 827q77 0 113.5 -58.5t36.5 -148.5q0 -85 -38.5 -145.5t-116.5 -60.5q-69 0 -111 51l18 21q34 -46 93 -46q64 0 94 53t31 128v22q-17 -25 -51 -47.5t-73 -22.5q-59 0 -96.5 33t-37.5 95q0 51 37.5 88.5t100.5 37.5zM183 599q35 0 67.5 20t51.5 53q-5 52 -34 90.5
t-84 38.5q-51 0 -80 -31.5t-29 -68.5q0 -49 30 -75.5t78 -26.5z" />
    <glyph glyph-name="uni207D" unicode="&#x207d;" horiz-adv-x="135" 
d="M109 356q-81 119 -81 265q0 144 81 265l16 -9q-33 -68 -49.5 -125t-16.5 -131t16.5 -132t49.5 -124z" />
    <glyph glyph-name="uni207E" unicode="&#x207e;" horiz-adv-x="135" 
d="M44 356l-16 9q33 66 49.5 124t16.5 132t-16.5 131t-49.5 125l16 9q81 -121 81 -265t-81 -265z" />
    <glyph glyph-name="uni207F" unicode="&#x207f;" horiz-adv-x="387" 
d="M290 326v213q0 86 -82 86q-31 0 -62 -17t-49 -40v-242h-28v314h28v-49q20 23 52.5 40t64.5 17q59 0 81.5 -27t22.5 -82v-213h-28z" />
    <glyph glyph-name="uni2080" unicode="&#x2080;" horiz-adv-x="380" 
d="M190 -153q-76 0 -114 62.5t-38 144.5q0 51 14 96t50 77.5t88 32.5q76 0 114 -62t38 -144q0 -81 -38 -144t-114 -63zM190 234q-43 0 -71.5 -28.5t-39 -67t-10.5 -84.5q0 -74 29.5 -127.5t91.5 -53.5t91 53.5t29 127.5t-29 127t-91 53z" />
    <glyph glyph-name="uni2081" unicode="&#x2081;" horiz-adv-x="192" 
d="M102 -146v360l-63 -69l-19 20l85 89h27v-400h-30z" />
    <glyph glyph-name="uni2082" unicode="&#x2082;" horiz-adv-x="380" 
d="M54 -146v24q119 86 179.5 149t60.5 120q0 44 -29.5 65.5t-70.5 21.5q-78 0 -114 -53l-20 18q43 61 135 61q50 0 89 -28t39 -84q0 -64 -57.5 -126t-167.5 -142h227v-26h-271z" />
    <glyph glyph-name="uni2083" unicode="&#x2083;" horiz-adv-x="380" 
d="M188 -153q-48 0 -84 18.5t-54 47.5l20 17q40 -57 118 -57q50 0 79 23.5t29 64.5q0 44 -33 65.5t-84 21.5q-30 0 -36 -1v27q6 -1 36 -1q48 0 79.5 20t31.5 61q0 37 -30 58.5t-73 21.5q-67 0 -113 -52l-19 18q51 60 133 60q55 0 93 -28.5t38 -76.5q0 -43 -28 -66t-61 -28
q33 -3 64.5 -28.5t31.5 -71.5q0 -51 -37 -82.5t-101 -31.5z" />
    <glyph glyph-name="uni2084" unicode="&#x2084;" horiz-adv-x="380" 
d="M272 -33v-113h-29v113h-196v26l186 261h39v-261h62v-26h-62zM243 225l-165 -232h165v232z" />
    <glyph glyph-name="uni2085" unicode="&#x2085;" horiz-adv-x="380" 
d="M190 -153q-93 0 -138 66l20 19q42 -59 118 -59q47 0 77.5 29t30.5 72q0 47 -30.5 75t-77.5 28q-58 0 -103 -41l-23 11v207h236v-26h-206v-165q39 39 101 39q55 0 93.5 -33.5t38.5 -93.5q0 -58 -40 -93t-97 -35z" />
    <glyph glyph-name="uni2086" unicode="&#x2086;" horiz-adv-x="380" 
d="M196 -153q-77 0 -113.5 58.5t-36.5 148.5q0 85 38 145.5t117 60.5q69 0 111 -51l-18 -21q-36 46 -93 46q-64 0 -94.5 -52.5t-31.5 -127.5q0 -16 1 -23q16 25 50.5 47.5t74.5 22.5q59 0 96 -33t37 -95q0 -51 -38 -88.5t-100 -37.5zM196 75q-34 0 -66.5 -20t-51.5 -52
q5 -53 34 -91.5t84 -38.5q51 0 79.5 31.5t28.5 68.5q0 49 -29.5 75.5t-78.5 26.5z" />
    <glyph glyph-name="uni2087" unicode="&#x2087;" horiz-adv-x="355" 
d="M126 -146h-33l180 374h-235v26h269v-20z" />
    <glyph glyph-name="uni2088" unicode="&#x2088;" horiz-adv-x="380" 
d="M190 -153q-60 0 -99.5 29.5t-39.5 77.5q0 40 31 67.5t76 38.5q-43 10 -71.5 34t-28.5 62q0 50 39.5 77t92.5 27t92.5 -27t39.5 -77q0 -38 -28 -62t-71 -34q45 -11 75.5 -38.5t30.5 -67.5q0 -47 -40 -77t-99 -30zM190 234q-44 0 -73.5 -21t-29.5 -58q0 -62 103 -83
q103 21 103 83q0 37 -29.5 58t-73.5 21zM190 48q-18 -2 -40.5 -10t-46 -30.5t-23.5 -52.5q0 -37 32.5 -60t77.5 -23q44 0 76.5 23t32.5 60q0 30 -23.5 52.5t-45.5 30.5t-40 10z" />
    <glyph glyph-name="uni2089" unicode="&#x2089;" horiz-adv-x="380" 
d="M184 260q77 0 113.5 -58.5t36.5 -148.5q0 -85 -38.5 -145.5t-116.5 -60.5q-69 0 -111 51l18 21q34 -46 93 -46q64 0 94 53t31 128v22q-17 -25 -51 -47.5t-73 -22.5q-59 0 -96.5 33t-37.5 95q0 51 37.5 88.5t100.5 37.5zM183 32q35 0 67.5 20t51.5 53q-5 52 -34 90.5
t-84 38.5q-51 0 -80 -31.5t-29 -68.5q0 -49 30 -75.5t78 -26.5z" />
    <glyph glyph-name="uni208D" unicode="&#x208d;" horiz-adv-x="135" 
d="M109 -211q-81 119 -81 265q0 144 81 265l16 -9q-33 -68 -49.5 -125t-16.5 -131t16.5 -132t49.5 -124z" />
    <glyph glyph-name="uni208E" unicode="&#x208e;" horiz-adv-x="135" 
d="M44 -211l-16 9q33 66 49.5 124t16.5 132t-16.5 131t-49.5 125l16 9q81 -121 81 -265t-81 -265z" />
    <glyph glyph-name="colonmonetary" unicode="&#x20a1;" horiz-adv-x="667" 
d="M605 115l26 -21q-94 -106 -233 -106q-22 0 -32 1l-30 -89h-31l31 93q-50 9 -91 30l-41 -123h-31l46 138q-71 45 -112.5 121.5t-41.5 173.5q0 151 96 248t237 97q12 0 36 -2l31 92h31l-32 -96q50 -11 89 -34l44 130h31l-50 -147q27 -20 52 -48l-25 -22q-15 19 -37 38
l-192 -570q7 -1 22 -1q62 0 116.5 26t90.5 71zM100 333q0 -85 34.5 -154t95.5 -110l194 578q-8 1 -26 1q-127 0 -212.5 -88t-85.5 -227zM543 606q-44 28 -89 36l-198 -589q38 -21 90 -31z" />
    <glyph glyph-name="uni20A3" unicode="&#x20a3;" horiz-adv-x="545" 
d="M508 637h-376v-279h369v-30h-369v-140h243v-27h-243v-161h-32v161h-88v27h88v479h408v-30z" />
    <glyph glyph-name="lira" unicode="&#x20a4;" horiz-adv-x="491" 
d="M464 59l18 -27q-48 -46 -124 -46q-47 0 -91 24t-87 24q-39 0 -119 -41l-14 33q76 32 114 78t38 99v5h-182v30h177q-9 34 -58 85h-119v30h90q-56 63 -56 136q0 75 58.5 131.5t149.5 56.5q55 0 103.5 -28.5t71.5 -75.5l-26 -18q-15 36 -56 64t-93 28q-73 0 -124 -42.5
t-51 -115.5q0 -68 60 -136h202v-30h-174q43 -47 53 -85h121v-30h-117v-5q0 -50 -22.5 -84t-63.5 -65q28 10 55 10q34 0 86 -25q44 -23 76 -23t62 14t42 29z" />
    <glyph glyph-name="uni20A6" unicode="&#x20a6;" horiz-adv-x="714" 
d="M702 397h-88v-119h88v-27h-88v-251h-32l-184 251h-266v-251h-32v251h-88v27h88v119h-88v27h88v243h32l180 -243h270v243h32v-243h88v-27zM132 615v-191h140zM132 278h247l-87 119h-160v-119zM582 278v119h-250l87 -119h163zM582 58v193h-143z" />
    <glyph glyph-name="peseta" unicode="&#x20a7;" horiz-adv-x="608" 
d="M604 491v-30h-79q-5 -73 -57.5 -122.5t-136.5 -49.5h-199v-289h-32v461h-88v30h88v176h231q86 0 138 -50.5t57 -125.5h78zM132 637v-146h359q-5 65 -48.5 105.5t-112.5 40.5h-198zM330 319q68 0 111.5 39.5t48.5 102.5h-358v-142h198z" />
    </font>
</defs>
</svg>
