<svg xmlns="http://www.w3.org/2000/svg" xmlns:xlink="http://www.w3.org/1999/xlink" width="443.625" height="537.71" viewBox="0 0 443.625 537.71">
  <defs>
    <clipPath id="clip-path">
      <path id="Path_63" data-name="Path 63" d="M0,192.391H443.625V-345.32H0Z" transform="translate(0 345.32)" fill="none"/>
    </clipPath>
  </defs>
  <g id="Group_42" data-name="Group 42" transform="translate(0 345.32)">
    <path id="Path_44" data-name="Path 44" d="M171.119-322.7h-42.23v62.56h42.23Z" transform="translate(71.809 12.604)" fill="#fff"/>
    <g id="Group_40" data-name="Group 40" transform="translate(0 -345.32)" clip-path="url(#clip-path)">
      <g id="Group_22" data-name="Group 22" transform="translate(178.63 0)">
        <path id="Path_45" data-name="Path 45" d="M23.318,0H-20.66A21.355,21.355,0,0,0-41.854,21.512v1A21.355,21.355,0,0,0-20.66,44.025H23.318A21.354,21.354,0,0,0,44.511,22.513v-1A21.354,21.354,0,0,0,23.318,0" transform="translate(41.854 0)" fill="#fff"/>
      </g>
      <g id="Group_23" data-name="Group 23" transform="translate(90.821 396.977)">
        <path id="Path_46" data-name="Path 46" d="M4.363,49.793,1.109,48.208A16.169,16.169,0,0,1-6.286,26.842L44.377-80.3a15.719,15.719,0,0,1,21.048-7.507l3.254,1.585a16.168,16.168,0,0,1,7.395,21.365L25.411,42.286A15.719,15.719,0,0,1,4.363,49.793" transform="translate(7.831 89.373)" fill="#fff"/>
      </g>
      <g id="Group_24" data-name="Group 24" transform="translate(267.353 396.977)">
        <path id="Path_47" data-name="Path 47" d="M26.211,49.793l3.254-1.585A16.169,16.169,0,0,0,36.86,26.842L-13.8-80.3a15.719,15.719,0,0,0-21.048-7.507l-3.254,1.585a16.17,16.17,0,0,0-7.4,21.365L5.163,42.286a15.719,15.719,0,0,0,21.048,7.507" transform="translate(47.046 89.373)" fill="#fff"/>
      </g>
      <g id="Group_25" data-name="Group 25" transform="translate(0 61.871)">
        <path id="Path_48" data-name="Path 48" d="M60.549,30.731c0,47.435-37.884,85.889-84.615,85.889s-84.613-38.453-84.613-85.889S-70.8-55.158-24.066-55.158,60.549-16.7,60.549,30.731" transform="translate(108.679 55.158)" fill="#fff"/>
      </g>
      <g id="Group_26" data-name="Group 26" transform="translate(274.397 61.871)">
        <path id="Path_49" data-name="Path 49" d="M60.549,30.731c0,47.435-37.884,85.889-84.615,85.889s-84.613-38.453-84.613-85.889S-70.8-55.158-24.066-55.158,60.549-16.7,60.549,30.731" transform="translate(108.679 55.158)" fill="#fff"/>
      </g>
      <g id="Group_27" data-name="Group 27" transform="translate(14.106 62.973)">
        <path id="Path_50" data-name="Path 50" d="M148.634,75.436C148.634-41.005,55.64-135.4-59.075-135.4S-266.781-41.005-266.781,75.436s92.994,210.835,207.706,210.835S148.634,191.877,148.634,75.436" transform="translate(266.781 135.399)" fill="#fff"/>
      </g>
      <g id="Group_28" data-name="Group 28" transform="translate(67.361 117.031)">
        <path id="Path_51" data-name="Path 51" d="M110.524,56.094c0-86.586-69.151-156.777-154.451-156.777S-198.379-30.492-198.379,56.094s69.151,156.777,154.452,156.777S110.524,142.679,110.524,56.094" transform="translate(198.379 100.683)" fill="#fff"/>
      </g>
      <g id="Group_29" data-name="Group 29" transform="translate(209.267 134.665)">
        <path id="Path_52" data-name="Path 52" d="M8.978,4.556A12.64,12.64,0,0,1-3.568,17.291,12.64,12.64,0,0,1-16.114,4.556,12.64,12.64,0,0,1-3.568-8.178,12.64,12.64,0,0,1,8.978,4.556" transform="translate(16.114 8.178)" fill="#fff"/>
      </g>
      <g id="Group_30" data-name="Group 30" transform="translate(209.267 387.483)">
        <path id="Path_53" data-name="Path 53" d="M8.978,4.556A12.64,12.64,0,0,1-3.568,17.291,12.64,12.64,0,0,1-16.114,4.556,12.64,12.64,0,0,1-3.568-8.178,12.64,12.64,0,0,1,8.978,4.556" transform="translate(16.114 8.178)" fill="#fff"/>
      </g>
      <g id="Group_31" data-name="Group 31" transform="translate(121.208 171.688)">
        <path id="Path_54" data-name="Path 54" d="M7.663,1.335a12.869,12.869,0,0,1,0,18.01,12.415,12.415,0,0,1-17.744,0,12.872,12.872,0,0,1,0-18.01,12.415,12.415,0,0,1,17.744,0" transform="translate(13.755 2.396)" fill="#fff"/>
      </g>
      <g id="Group_32" data-name="Group 32" transform="translate(297.326 350.457)">
        <path id="Path_55" data-name="Path 55" d="M7.663,1.335a12.872,12.872,0,0,1,0,18.01,12.414,12.414,0,0,1-17.742,0,12.869,12.869,0,0,1,0-18.01,12.414,12.414,0,0,1,17.742,0" transform="translate(13.754 2.396)" fill="#fff"/>
      </g>
      <g id="Group_33" data-name="Group 33" transform="translate(84.733 261.073)">
        <path id="Path_56" data-name="Path 56" d="M4.489,0A12.642,12.642,0,0,1,17.035,12.736,12.641,12.641,0,0,1,4.489,25.47,12.641,12.641,0,0,1-8.057,12.736,12.642,12.642,0,0,1,4.489,0" transform="translate(8.057)" fill="#fff"/>
      </g>
      <g id="Group_34" data-name="Group 34" transform="translate(333.801 261.073)">
        <path id="Path_57" data-name="Path 57" d="M4.489,0A12.642,12.642,0,0,1,17.035,12.736,12.641,12.641,0,0,1,4.489,25.47,12.641,12.641,0,0,1-8.057,12.736,12.642,12.642,0,0,1,4.489,0" transform="translate(8.057)" fill="#fff"/>
      </g>
      <g id="Group_35" data-name="Group 35" transform="translate(121.208 350.457)">
        <path id="Path_58" data-name="Path 58" d="M1.315,1.335a12.415,12.415,0,0,1,17.744,0,12.872,12.872,0,0,1,0,18.01,12.415,12.415,0,0,1-17.744,0,12.872,12.872,0,0,1,0-18.01" transform="translate(2.36 2.396)" fill="#fff"/>
      </g>
      <g id="Group_36" data-name="Group 36" transform="translate(297.325 171.688)">
        <path id="Path_59" data-name="Path 59" d="M1.315,1.335a12.414,12.414,0,0,1,17.742,0,12.869,12.869,0,0,1,0,18.01,12.414,12.414,0,0,1-17.742,0,12.869,12.869,0,0,1,0-18.01" transform="translate(2.36 2.396)" fill="#fff"/>
      </g>
      <g id="Group_37" data-name="Group 37" transform="translate(212.521 175.405)">
        <path id="Path_60" data-name="Path 60" d="M3.324,46.178h0a9.362,9.362,0,0,1-9.291-9.432v-110.2a9.362,9.362,0,0,1,9.291-9.432,9.363,9.363,0,0,1,9.291,9.432v110.2a9.363,9.363,0,0,1-9.291,9.432" transform="translate(5.967 82.885)" fill="#fff"/>
      </g>
      <g id="Group_38" data-name="Group 38" transform="translate(104.18 244.113)">
        <path id="Path_61" data-name="Path 61" d="M51.151,1.034h0a9.484,9.484,0,0,1-.129,13.31l-127,127.431a9.241,9.241,0,0,1-13.166-.263,9.484,9.484,0,0,1,.129-13.31L37.985.771a9.241,9.241,0,0,1,13.166.263" transform="translate(91.81 1.856)" fill="#fff"/>
      </g>
      <g id="Group_39" data-name="Group 39" transform="translate(201.984 253.679)">
        <path id="Path_62" data-name="Path 62" d="M14.19,7.2A19.982,19.982,0,0,0-5.64-12.927,19.981,19.981,0,0,0-25.469,7.2,19.979,19.979,0,0,0-5.64,27.33,19.981,19.981,0,0,0,14.19,7.2" transform="translate(25.469 12.927)" fill="#fff"/>
      </g>
    </g>
    <g id="Group_41" data-name="Group 41" transform="translate(100.178 -240.035)">
      <path id="Path_64" data-name="Path 64" d="M17.886,120.5H113.32L231.983-156.2v-60.088H-32.1v75.741H132Z" transform="translate(32.104 216.293)" fill="#66b2bc"/>
    </g>
  </g>
</svg>
