<svg xmlns="http://www.w3.org/2000/svg" width="100" height="100" viewBox="0 0 101.929 87.18">
  <path id="Path_43" data-name="Path 43" d="M201.162,660.316a2.269,2.269,0,0,1-2.263,2.263,14.678,14.678,0,0,0-14.707,14.707,2.263,2.263,0,0,1-4.526,0A19.217,19.217,0,0,1,198.9,658.053,2.269,2.269,0,0,1,201.162,660.316Zm69.006,16.517a29.458,29.458,0,0,1-10.408,22.512l-39.029,33.938a2.195,2.195,0,0,1-2.94,0l-39.029-33.938a29.457,29.457,0,0,1-10.408-22.512,7.917,7.917,0,0,1,.114-1.583,30.593,30.593,0,0,1,50.906-20.816,30.593,30.593,0,0,1,50.906,20.816A8.077,8.077,0,0,0,270.169,676.833Zm-12.106,17.986h-12.9l-4.979,6a2.156,2.156,0,0,1-1.922.792,2.794,2.794,0,0,1-1.81-1.132l-7.127-13.348-13.8,23.53a2.335,2.335,0,0,1-1.924,1.133h-.227a2.314,2.314,0,0,1-1.922-1.586l-8.6-27.827-6.448,11.312a2.33,2.33,0,0,1-1.924,1.13H180.46a11.361,11.361,0,0,0,1.242,1.133l37.558,32.693,37.558-32.693A11.376,11.376,0,0,0,258.063,694.819Zm7.58-17.874v-1.357a25.991,25.991,0,0,0-44.685-16.4,2.324,2.324,0,0,1-3.281,0,26.086,26.086,0,0,0-18.778-7.919,9.815,9.815,0,0,0-1.81.112,26.128,26.128,0,0,0-24.209,24.209v1.357a23.632,23.632,0,0,0,3.958,13.351h16.291l8.372-14.707a2.3,2.3,0,0,1,2.263-1.13,2.176,2.176,0,0,1,1.922,1.583l8.71,27.941,13.124-22.738a2.375,2.375,0,0,1,2.036-1.13,2.089,2.089,0,0,1,1.922,1.245l7.466,14.028,3.508-4.187a2.038,2.038,0,0,1,1.7-.792h17.533A24.251,24.251,0,0,0,265.643,676.945Z" transform="translate(-168.352 -646.667)" fill="#fff"/>
</svg>
