<svg id="Group_21" data-name="Group 21" xmlns="http://www.w3.org/2000/svg" xmlns:xlink="http://www.w3.org/1999/xlink" width="100" height="100" viewBox="0 0 95.148 83.644">
  <defs>
    <clipPath id="clip-path">
      <path id="Path_35" data-name="Path 35" d="M0,13.674H95.149V-69.97H0Z" transform="translate(0 69.97)" fill="none"/>
    </clipPath>
  </defs>
  <g id="Group_10" data-name="Group 10" transform="translate(0 0)" clip-path="url(#clip-path)">
    <g id="Group_8" data-name="Group 8" transform="translate(2.418 2.418)">
      <path id="Path_33" data-name="Path 33" d="M.258,12.883a1.63,1.63,0,0,1-1.574-1.4A17.237,17.237,0,0,1,.73,2.429,15.706,15.706,0,0,1,7.151-3.5a39.922,39.922,0,0,1,9.56-3.469A27.4,27.4,0,0,0,24.443-9.9a10.453,10.453,0,0,0,4.9-5.773,10.689,10.689,0,0,0,.412-4.991c-.237-1.479-.583-2.943-.91-4.408a.6.6,0,0,0-.4-.375,5.727,5.727,0,0,1-3.892-2.673,14.731,14.731,0,0,1-2.483-5.706,6.1,6.1,0,0,1,1.5-5.652.569.569,0,0,0,.141-.421,33.777,33.777,0,0,1-.482-7.328,19.738,19.738,0,0,1,3.323-10.612,18.276,18.276,0,0,1,9.939-6.988,23.77,23.77,0,0,1,6.349-1.087A23.147,23.147,0,0,1,56.28-62.439a16.659,16.659,0,0,1,7.338,10.35,24.583,24.583,0,0,1,.705,7.339c-.074,1.559-.331,3.109-.485,4.665a.779.779,0,0,0,.175.543,5.908,5.908,0,0,1,1.535,4.963A14.068,14.068,0,0,1,62.6-27.722a5.146,5.146,0,0,1-3.516,2.155.506.506,0,0,0-.359.269,18.445,18.445,0,0,0-.995,7.238,9.986,9.986,0,0,0,4.886,7.8A23.58,23.58,0,0,0,69.854-7.32a47.5,47.5,0,0,1,9.718,3.313,17.71,17.71,0,0,1,6.5,5.083A13.527,13.527,0,0,1,88.7,7.457c.167,1.194.178,2.411.29,3.615a1.6,1.6,0,0,1-1.58,1.793Z" transform="translate(1.32 65.925)" fill="none" stroke="#fff" stroke-width="5"/>
    </g>
    <g id="Group_9" data-name="Group 9" transform="translate(41.551 2.352)">
      <path id="Path_34" data-name="Path 34" d="M1.288.032S-1.353,5.094-2.533,7.375a1.561,1.561,0,0,0-.063.2c.783.148,1.519.29,2.257.426,1.172.214,2.347.412,3.516.638a1.593,1.593,0,0,1,1.071,2.43c-.354.638-.74,1.259-1.112,1.886q-1.551,2.613-3.1,5.225a3.011,3.011,0,0,1-.457.6,1.459,1.459,0,0,1-1.862.182,1.454,1.454,0,0,1-.562-1.727,3.312,3.312,0,0,1,.259-.516q1.379-2.378,2.76-4.752c.09-.152.165-.311.275-.522-.851-.192-1.654-.378-2.459-.556-1.1-.244-2.212-.473-3.313-.727A1.535,1.535,0,0,1-6.381,7.87Q-4.412,4.241-2.425.621C-2.348.481-2.169.1-2.169.1A6.576,6.576,0,0,1,1.288.032" transform="translate(6.591 0.161)" fill="#fff"/>
    </g>
  </g>
</svg>
