<svg id="Group_20" data-name="Group 20" xmlns="http://www.w3.org/2000/svg" xmlns:xlink="http://www.w3.org/1999/xlink" width="100" height="100" viewBox="0 0 85.403 90.45">
  <defs>
    <clipPath id="clip-path">
      <path id="Path_42" data-name="Path 42" d="M0,21.431H85.4v-90.45H0Z" transform="translate(0 69.019)" fill="#fff"/>
    </clipPath>
  </defs>
  <g id="Group_19" data-name="Group 19" transform="translate(0 0)" clip-path="url(#clip-path)">
    <g id="Group_15" data-name="Group 15" transform="translate(1.311 1.311)">
      <path id="Path_38" data-name="Path 38" d="M19.614,10.4q0,16.734,0,33.468a10.174,10.174,0,0,1-8.59,10.3,12.092,12.092,0,0,1-2.111.148q-30.682.012-61.36.005c-5.463,0-9.543-3.27-10.546-8.459a10.745,10.745,0,0,1-.166-2.042q-.012-33.4-.005-66.8A10.215,10.215,0,0,1-52.662-33.5c3.755-.012,7.509,0,11.265,0q25.179,0,50.36,0a10.24,10.24,0,0,1,8.613,4.133A9.917,9.917,0,0,1,19.611-23.2q.01,16.8,0,33.6m-2.215.022V-21.383c0-.706.01-1.414-.005-2.12a7.669,7.669,0,0,0-1.776-4.812,8.074,8.074,0,0,0-6.636-2.976q-30.744.016-61.489.007c-.2,0-.4,0-.6.007A7.959,7.959,0,0,0-60.959-23.2q0,33.6,0,67.2a7.475,7.475,0,0,0,.071,1.187A7.948,7.948,0,0,0-52.8,52.11q31.01.022,62.018,0a8.4,8.4,0,0,0,1.968-.21,7.906,7.906,0,0,0,6.21-7.94q0-16.766,0-33.532" transform="translate(63.167 33.506)" fill="#fff"/>
    </g>
    <g id="Group_16" data-name="Group 16" transform="translate(1.311 1.311)">
      <path id="Path_39" data-name="Path 39" d="M19.614,10.4q0,16.734,0,33.468a10.174,10.174,0,0,1-8.59,10.3,12.092,12.092,0,0,1-2.111.148q-30.682.012-61.36.005c-5.463,0-9.543-3.27-10.546-8.459a10.745,10.745,0,0,1-.166-2.042q-.012-33.4-.005-66.8A10.215,10.215,0,0,1-52.662-33.5c3.755-.012,7.509,0,11.265,0q25.179,0,50.36,0a10.24,10.24,0,0,1,8.613,4.133A9.917,9.917,0,0,1,19.611-23.2Q19.621-6.4,19.614,10.4Zm-2.215.022V-21.383c0-.706.01-1.414-.005-2.12a7.669,7.669,0,0,0-1.776-4.812,8.074,8.074,0,0,0-6.636-2.976q-30.744.016-61.489.007c-.2,0-.4,0-.6.007A7.959,7.959,0,0,0-60.959-23.2q0,33.6,0,67.2a7.475,7.475,0,0,0,.071,1.187A7.948,7.948,0,0,0-52.8,52.11q31.01.022,62.018,0a8.4,8.4,0,0,0,1.968-.21,7.906,7.906,0,0,0,6.21-7.94Q17.4,27.192,17.4,10.426Z" transform="translate(63.167 33.506)" fill="#fff" stroke="#fff" stroke-width="2"/>
    </g>
    <g id="Group_17" data-name="Group 17" transform="translate(24.422 13.662)">
      <path id="Path_40" data-name="Path 40" d="M4.327,4.117c-3.127,0-6.254-.03-9.381.018A2.238,2.238,0,0,1-7.143,3.1C-9.2.228-11.317-2.594-13.412-5.436c-.744-1.009-.716-1.379.237-2.225a21.041,21.041,0,0,1,8.923-4.473,33.552,33.552,0,0,1,19.562.71A18.356,18.356,0,0,1,21.84-7.68c.988.892,1.013,1.219.237,2.271-2.12,2.878-4.257,5.744-6.348,8.641a1.927,1.927,0,0,1-1.757.9c-3.215-.035-6.431-.014-9.645-.014M20.038-6.326c-7.678-6.418-24.281-6.132-31.346-.016a.445.445,0,0,0,.041.122C-9.331-3.587-7.4-.952-5.445,1.665a.945.945,0,0,0,.664.282c1.144.029,2.289.013,3.434.013h1.8c.49-2.54,1.755-3.511,4.3-3.436a.8.8,0,0,0,.561-.387C6.231-3.51,7.11-5.174,8.009-6.829a1.133,1.133,0,0,1,1.515-.653,1.094,1.094,0,0,1,.419,1.664C9.018-4.077,8.073-2.347,7.155-.6a.9.9,0,0,0-.086.638c.223.628.508,1.233.8,1.909-.055-.017-.013.007.028.007a31.005,31.005,0,0,1,3.7.039A3.488,3.488,0,0,0,15.339.129c1.426-2.228,3.106-4.293,4.7-6.456M5.446,1.937C5.291,1.042,4.772.605,4,.652A1.261,1.261,0,0,0,2.784,1.937Z" transform="translate(13.934 13.26)" fill="#fff"/>
    </g>
    <g id="Group_18" data-name="Group 18" transform="translate(24.422 13.662)">
      <path id="Path_41" data-name="Path 41" d="M4.327,4.117c-3.127,0-6.254-.03-9.381.018A2.238,2.238,0,0,1-7.143,3.1C-9.2.228-11.317-2.594-13.412-5.436c-.744-1.009-.716-1.379.237-2.225a21.041,21.041,0,0,1,8.923-4.473,33.552,33.552,0,0,1,19.562.71A18.356,18.356,0,0,1,21.84-7.68c.988.892,1.013,1.219.237,2.271-2.12,2.878-4.257,5.744-6.348,8.641a1.927,1.927,0,0,1-1.757.9C10.757,4.1,7.541,4.117,4.327,4.117ZM20.038-6.326c-7.678-6.418-24.281-6.132-31.346-.016a.445.445,0,0,0,.041.122C-9.331-3.587-7.4-.952-5.445,1.665a.945.945,0,0,0,.664.282c1.144.029,2.289.013,3.434.013h1.8c.49-2.54,1.755-3.511,4.3-3.436a.8.8,0,0,0,.561-.387C6.231-3.51,7.11-5.174,8.009-6.829a1.133,1.133,0,0,1,1.515-.653,1.094,1.094,0,0,1,.419,1.664C9.018-4.077,8.073-2.347,7.155-.6a.9.9,0,0,0-.086.638c.223.628.508,1.233.8,1.909-.055-.017-.013.007.028.007a31.005,31.005,0,0,1,3.7.039A3.488,3.488,0,0,0,15.339.129C16.765-2.1,18.445-4.164,20.038-6.326ZM5.446,1.937C5.291,1.042,4.772.605,4,.652A1.261,1.261,0,0,0,2.784,1.937Z" transform="translate(13.934 13.26)" fill="#fff" stroke="#fff" stroke-width="2"/>
    </g>
  </g>
</svg>
